<?xml version="1.0" encoding="utf-8"?>
<!-- Generator: Adobe Illustrator 19.0.0, SVG Export Plug-In . SVG Version: 6.00 Build 0)  -->
<svg version="1.1" id="Layer_1" xmlns="http://www.w3.org/2000/svg" xmlns:xlink="http://www.w3.org/1999/xlink" x="0px" y="0px"
	 viewBox="0 0 50 50" style="enable-background:new 0 0 50 50;" xml:space="preserve">
<style type="text/css">
	.st0{fill:#4697E0;}
	.st1{fill:#1E0E22;}
	.st2{fill:#FCD1B2;}
	.st3{fill:#F8AD94;}
	.st4{fill:#190D1B;}
	.st5{fill:#F9F8F6;}
	.st6{fill:#A85442;}
	.st7{fill:#EA9078;}
</style>
<g id="XMLID_2_">
	<path id="XMLID_25_" class="st0" d="M0.1,25.1c0,6.6,2.6,12.7,6.8,17.2c4.6,4.9,11.1,8,18.4,8c7.6,0,14.4-3.3,19-8.6
		c3.8-4.4,6.2-10.2,6.2-16.5C50.4,11.3,39.1,0,25.2,0C11.3,0,0.1,11.3,0.1,25.1z"/>
	<g id="XMLID_3_">
		<path id="XMLID_24_" class="st1" d="M19.3,8.6c3.7-1.3,12.2-2.4,15.1,1.6c2,2.7,1.3,6.3,0.8,9.3c-0.2,1.4-0.9,3.2-0.7,4.7
			c0.1,1.5,1.2,2.6,1.7,4c0.4,1.4,0.4,3-0.5,4.2c-1.1,1.6-3.3,2-5.2,2.2c-2.7,0.2-5.4,0.3-8.1,0.2c-2-0.1-4-0.3-5.7-1.3
			c-2.1-1.3-3.2-3.6-3.7-6C12.1,22,13.1,10.8,19.3,8.6z"/>
		<g id="XMLID_21_">
			<path id="XMLID_23_" class="st2" d="M6.9,42.3c4.6,4.9,11.1,8,18.4,8c7.6,0,14.4-3.3,19-8.6c-0.5-1.1-1.5-1.9-2.2-2.6
				c-0.7-0.7-3.2-1.8-5.5-3c-1.5-0.7-6-2.5-6.8-3.1c-0.2-0.2-0.4-1-0.5-2.2C29,27.9,29,23.4,29,23.4l-9.4-4.5c0,0,0.6,5.2,0.7,9.1
				c0,1.4,0,2.6-0.1,3.4c-0.3,1.6-1,2.6-2.9,3.6c-0.5,0.2-1.5,0.7-2.4,1.1C12.1,37.3,7.8,39.2,6.9,42.3z"/>
			<path id="XMLID_22_" class="st3" d="M19.6,18.9c0,0,0.6,5.2,0.7,9.1c1,0.9,2.2,2,3.5,2.5c1.7,0.7,4.1,0.5,5.5,0.3
				C29,27.9,29,23.4,29,23.4L19.6,18.9z"/>
		</g>
		<g id="XMLID_18_">
			<path id="XMLID_20_" class="st4" d="M6.9,42.3c4.6,4.9,11.1,8,18.4,8c7.6,0,14.4-3.3,19-8.6c-0.5-1.1-1.5-1.9-2.2-2.6
				c-0.5-0.5-2.2-1.4-4-2.3c0.2,0.5,0.4,1.4-0.3,1.9c-1.1,0.7-2.4,0.2-2.4,0.2s0.4,1.9-0.7,2.3c-1.1,0.4-2.3-0.6-2.3-0.6
				s0,1.8-1.1,1.9c-1.1,0.1-2.4-0.8-2.4-0.8s-0.9,2.4-2.2,1.9c-1.4-0.6-1.9-1.4-1.9-1.4s-2.1,1.7-3,1c-0.9-0.7-1.1-1.9-1.1-1.9
				S19,42.5,18.2,42c-0.8-0.6-0.7-2.1-0.7-2.1s-1.7,0.9-2.4,0.2c-0.7-0.7,0-1.9,0-1.9c-0.1,0-1.7,0.9-2.3,0.3
				c-0.3-0.3,0-0.9,0.4-1.6C10.6,38,7.7,39.8,6.9,42.3z"/>
			<path id="XMLID_19_" class="st5" d="M12.8,38.4c0.6,0.6,2.2-0.2,2.3-0.3c0,0.1-0.7,1.2,0,1.9c0.7,0.7,2.4-0.2,2.4-0.2
				s0,1.5,0.7,2.1c0.8,0.6,2.3-0.7,2.3-0.7s0.1,1.1,1.1,1.9c0.9,0.7,3-1,3-1s0.6,0.8,1.9,1.4c1.4,0.6,2.2-1.9,2.2-1.9
				s1.2,0.9,2.4,0.8c1.1-0.1,1.1-1.9,1.1-1.9s1.2,1,2.3,0.6c1.1-0.4,0.7-2.3,0.7-2.3s1.3,0.5,2.4-0.2c0.7-0.5,0.5-1.4,0.3-1.9
				c-0.5-0.2-1-0.5-1.5-0.7c-1.3,1-2.9,2.9-8.1,4c-5.6,1.2-11.2-2-13.5-4.1c-0.5,0.2-1.1,0.5-1.7,0.8C12.7,37.5,12.5,38.1,12.8,38.4
				z"/>
		</g>
		<path id="XMLID_17_" class="st3" d="M19.2,20.8c-0.1-0.1-1.1-3-2.9-2.3c-1.9,0.7,0.3,5.1,1.3,5.6c1,0.5,2.3-0.1,2.4-0.9
			C20.2,22.5,19.2,20.8,19.2,20.8z"/>
		<g id="XMLID_14_">
			<path id="XMLID_16_" class="st3" d="M32.6,21c0,0,0.9-2.3,2.3-2.1c1.7,0.2,1.2,4-0.9,5.2c-2,1.1-1.9-0.5-1.9-0.5L32.6,21z"/>
			<path id="XMLID_15_" class="st2" d="M33.3,14c0,0-0.4,12.5-2.6,14.3c-2.8,2.3-8.9-0.9-9.9-1.7c-1.2-0.9-2.3-10-2.3-10l2.8-4.9
				C21.2,11.7,31.5,12.1,33.3,14z"/>
		</g>
		<path id="XMLID_13_" class="st1" d="M21.4,12.1c0,0,0,4.1-3.6,5.8c-2.1-2.1,1.1-8.1,2-8.5c0.9-0.4,12-1.6,14.6,2.5
			c1.8,3-0.5,5.9-0.5,5.7c0-0.2-1.6-2.7-1.6-2.7S24.9,16.3,21.4,12.1z"/>
		<g id="XMLID_4_">
			<path id="XMLID_12_" class="st6" d="M29.1,23.8l-4.7-0.1c0,0,0.6,1.6,2.2,1.8C28.8,25.7,29.1,23.8,29.1,23.8z"/>
			<path id="XMLID_11_" class="st7" d="M27.2,22.2C27.2,22.2,27.2,22.2,27.2,22.2l-1.3,0c-0.1,0-0.2-0.1-0.2-0.2
				c0-0.1,0.1-0.2,0.2-0.2c0,0,0,0,0,0l1.3,0c0,0,0.1,0,0.1,0c0,0,0-0.1,0-0.1l0.1-4.1c0-0.1,0.1-0.2,0.2-0.2c0.1,0,0.2,0.1,0.2,0.2
				l-0.1,4.1c0,0.2-0.1,0.3-0.2,0.4C27.5,22.2,27.4,22.2,27.2,22.2z"/>
			<g id="XMLID_8_">
				<path id="XMLID_10_" class="st1" d="M23.1,18.9c0.2-0.4,0.7-0.5,1-0.3c0.8,0.5,0.1,1.7-0.7,1.3C23,19.7,22.9,19.2,23.1,18.9z"/>
				<path id="XMLID_9_" class="st1" d="M23.3,16.5c1.3-0.1,1.5,1,1.5,1s-0.5-0.2-1.4-0.2c-0.7,0-1.4,0.3-1.4,0.3
					S22.3,16.6,23.3,16.5z"/>
			</g>
			<g id="XMLID_5_">
				<path id="XMLID_7_" class="st1" d="M29.6,19c0.2-0.4,0.7-0.5,1-0.3c0.8,0.5,0.1,1.7-0.7,1.3C29.6,19.9,29.4,19.4,29.6,19z"/>
				<path id="XMLID_6_" class="st1" d="M30.6,16.6c1,0.1,1.3,1.1,1.3,1.1s-0.8-0.3-1.4-0.3c-1,0-1.4,0.2-1.4,0.2
					S29.2,16.5,30.6,16.6z"/>
			</g>
		</g>
	</g>
</g>
</svg>
