<?xml version="1.0" encoding="utf-8"?>
<!-- Generator: Adobe Illustrator 19.0.0, SVG Export Plug-In . SVG Version: 6.00 Build 0)  -->
<svg version="1.1" id="Layer_1" xmlns="http://www.w3.org/2000/svg" xmlns:xlink="http://www.w3.org/1999/xlink" x="0px" y="0px"
	 viewBox="0 0 50 50" style="enable-background:new 0 0 50 50;" xml:space="preserve">
<style type="text/css">
	.st0{fill:#D75A4A;}
	.st1{fill:#AA4F27;}
	.st2{fill:#FCD1B2;}
	.st3{fill:#F8AD94;}
	.st4{fill:#F7F1F6;}
	.st5{fill:#F69D80;}
	.st6{fill:#F16A31;}
	.st7{fill:#1E0E22;}
	.st8{fill:#A85442;}
	.st9{fill:#EA9078;}
</style>
<g id="XMLID_2_">
	<path id="XMLID_34_" class="st0" d="M50.2,25c0,6.6-2.6,12.7-6.8,17.2c-4.6,4.9-11.1,8-18.4,8c-7.6,0-14.4-3.4-19-8.7
		C2.2,37.1-0.2,31.3-0.2,25C-0.2,11.1,11.1-0.2,25-0.2C38.9-0.2,50.2,11.1,50.2,25z"/>
	<g id="XMLID_3_">
		<g id="XMLID_32_">
			<path id="XMLID_33_" class="st1" d="M13.4,30.2C13.3,30,15,19.8,15,19.8s-2.8-7.2,1.6-9.1c2.2-1,8.8-3.1,15-0.2
				c1.1,0.5,4.8,2.1,4.9,9.5c0,6,0.1,11.4,0.1,11.4S13.4,30.5,13.4,30.2z"/>
		</g>
		<g id="XMLID_28_">
			<g id="XMLID_29_">
				<path id="XMLID_31_" class="st2" d="M6,41.5c4.6,5.3,11.4,8.7,19,8.7c7.3,0,13.8-3.1,18.4-8c-1-3.1-5.2-5-8-6.3
					c-0.3-0.1-0.5-0.3-0.8-0.4c-0.2-0.1-0.4-0.2-0.5-0.2c-0.2-0.1-0.3-0.2-0.5-0.2c-0.2-0.1-0.4-0.2-0.6-0.3c-1.9-0.9-2.7-2-2.9-3.6
					c-0.1-0.8-0.2-2-0.1-3.4c0.1-3.9,0.7-9.1,0.7-9.1l-9.4,4.5c0,0,0,4.5-0.3,7.3c-0.1,1.2-0.3,2-0.5,2.2c-0.4,0.3-1.6,0.9-3,1.5
					c-0.1,0.1-0.3,0.1-0.4,0.2c-0.2,0.1-0.4,0.2-0.6,0.2c-1.1,0.5-2.2,0.9-2.8,1.2c-2.3,1.1-4.8,2.3-5.5,3C7.5,39.6,6.5,40.4,6,41.5
					z"/>
				<path id="XMLID_30_" class="st3" d="M30.7,18.8c0,0-0.6,5.2-0.7,9.1c-1,0.9-2.2,2-3.5,2.5c-1.7,0.7-4.1,0.5-5.5,0.3
					c0.3-2.8,0.3-7.3,0.3-7.3L30.7,18.8z"/>
			</g>
		</g>
		<g id="XMLID_22_">
			<g id="XMLID_24_">
				<path id="XMLID_27_" class="st3" d="M31,20.6c0.1-0.1,1.1-3,2.9-2.3c1.9,0.7-0.3,5.1-1.3,5.6c-1,0.5-2.3-0.1-2.4-0.9
					C30.1,22.4,31,20.6,31,20.6z"/>
				<g id="XMLID_25_">
					<path id="XMLID_26_" class="st2" d="M16.9,13.9c0,0,0.4,12.5,2.6,14.3c2.8,2.3,8.9-0.9,9.9-1.7c1.2-0.9,2.3-10,2.3-10L29,11.6
						C29,11.6,18.7,11.9,16.9,13.9z"/>
				</g>
			</g>
			<path id="XMLID_23_" class="st1" d="M31,22c0,0-2.4-4.7-2.3-6.4s0.5-1.9,0.5-1.9s-7.3,2.4-8.7,2.9c-3.4,1.4-3.9,4.8-3.9,4.6
				c0.1-0.2-1.5-6.5,0-8.4c1.5-1.9,11.6-3.6,13.1-2.9c1.5,0.7,4,4.6,3.2,7.6C32.2,20.5,31,22,31,22z"/>
		</g>
		<g id="XMLID_14_">
			<path id="XMLID_21_" class="st4" d="M6,41.5c0.4,0.4,0.8,0.8,1.2,1.2c0.5,0.5,1.1,1,1.6,1.5c1,0.9,2.1,1.7,3.3,2.4
				c0.9,0.6,1.9,1.1,2.9,1.5c3.1,1.3,6.4,2,10,2c3.5,0,6.9-0.7,10-2c1-0.4,2-0.9,2.9-1.5c1.2-0.7,2.3-1.5,3.3-2.4
				c0.6-0.5,1.1-1,1.6-1.5c0.2-0.2,0.4-0.4,0.6-0.6c-0.2-0.6-0.5-1.2-1-1.8c-0.4-0.5-1-1-1.6-1.5c-1.2-1-2.7-1.7-4-2.4
				c-0.5-0.2-1-0.4-1.4-0.6c-0.5-0.2-0.9-0.4-1.3-0.6c-0.2,0.4-0.5,0.8-0.8,1.3c-0.6,0.8-1.3,1.6-2.2,2.4c-0.8,0.6-1.6,1.1-2.7,1.5
				c-1.1,0.4-2.3,0.6-3.6,0.6c-1,0-1.9-0.2-2.7-0.6c-0.8-0.4-1.5-0.9-2.2-1.5c-0.7-0.7-1.3-1.5-1.8-2.4c-0.4-0.7-0.8-1.5-1-2.1
				c-1.3,0.6-2.6,1.1-3.3,1.5c-0.4,0.2-0.9,0.4-1.3,0.6c-1.9,0.9-3.7,1.8-4.2,2.4c-0.5,0.5-1,0.9-1.5,1.5C6.4,40.7,6.2,41.1,6,41.5z
				"/>
			<path id="XMLID_20_" class="st5" d="M15,48.1c3.1,1.3,6.4,2,10,2c3.5,0,6.9-0.7,10-2H15z"/>
			<path id="XMLID_19_" class="st5" d="M31,38.9h9.8c-1.2-1-2.7-1.7-4-2.4h-3.5C32.7,37.3,32,38.2,31,38.9z"/>
			<path id="XMLID_18_" class="st5" d="M8.2,38.9h11.7c-0.7-0.7-1.3-1.5-1.8-2.4h-5.6C10.6,37.5,8.8,38.3,8.2,38.9z"/>
			<path id="XMLID_17_" class="st5" d="M6,41.5c0.4,0.4,0.8,0.8,1.2,1.2h35.6c0.2-0.2,0.4-0.4,0.6-0.6c-0.2-0.6-0.5-1.2-1-1.8H6.7
				C6.4,40.7,6.2,41.1,6,41.5z"/>
			<path id="XMLID_16_" class="st5" d="M8.8,44.3c1,0.9,2.1,1.7,3.3,2.4h25.8c1.2-0.7,2.3-1.5,3.3-2.4H8.8z"/>
			<path id="XMLID_15_" class="st6" d="M16.5,34.7c0.7,2,2.8,6.5,7.5,6.9c4.4,0.4,8.1-1.7,10.6-6.1c-0.2-0.1-0.4-0.2-0.5-0.2
				c-0.2-0.1-0.3-0.2-0.5-0.2c-0.8,1.3-3.1,4.3-7.5,5.1c-5,0.8-7.6-3.7-8.6-5.9c-0.1,0.1-0.3,0.1-0.4,0.2
				C16.9,34.5,16.7,34.6,16.5,34.7z"/>
		</g>
		<g id="XMLID_4_">
			<g id="XMLID_11_">
				<path id="XMLID_13_" class="st7" d="M20.3,19.9c-0.8,0.4-1.5-0.8-0.7-1.3c0.4-0.2,0.8-0.1,1,0.3C20.8,19.3,20.7,19.7,20.3,19.9z
					"/>
				<path id="XMLID_12_" class="st1" d="M20,16.4c-1,0.1-1.3,1.1-1.3,1.1s0.8-0.3,1.4-0.3c1,0,1.4,0.2,1.4,0.2S21.3,16.3,20,16.4z"
					/>
			</g>
			<g id="XMLID_8_">
				<path id="XMLID_10_" class="st7" d="M26.8,19.7c-0.8,0.4-1.5-0.8-0.7-1.3c0.4-0.2,0.8-0.1,1,0.3C27.3,19.1,27.2,19.6,26.8,19.7z
					"/>
				<path id="XMLID_9_" class="st1" d="M26.9,16.4c-1.3-0.1-1.5,1-1.5,1s0.5-0.2,1.4-0.2c0.7,0,1.4,0.3,1.4,0.3S27.9,16.5,26.9,16.4
					z"/>
			</g>
			<g id="XMLID_5_">
				<path id="XMLID_7_" class="st8" d="M21.2,23.7l4.7-0.1c0,0-0.6,1.6-2.2,1.8C21.5,25.5,21.2,23.7,21.2,23.7z"/>
				<path id="XMLID_6_" class="st9" d="M23,22.1c-0.1,0-0.3-0.1-0.4-0.2c-0.1-0.1-0.2-0.2-0.2-0.4l-0.1-4.1c0-0.1,0.1-0.2,0.2-0.2
					c0.1,0,0.2,0.1,0.2,0.2l0.1,4.1c0,0,0,0.1,0,0.1c0,0,0.1,0,0.1,0l1.3,0c0.1,0,0.2,0.1,0.2,0.2c0,0.1-0.1,0.2-0.2,0.2L23,22.1
					C23,22.1,23,22.1,23,22.1z"/>
			</g>
		</g>
	</g>
</g>
</svg>
