<?xml version="1.0" encoding="utf-8"?>
<!-- Generator: Adobe Illustrator 19.0.0, SVG Export Plug-In . SVG Version: 6.00 Build 0)  -->
<svg version="1.1" id="Layer_1" xmlns="http://www.w3.org/2000/svg" xmlns:xlink="http://www.w3.org/1999/xlink" x="0px" y="0px"
	 viewBox="0 0 50 50" style="enable-background:new 0 0 50 50;" xml:space="preserve">
<style type="text/css">
	.st0{fill:#4697E0;}
	.st1{fill:#EE6A35;}
	.st2{fill:#FCD1B2;}
	.st3{fill:#F8AD94;}
	.st4{fill:#F9F8F6;}
	.st5{fill:#1E0E22;}
	.st6{fill:#A85442;}
	.st7{fill:#EA9078;}
</style>
<g id="XMLID_18_">
	<path id="XMLID_16_" class="st0" d="M50,25c0,6.3-2.3,12-6.1,16.4c-0.7,0.8-1.4,1.5-2.1,2.2C37.3,47.6,31.4,50,25,50
		c-7.2,0-13.7-3-18.3-7.9c-0.5-0.5-1-1.1-1.4-1.7C2,36.2,0,30.8,0,25C0,11.2,11.2,0,25,0C38.8,0,50,11.2,50,25z"/>
	<g id="XMLID_19_">
		<g id="XMLID_44_">
			<path id="XMLID_15_" class="st1" d="M41.7,43.6C37.3,47.6,31.4,50,25,50c-7.2,0-13.7-3-18.3-7.9c-0.5-0.5-1-1.1-1.4-1.7
				c0,0,0,0,0.1-0.1c0.6-0.5,1.1-1.1,1.4-1.8c0.3-1,0-2.3,0.6-3.1c0.7-0.9,2.3-1,2.7-2c0.3-0.8-0.3-1.7-0.1-2.5
				c0.3-1.6,2.8-1.9,3.1-3.4c0.2-1-0.7-2-0.5-3c0.2-0.8,0.9-1.3,1.6-1.9c0.6-0.5,1.2-1.3,1.3-2.2c0.1-0.9-0.6-1.6-0.4-2.5
				c0.2-0.9,1.2-1.4,1.5-2.3c0.3-0.9-0.1-1.9,0.1-2.8c0.2-0.7,0.8-1.3,1.5-1.6c0.7-0.3,1.5-0.3,2.2-0.7c0.7-0.4,1.2-1,2-1.3
				c1.3-0.5,2.6,0.2,4,0.3c1.1,0,2.2-0.5,3.3-0.7c1.1-0.2,2.4-0.1,3.1,0.8c0.2,0.3,0.4,0.2,0.8,0.3c0.4,0.1,0.8,0.1,1.1,0.3
				c0.6,0.3,0.8,1.1,0.7,1.8c-0.1,0.7-0.4,1.3-0.5,2c-0.1,0.7-0.1,1.6,0.5,1.9c0.6,0.3,0.7,1.1,0.6,1.7c-0.1,0.6-0.5,1.2-0.8,1.8
				c-0.3,0.6-0.5,1.3-0.2,1.9c0.4,0.9,1.5,1.2,1.9,2c0.5,1.1-0.4,2.1-0.7,3.1c-0.4,1.3,0.2,1.8,1.1,2.7c0.5,0.4,0.9,1,0.9,1.7
				c0,0.8-0.7,1.4-0.8,2.1c-0.2,1.7,2.6,2.2,2.7,3.9c0,0.8-0.6,1.6-0.6,2.4c0,1.3,1.5,2,2.1,3C41.6,42.6,41.7,43.1,41.7,43.6z"/>
		</g>
		<g id="XMLID_40_">
			<g id="XMLID_41_">
				<path id="XMLID_14_" class="st2" d="M43.9,41.4C39.3,46.7,32.5,50,25,50c-7.2,0-13.7-3-18.3-7.9c1-3.1,5.2-5,7.9-6.2
					c0.2-0.1,0.5-0.2,0.7-0.3c0.6-0.3,1.2-0.6,1.6-0.8c0,0,0.1,0,0.1-0.1c0.4-0.2,0.8-0.4,1.1-0.6c1.1-0.8,1.6-1.7,1.8-2.9
					c0.1-0.7,0.2-2,0.1-3.3c-0.1-3.9-0.7-9-0.7-9l9.4,4.5c0,0,0,4.5,0.3,7.3c0.1,1.2,0.2,2,0.5,2.2c0.2,0.2,0.9,0.5,1.7,0.9l1,0.5
					l1.6,0.7c1,0.4,1.9,0.8,2.5,1.1c2.3,1.1,4.8,2.3,5.5,3C42.4,39.5,43.4,40.3,43.9,41.4z"/>
				<path id="XMLID_13_" class="st3" d="M19.4,18.8c0,0,0.6,5.2,0.7,9c1,0.9,2.2,2,3.4,2.5c1.7,0.7,4.1,0.5,5.5,0.3
					c-0.3-2.8-0.3-7.3-0.3-7.3L19.4,18.8z"/>
			</g>
		</g>
		<g id="XMLID_33_">
			<g id="XMLID_35_">
				<g id="XMLID_36_">
					<g id="XMLID_37_">
						<path id="XMLID_12_" class="st3" d="M32.4,20.9c0,0,0.9-2.3,2.3-2.1c1.7,0.2,1.2,4-0.9,5.2c-2,1.1-1.9-0.5-1.9-0.5L32.4,20.9z
							"/>
						<path id="XMLID_11_" class="st2" d="M33,14c0,0-0.3,12.4-2.6,14.2c-2.8,2.2-8.8-0.9-9.9-1.7c-1.2-0.9-2.3-10-2.3-10l2.7-4.9
							C21,11.6,31.2,12,33,14z"/>
					</g>
				</g>
			</g>
			<path id="XMLID_10_" class="st1" d="M19.5,24.1c0.5-0.3,0.5-1,0.4-1.5c-0.1-0.6-0.3-1.1-0.2-1.7c0.1-0.3,0.2-0.6,0.3-1
				c0-0.4-0.2-0.8-0.3-1.2c-0.1-0.4-0.1-0.9,0.3-1.1c0.6-0.3,1.1-0.5,1.5-1c0.5-0.5,0.5-1.3,0.5-2c0-0.8,0.8-1.3,1.5-1.6
				c0.5,0.9,1.5,1.6,2.5,1.6c0.6,0,1.2-0.1,1.7,0.2c0.5,0.3,0.7,0.8,1,1.2c0.3,0.4,0.9,0.8,1.3,0.5c0.5-0.3,1.2,0,1.6,0.4
				c0.2,0.3,0.4,0.6,0.5,0.9c0.1,0.3,0.3,0.6,0.6,0.9c0.3,0.2,0.6,0.4,1,0.2c-0.2-1-0.1-1.8,0-2.8c0.1-1,0.1-2.1-0.4-3
				c-0.5-1-1.6-1.5-2.7-1.8c-1.1-0.2-2.2-0.2-3.4-0.3c-2-0.2-4-0.9-5.9-0.2c-1.1,0.4-2.1,1.2-2.7,2.2c-1.2,1.6-1.8,3.7-1.6,5.7
				C17.2,20.8,18.1,22.6,19.5,24.1z"/>
		</g>
		<g id="XMLID_29_">
			<path id="XMLID_9_" class="st4" d="M43.9,41.4C39.3,46.7,32.5,50,25,50c-7.2,0-13.7-3-18.3-7.9c1-3.1,5.2-5,7.9-6.2
				c0.2-0.1,0.5-0.2,0.7-0.3c0.6-0.3,1.2-0.6,1.6-0.8c3.2,2.8,9.3,8.7,9.3,8.7l5.9-9.4l1.6,0.7c1,0.4,1.9,0.8,2.5,1.1
				c2.3,1.1,4.8,2.3,5.5,3C42.4,39.5,43.4,40.3,43.9,41.4z"/>
			<path id="XMLID_8_" class="st5" d="M26.3,43.5c-3.3,0.6-5.2,0.7-5.5-0.2c-0.4-0.9,0.1-3.3,0.1-3.3s-4.9,2.1-5.3,0.4
				c-0.2-0.9-0.2-3.2-0.2-4.9c0.7-0.3,1.4-0.7,1.7-0.8c0.4-0.2,0.8-0.4,1.1-0.6C20,36.3,24.9,42.3,26.3,43.5z"/>
			<path id="XMLID_7_" class="st5" d="M34.8,39.8c-0.3,2.3-3.8,0.2-3.8,0.2s0.3,2.7-0.3,3.4c-0.8,1.1-4.5,0.1-4.5,0.1s0-0.1,0.1-0.2
				c0.6-1.2,3.7-7.2,4.7-9.6l2.6,1.1C34.2,36,35,38.2,34.8,39.8z"/>
		</g>
		<g id="XMLID_20_">
			<g id="XMLID_26_">
				<path id="XMLID_6_" class="st5" d="M29.7,20c0.8,0.4,1.5-0.8,0.7-1.3c-0.4-0.2-0.8-0.1-1,0.3C29.2,19.3,29.3,19.8,29.7,20z"/>
				<path id="XMLID_5_" class="st6" d="M30.3,16.5c1,0.1,1.3,1.1,1.3,1.1s-0.8-0.3-1.4-0.3c-0.9,0-1.4,0.2-1.4,0.2
					S29,16.4,30.3,16.5z"/>
			</g>
			<g id="XMLID_23_">
				<path id="XMLID_4_" class="st5" d="M23.2,19.8c0.8,0.4,1.5-0.8,0.7-1.3c-0.4-0.2-0.8-0.1-1,0.3C22.7,19.1,22.8,19.6,23.2,19.8z"
					/>
				<path id="XMLID_3_" class="st6" d="M23.1,16.4c1.3-0.1,1.5,1,1.5,1s-0.5-0.2-1.4-0.2c-0.7,0-1.4,0.3-1.4,0.3
					S22.1,16.5,23.1,16.4z"/>
			</g>
			<path id="XMLID_2_" class="st6" d="M28.8,23.7l-4.7-0.1c0,0,0.6,1.6,2.2,1.8C28.5,25.5,28.8,23.7,28.8,23.7z"/>
			<path id="XMLID_1_" class="st7" d="M27,22.1C27,22.1,27,22.1,27,22.1l-1.3,0c-0.1,0-0.2-0.1-0.2-0.2c0-0.1,0.1-0.2,0.2-0.2l1.2,0
				c0,0,0.1,0,0.1,0c0,0,0-0.1,0-0.1l0.1-4.1c0-0.1,0.1-0.2,0.2-0.2c0.1,0,0.2,0.1,0.2,0.2l-0.1,4.1c0,0.2-0.1,0.3-0.2,0.4
				C27.3,22.1,27.2,22.1,27,22.1z"/>
		</g>
	</g>
</g>
</svg>
