<?xml version="1.0" encoding="utf-8"?>
<!-- Generator: Adobe Illustrator 19.0.0, SVG Export Plug-In . SVG Version: 6.00 Build 0)  -->
<svg version="1.1" id="Layer_1" xmlns="http://www.w3.org/2000/svg" xmlns:xlink="http://www.w3.org/1999/xlink" x="0px" y="0px"
	 viewBox="0 0 50 50" style="enable-background:new 0 0 50 50;" xml:space="preserve">
<style type="text/css">
	.st0{fill:#EFCE4A;}
	.st1{fill:#EF8242;}
	.st2{fill:#1E0E22;}
	.st3{fill:#D8D8D8;}
	.st4{fill:#E26227;}
	.st5{fill:#B94A27;}
</style>
<g id="XMLID_2_">
	<g id="XMLID_26_">
		<path id="XMLID_32_" class="st0" d="M50,25c0,6.6-2.6,12.6-6.7,17.1C38.7,47,32.2,50,25,50c-7.5,0-14.3-3.3-18.9-8.6
			C2.3,37,0,31.3,0,25C0,11.2,11.2,0,25,0C38.8,0,50,11.2,50,25z"/>
		<g id="XMLID_27_">
			<g id="XMLID_28_">
				<g id="XMLID_29_">
					<g id="XMLID_30_">
						<path id="XMLID_31_" class="st1" d="M43.3,42.1"/>
					</g>
				</g>
			</g>
		</g>
	</g>
	<g id="XMLID_3_">
		<path id="XMLID_25_" class="st2" d="M43.3,42.1"/>
		<path id="XMLID_24_" class="st3" d="M20.2,30c0,0-2.8,0.5-4.7-0.9s-1.3-6-1.3-6s-3.3-1.5-3.6-3.3c-0.3-1.9,2.2-4.3,2.2-4.3
			s-1.3-3.6,0.4-4.8c1.7-1.2,3.3-1.3,3.3-1.3s1-4.3,3.6-4.2c2.6,0.1,4.9,2,4.9,2s2.8-1.4,5.5-0.4c2.7,1,2.4,3.8,2.4,3.8s4,0.5,4.6,2
			c0.6,1.5-0.5,5.4-0.5,5.4s2.8,1.2,3.1,3.3c0.3,2.2-3.6,4.4-3.6,4.4s0.9,2.8-0.7,3.8c-1.6,1-4.1,0.5-4.1,0.5s-1.5,3.3-3.6,3.4
			c-2.1,0.1-3.2-2.5-3.2-2.5s-1.4,1.4-2.4,1.2C20.8,31.5,20.2,30,20.2,30z"/>
		<g id="XMLID_19_">
			<g id="XMLID_21_">
				<path id="XMLID_23_" class="st1" d="M43.3,42.1C38.7,47,32.2,50,25,50c-7.5,0-14.3-3.3-18.9-8.6c0.5-1.1,1.5-1.9,2.2-2.6
					c0.7-0.7,3.2-1.8,5.5-3c0.2-0.1,0.4-0.2,0.6-0.3c0.6-0.3,1.4-0.6,2.1-0.9c0.2-0.1,0.4-0.2,0.6-0.2c0.1-0.1,0.3-0.1,0.4-0.2
					c1.4-0.6,2.6-1.2,3-1.5c0.2-0.2,0.4-1,0.5-2.2c0.3-2.8,0.3-7.3,0.3-7.3l9.4-4.5c0,0-0.6,5.2-0.7,9c0,1.4,0,2.6,0.1,3.3
					c0.3,1.6,1,2.6,2.9,3.5c0.1,0.1,0.4,0.2,0.6,0.3c0.2,0.1,0.3,0.2,0.5,0.2c0.2,0.1,0.3,0.2,0.5,0.2c0.3,0.1,0.5,0.3,0.8,0.4
					c0.2,0.1,0.5,0.2,0.7,0.3C38.7,37.4,42.4,39.2,43.3,42.1"/>
				<path id="XMLID_22_" class="st4" d="M30.6,18.8c0,0-0.6,5.2-0.7,9c-1,0.9-2.2,2-3.5,2.5c-1.7,0.7-4.1,0.5-5.5,0.3
					c0.3-2.8,0.3-7.3,0.3-7.3L30.6,18.8z"/>
			</g>
			<path id="XMLID_20_" class="st2" d="M43.3,42.1C38.7,47,32.2,50,25,50c-7.5,0-14.3-3.3-18.9-8.6c0.5-1.1,1.5-1.9,2.2-2.6
				c0.7-0.7,3.2-1.8,5.5-3c0.2-0.1,0.4-0.2,0.6-0.3c1.5,3.9,5.4,12.7,8.8,12.2c3.5-0.5,10.4-8.5,12.9-11.6
				C38.7,37.4,42.4,39.2,43.3,42.1"/>
		</g>
		<path id="XMLID_18_" class="st4" d="M18.1,20.9c0,0-0.9-2.3-2.3-2.1c-1.7,0.2-1.2,4,0.9,5.2c2,1.1,1.9-0.5,1.9-0.5L18.1,20.9z"/>
		<path id="XMLID_17_" class="st4" d="M31,20.7c0.1-0.1,1.1-3,2.9-2.3c1.9,0.7-0.3,5.1-1.3,5.6c-1,0.5-2.3-0.1-2.4-0.9
			C30,22.4,31,20.7,31,20.7z"/>
		<g id="XMLID_15_">
			<path id="XMLID_16_" class="st1" d="M17,14c0,0,0.3,12.4,2.6,14.2c2.8,2.2,8.8-0.9,9.9-1.7c1.2-0.9,2.3-10,2.3-10L29,11.6
				C29,11.6,18.7,12,17,14z"/>
		</g>
		<path id="XMLID_14_" class="st3" d="M17.4,17.5c0.8-0.2,1.3-1,1.4-1.8c1.2,0.4,2.6-1,2.9-2.3c0,0,0.8,1.3,2.3,1
			c1.5-0.2,1.9-1.7,1.9-1.7s0,1.2,1.4,1.8c1.4,0.6,2.6-0.1,2.6-0.1s-0.9,1.5-0.2,2.6c0.7,1.2,1.3,1.2,1.3,1.2s-0.8,1.1,0,1.8
			c0.7,0.5,1.6-2.2,1.6-2.2s1.1-1.5,0.7-2.4C33.1,14.8,32,14,32,14s0.5-1.4,0.1-2.4c-0.4-1-2.2-0.9-2.2-0.9S29.4,8.8,28,9
			c-1.4,0.2-2.1,1.4-2.1,1.4S24.6,8,23.2,8.6c-1.4,0.5-2,2.3-2,2.3s-1.5-1.3-2.8-0.5c-1.2,0.8-1.2,2.8-1.2,2.8S16,13.2,15.5,14
			c-0.5,0.7,0.3,3,0.4,3.3c0.2,1.7,1.1,3.1,1.5,2.9C18,20,17.4,17.5,17.4,17.5z"/>
		<g id="XMLID_4_">
			<g id="XMLID_11_">
				<path id="XMLID_13_" class="st2" d="M27.1,18.8c-0.2-0.4-0.7-0.5-1-0.3c-0.8,0.5-0.1,1.7,0.7,1.3C27.2,19.6,27.3,19.1,27.1,18.8
					z"/>
				<path id="XMLID_12_" class="st5" d="M26.9,16.4c-1.3-0.1-1.5,1-1.5,1s0.5-0.2,1.4-0.2c0.7,0,1.4,0.3,1.4,0.3
					S27.9,16.5,26.9,16.4z"/>
			</g>
			<g id="XMLID_8_">
				<path id="XMLID_10_" class="st2" d="M20.6,18.9c-0.2-0.4-0.7-0.5-1-0.3c-0.8,0.5-0.1,1.7,0.7,1.3C20.7,19.8,20.8,19.3,20.6,18.9
					z"/>
				<path id="XMLID_9_" class="st5" d="M20,16.5c-1,0.1-1.3,1.1-1.3,1.1s0.8-0.3,1.4-0.3c0.9,0,1.4,0.2,1.4,0.2S21.3,16.3,20,16.5z"
					/>
			</g>
			<g id="XMLID_5_">
				<path id="XMLID_7_" class="st5" d="M21.2,23.7l4.7-0.1c0,0-0.6,1.6-2.2,1.8C21.5,25.5,21.2,23.7,21.2,23.7z"/>
				<path id="XMLID_6_" class="st4" d="M23,22.1c-0.1,0-0.3-0.1-0.4-0.2c-0.1-0.1-0.2-0.2-0.2-0.4l-0.1-4.1c0-0.1,0.1-0.2,0.2-0.2
					c0.1,0,0.2,0.1,0.2,0.2l0.1,4.1c0,0,0,0.1,0,0.1s0.1,0,0.1,0l1.2,0c0.1,0,0.2,0.1,0.2,0.2c0,0.1-0.1,0.2-0.2,0.2L23,22.1
					C23,22.1,23,22.1,23,22.1z"/>
			</g>
		</g>
	</g>
</g>
</svg>
