<?xml version="1.0" encoding="utf-8"?>
<!-- Generator: Adobe Illustrator 19.0.0, SVG Export Plug-In . SVG Version: 6.00 Build 0)  -->
<svg version="1.1" id="Layer_1" xmlns="http://www.w3.org/2000/svg" xmlns:xlink="http://www.w3.org/1999/xlink" x="0px" y="0px"
	 viewBox="0 0 50 50" style="enable-background:new 0 0 50 50;" xml:space="preserve">
<style type="text/css">
	.st0{fill:#D75A4A;}
	.st1{fill:#FBB969;}
	.st2{fill:#E26227;}
	.st3{fill:#EF8242;}
	.st4{fill:#B94A27;}
	.st5{fill:#1E0E22;}
	.st6{fill:#FAC2B3;}
	.st7{fill:#F9F8F6;}
</style>
<g id="XMLID_2_">
	<path id="XMLID_30_" class="st0" d="M50,25c0,6.3-2.3,12-6.2,16.4c-0.2,0.2-0.4,0.5-0.6,0.7c-0.3,0.3-0.6,0.6-0.9,0.9
		c-4.5,4.4-10.7,7.1-17.5,7.1c-6.9,0-13.2-2.8-17.7-7.3c-0.4-0.4-0.8-0.8-1.2-1.3c-0.2-0.2-0.3-0.4-0.5-0.6C2,36.6-0.2,31-0.2,25
		c0-13.9,11.2-25.1,25.1-25.1C38.8-0.1,50,11.2,50,25z"/>
	<g id="XMLID_3_">
		<path id="XMLID_29_" class="st1" d="M22,6.3c-0.6,0.3-1.1,0.7-1.6,1.2c-1.1,1-2,2.2-3.4,2.8c-1,0.4-2.1,0.5-2.9,1.1
			c-0.8,0.6-1.2,1.7-1.4,2.8c-0.2,1-0.3,2.1-0.8,3.1c-0.5,0.8-1.2,1.5-1.8,2.2C9,21,9.5,22.8,10.9,24.1c0.8,0.7,1.7,1.1,2.6,1.6
			c0.9,0.6,1.5,1.1,1.8,2.1c0.2,0.9,0.7,2,1.5,2.6c0.9,0.6,2,0.8,3,0.6c1.1-0.2,2.1-0.7,3.1-1c1-0.3,1.9-0.3,2.9-0.1
			c0.9,0.2,1.7,0.7,2.6,0.8c1.2,0.2,2.5-0.2,3.4-1c1.7-1.4,1.8-3.7,3.6-4.9c1-0.7,2.2-1,2.9-2c0.6-1,0.3-2.4-0.3-3.5
			c-0.6-1.1-1.4-2.1-1.7-3.2c-0.2-0.8-0.2-1.7-0.3-2.6c-0.1-0.9-0.4-1.8-1-2.3c-0.8-0.7-1.9-0.7-2.9-1c-1.3-0.4-2.4-1.3-3.4-2.1
			c-1.1-0.9-2.1-1.7-3.5-2.1C24,5.5,22.9,5.8,22,6.3z"/>
		<path id="XMLID_28_" class="st2" d="M31.1,20.8c0-0.1,1.2-2.7,2.7-2c2.3,1.1-0.4,4.2-1.3,4.9c-1.2,0.9-2.3,0.5-2.3,0.5L31.1,20.8z
			"/>
		<path id="XMLID_27_" class="st2" d="M16.6,20.8c0-0.1-1.2-2.7-2.7-2c-2.3,1.1,0.4,4.2,1.3,4.9c1.2,0.9,2.3,0.5,2.3,0.5L16.6,20.8z
			"/>
		<g id="XMLID_24_">
			<path id="XMLID_26_" class="st3" d="M42.4,43c-4.5,4.4-10.7,7.1-17.5,7.1c-6.9,0-13.2-2.8-17.7-7.3c0.1-0.2,0.2-0.5,0.3-0.7
				c0.8-1.5,8.2-5.5,10.1-7c0,0,0.1,0,0.1-0.1c0.8-0.6,1.4-1.4,1.6-2.5c0.1-0.4,0.2-0.9,0.2-1.4c0.2-2.1-0.1-4.5-0.1-4.5l8.9-0.1
				c0,0-0.3,2.5,0.3,4.9c0.4,1.6,0.7,2.5,2.8,3.8c0.1,0,0.1,0.1,0.2,0.1C32.6,36,42.3,42.7,42.4,43z"/>
			<path id="XMLID_25_" class="st2" d="M28.6,31.4c-1.1,0.9-2.4,1.5-4.4,1.5c-2.3,0-3.8-1-4.7-1.8c0.2-2.1-0.1-4.5-0.1-4.5l8.9-0.1
				C28.4,26.6,28.1,29.1,28.6,31.4z"/>
		</g>
		<path id="XMLID_23_" class="st3" d="M17.5,14.1c-1,0.9-1.1,2.9-1.2,4.8c-0.1,2.8,0.7,6.7,3.1,9.6c2.2,2.8,8.1,2.8,10.2-1.1
			c0.9-1.7,2-5.5,2.1-9.6C31.9,11.2,23.1,9.1,17.5,14.1z"/>
		<g id="XMLID_14_">
			<path id="XMLID_22_" class="st4" d="M22.3,25.2c0.1,0,4.3,0,4.3,0s-0.5,1.6-2.2,1.5C22.7,26.7,22.3,25.2,22.3,25.2z"/>
			<path id="XMLID_21_" class="st2" d="M24.1,23.8c-0.1,0-0.3-0.1-0.4-0.2c-0.1-0.1-0.2-0.2-0.2-0.4l-0.1-4.1c0-0.1,0.1-0.2,0.2-0.2
				c0.1,0,0.2,0.1,0.2,0.2l0.1,4.1c0,0,0,0.1,0,0.1c0,0,0.1,0,0.1,0l1.3,0c0.1,0,0.2,0.1,0.2,0.2c0,0.1-0.1,0.2-0.2,0.2L24.1,23.8
				C24.1,23.8,24.1,23.8,24.1,23.8z"/>
			<g id="XMLID_18_">
				<path id="XMLID_20_" class="st5" d="M28.2,20.5c-0.2-0.4-0.7-0.5-1-0.3c-0.8,0.5-0.1,1.7,0.7,1.3C28.3,21.3,28.4,20.8,28.2,20.5
					z"/>
				<path id="XMLID_19_" class="st4" d="M28,18.1c-1.3-0.1-1.5,1-1.5,1s0.5-0.2,1.4-0.2c0.7,0,1.4,0.3,1.4,0.3S29,18.2,28,18.1z"/>
			</g>
			<g id="XMLID_15_">
				<path id="XMLID_17_" class="st5" d="M21.7,20.6c-0.2-0.4-0.7-0.5-1-0.3c-0.8,0.5-0.1,1.7,0.7,1.3C21.7,21.5,21.9,21,21.7,20.6z"
					/>
				<path id="XMLID_16_" class="st4" d="M21,18.2c-1,0.1-1.3,1.1-1.3,1.1s0.8-0.3,1.4-0.3c0.9,0,1.4,0.2,1.4,0.2S22.4,18,21,18.2z"
					/>
			</g>
		</g>
		<path id="XMLID_13_" class="st1" d="M16.3,20.2c0.1,0.2-0.2-2.1,1.9-3.5c1.8-1.1,2.5-0.1,4-0.5c1.5-0.4,1.2-1.9,4.1-1.8
			c2.2,0.1,2.2-0.3,3.5-0.9c-1.3,4.9,1.3,3.5,1.7,6.8c2.1-3.2,1.7-5.5,1-7.1c-0.6-1.6-4-4.3-9.1-4C18.3,9.5,13.5,13.2,16.3,20.2z"/>
		<g id="XMLID_4_">
			<g id="XMLID_10_">
				<path id="XMLID_12_" class="st6" d="M42.4,43c-4.5,4.4-10.7,7.1-17.5,7.1c-6.9,0-13.2-2.8-17.7-7.3c0.1-0.2,0.2-0.5,0.3-0.7
					c1.7-2.9,8.2-5.5,10.1-7c0,0,0.1,0,0.1-0.1c0.3-0.2,0.5-0.4,0.7-0.7c1.1,0.5,3.7,1.7,5.7,1.6c1.7-0.1,4.3-1.4,5.8-2.2
					c0,0,0,0,0,0c0.3,0.6,0.9,1.1,1.7,1.6C35.1,37.9,42.6,40.2,42.4,43z"/>
				<path id="XMLID_11_" class="st7" d="M18.7,33.9l-2,1.8c0,0,2.1,4.1,3.1,4.2c1,0.1,4.7-4.1,4.7-4.1s2.5,4.1,4,4
					c1.5-0.1,3.4-4.2,3.4-4.2l-2-1.9l-5.4,2.1L18.7,33.9z"/>
			</g>
			<g id="XMLID_5_">
				<path id="XMLID_9_" class="st7" d="M24.8,39.7c0-0.2-0.1-0.4-0.3-0.5C24.3,39,24.1,39,23.9,39c-0.2,0-0.4,0.2-0.5,0.3
					c-0.1,0.1-0.2,0.4-0.2,0.6c0,0.2,0.1,0.4,0.3,0.5c0.2,0.1,0.3,0.2,0.6,0.2c0.2,0,0.4-0.2,0.5-0.3C24.7,40.1,24.8,39.9,24.8,39.7
					z"/>
				<path id="XMLID_8_" class="st7" d="M24.8,42.2c0-0.2-0.1-0.4-0.3-0.5c-0.2-0.1-0.3-0.2-0.6-0.2c-0.2,0-0.4,0.2-0.5,0.3
					c-0.1,0.1-0.2,0.4-0.2,0.6c0,0.2,0.1,0.4,0.3,0.5c0.2,0.1,0.3,0.2,0.6,0.2c0.2,0,0.4-0.2,0.5-0.3C24.7,42.6,24.8,42.4,24.8,42.2
					z"/>
				<path id="XMLID_7_" class="st7" d="M24.8,44.8c0-0.2-0.1-0.4-0.3-0.5c-0.2-0.1-0.3-0.2-0.6-0.2c-0.2,0-0.4,0.2-0.5,0.3
					c-0.1,0.1-0.2,0.4-0.2,0.6c0,0.2,0.1,0.4,0.3,0.5c0.2,0.1,0.3,0.2,0.6,0.2c0.2,0,0.4-0.2,0.5-0.3C24.7,45.2,24.8,45,24.8,44.8z"
					/>
				<path id="XMLID_6_" class="st7" d="M24.8,47.4c0-0.2-0.1-0.4-0.3-0.5c-0.2-0.1-0.3-0.2-0.6-0.2c-0.2,0-0.4,0.2-0.5,0.3
					c-0.1,0.1-0.2,0.4-0.2,0.6c0,0.2,0.1,0.4,0.3,0.5c0.2,0.1,0.3,0.2,0.6,0.2c0.2,0,0.4-0.2,0.5-0.3C24.7,47.8,24.8,47.5,24.8,47.4
					z"/>
			</g>
		</g>
	</g>
</g>
</svg>
