<?xml version="1.0" encoding="utf-8"?>
<!-- Generator: Adobe Illustrator 19.0.0, SVG Export Plug-In . SVG Version: 6.00 Build 0)  -->
<svg version="1.1" id="Layer_1" xmlns="http://www.w3.org/2000/svg" xmlns:xlink="http://www.w3.org/1999/xlink" x="0px" y="0px"
	 viewBox="0 0 50 50" style="enable-background:new 0 0 50 50;" xml:space="preserve">
<style type="text/css">
	.st0{fill:#EFCE4A;}
	.st1{fill:#1E0E22;}
	.st2{fill:#EF8242;}
	.st3{fill:#E26227;}
	.st4{fill:#EE6A35;}
	.st5{fill:#F9F8F6;}
	.st6{fill:#FAC2B3;}
	.st7{fill:#B94A27;}
</style>
<g id="XMLID_23_">
	<path id="XMLID_21_" class="st0" d="M50,25c0,6-2.1,11.5-5.7,15.8c-0.2,0.2-0.3,0.4-0.5,0.6c-0.4,0.4-0.8,0.9-1.2,1.3
		c-2.2,2.2-4.9,4-7.8,5.3c-1.3,0.6-2.7,1-4.1,1.3C29,49.8,27,50,25,50c-6.8,0-12.9-2.7-17.4-7.1c-0.3-0.3-0.6-0.6-0.9-0.9
		c-0.2-0.2-0.4-0.4-0.6-0.7C2.3,37,0,31.3,0,25C0,11.2,11.2,0,25,0C38.8,0,50,11.2,50,25z"/>
	<g id="XMLID_24_">
		<path id="XMLID_20_" class="st1" d="M19.8,11.8c-2.2,1-3,1.9-3.8,9.4C15.2,28.7,15,44,15,44h20.3c0,0,1-29.2-1.8-31.3
			C30.8,10.7,24.9,9.4,19.8,11.8z"/>
		<g id="XMLID_50_">
			<path id="XMLID_19_" class="st2" d="M42.7,42.7C38.1,47.2,31.9,50,25,50c-6.8,0-12.9-2.7-17.4-7.1c0-0.2,2.8-2.1,5.5-4
				c2.4-1.7,4.8-3.3,5.3-3.6c0.1,0,0.1-0.1,0.2-0.1c0.4-0.2,0.7-0.4,1-0.7c0,0,0,0,0,0c1.3-1,1.5-1.8,1.8-3.1
				c0.5-2.4,0.3-4.9,0.3-4.9l8.9,0.1c0,0-0.3,2.3-0.1,4.4c0,0.5,0.1,0.9,0.2,1.4c0.2,0.9,0.7,1.6,1.3,2.2c0.1,0.1,0.2,0.2,0.3,0.3
				c0,0,0.1,0,0.1,0.1c1,0.8,3.3,2.2,5.6,3.6c2.1,1.3,4.1,2.7,4.5,3.4C42.5,42.2,42.6,42.4,42.7,42.7z"/>
			<path id="XMLID_18_" class="st3" d="M21.3,31.4c1.1,0.8,2.4,1.5,4.4,1.5c2.3,0,3.8-1,4.7-1.8c-0.2-2.1,0.1-4.4,0.1-4.4l-8.9-0.1
				C21.6,26.6,21.8,29.1,21.3,31.4z"/>
		</g>
		<g id="XMLID_47_">
			<path id="XMLID_17_" class="st1" d="M42.7,42.7C38.1,47.2,31.9,50,25,50c-6.8,0-12.9-2.7-17.4-7.1c0-0.2,2.8-2.1,5.5-4
				c6.5-0.1,17.9-0.3,24.8-0.4c2.1,1.3,4.1,2.7,4.5,3.4C42.5,42.2,42.6,42.4,42.7,42.7z"/>
			<path id="XMLID_16_" class="st4" d="M42.7,42.7C38.1,47.2,31.9,50,25,50c-6.8,0-12.9-2.7-17.4-7.1c0.1-0.3,9.7-6.9,10.7-7.7
				c0.1,0,0.1-0.1,0.2-0.1c0.4-0.2,0.7-0.4,1-0.7c1.8,4.7,5.3,13.8,5.8,13.6c0.5-0.2,4.7-9.3,6.6-13.4c0.1,0.1,0.2,0.2,0.3,0.3
				c0,0,0.1,0,0.1,0.1c1.9,1.5,9.3,5.5,10.1,6.9C42.5,42.2,42.6,42.4,42.7,42.7z"/>
		</g>
		<g id="XMLID_43_">
			<path id="XMLID_15_" class="st5" d="M34.9,48c-1.3,0.6-2.7,1-4.1,1.3c-0.4-4.1-1-9.1-1.4-12.3c-0.2-1.9-0.4-3.1-0.4-3.2l2.8,0.9
				l0.5,2.3L34.9,48z"/>
			<path id="XMLID_14_" class="st6" d="M32.4,36.9l-2.9,0c-0.2-1.9-0.4-3.1-0.4-3.2l2.8,0.9L32.4,36.9z"/>
			<path id="XMLID_13_" class="st5" d="M20,31c0,0,12.3,1,12.8,1.8c0.5,0.8,0.4,2.6,0,2.7c-0.4,0.2-14.7,0.4-15.2-0.3
				C17.1,34.5,19.2,30.9,20,31z"/>
		</g>
		<g id="XMLID_34_">
			<g id="XMLID_38_">
				<g id="XMLID_39_">
					<path id="XMLID_12_" class="st3" d="M18.9,20.8c0-0.1-1.2-2.7-2.7-2c-2.3,1.1,0.4,4.2,1.3,4.9c1.2,0.9,2.3,0.5,2.3,0.5
						L18.9,20.8z"/>
					<path id="XMLID_11_" class="st3" d="M33.3,20.8c0-0.1,1.2-2.7,2.7-2c2.3,1.1-0.4,4.2-1.3,4.9c-1.2,0.9-2.3,0.5-2.3,0.5
						L33.3,20.8z"/>
					<path id="XMLID_10_" class="st2" d="M32.4,14.1c1,0.9,1.1,2.9,1.2,4.8c0.1,2.8-0.7,6.7-3,9.6c-2.2,2.8-8.1,2.8-10.2-1
						c-0.9-1.7-2-5.5-2.1-9.6C18,11.2,26.8,9.2,32.4,14.1z"/>
				</g>
			</g>
			<path id="XMLID_9_" class="st1" d="M16.9,20.1l2.8-1l0.2-2.6l0.6,2l2.7-0.3l0.3-2.2l0.5,1.9l4,0.1l0.6-2.3c0,0,0.3,1.6,0.2,2.4
				c2.4,0.5,3,0.8,3,0.8l0.5-1.9c0,0,0.2,1.7,0.2,2.1c1.2,0.6,2.1,1.1,2.1,1.1s0.8-4.5-0.6-7.2S29.1,8.6,25.7,9
				C20.7,9.6,16.1,11.8,16.9,20.1z"/>
			<polygon id="XMLID_8_" class="st1" points="19.2,16.2 20.1,34.5 16.9,34.4 17.6,17.1 			"/>
			<polygon id="XMLID_7_" class="st1" points="32.2,16.2 31.3,34.5 34.5,34.4 33.8,17.1 			"/>
		</g>
		<g id="XMLID_25_">
			<path id="XMLID_6_" class="st7" d="M28,25.2c-0.1,0-4.3,0-4.3,0s0.5,1.6,2.2,1.5C27.6,26.7,28,25.2,28,25.2z"/>
			<path id="XMLID_5_" class="st3" d="M26.3,23.8C26.3,23.8,26.3,23.8,26.3,23.8l-1.3,0c-0.1,0-0.2-0.1-0.2-0.2
				c0-0.1,0.1-0.2,0.2-0.2l1.2,0c0,0,0.1,0,0.1,0c0,0,0-0.1,0-0.1l0.1-4.1c0-0.1,0.1-0.2,0.2-0.2c0,0,0,0,0,0c0.1,0,0.2,0.1,0.2,0.2
				l-0.1,4.1c0,0.2-0.1,0.3-0.2,0.4C26.6,23.8,26.4,23.8,26.3,23.8z"/>
			<g id="XMLID_29_">
				<path id="XMLID_4_" class="st1" d="M22.5,21.5c0.8,0.4,1.5-0.8,0.7-1.3c-0.4-0.2-0.8-0.1-1,0.3C22,20.8,22.1,21.3,22.5,21.5z"/>
				<path id="XMLID_3_" class="st7" d="M22.4,18.2c1.3-0.1,1.5,1,1.5,1S23.4,19,22.5,19c-0.7,0-1.4,0.3-1.4,0.3S21.4,18.3,22.4,18.2
					z"/>
			</g>
			<g id="XMLID_26_">
				<path id="XMLID_2_" class="st1" d="M29,21.7c0.8,0.4,1.5-0.8,0.7-1.3c-0.4-0.2-0.8-0.1-1,0.3C28.5,21,28.6,21.5,29,21.7z"/>
				<path id="XMLID_1_" class="st7" d="M29.3,18.2c1,0.1,1.3,1.1,1.3,1.1S29.9,19,29.2,19c-0.9,0-1.4,0.2-1.4,0.2S28,18.1,29.3,18.2
					z"/>
			</g>
		</g>
	</g>
</g>
</svg>
