<?xml version="1.0" encoding="utf-8"?>
<!-- Generator: Adobe Illustrator 19.0.0, SVG Export Plug-In . SVG Version: 6.00 Build 0)  -->
<svg version="1.1" id="Layer_1" xmlns="http://www.w3.org/2000/svg" xmlns:xlink="http://www.w3.org/1999/xlink" x="0px" y="0px"
	 viewBox="0 0 50 50" style="enable-background:new 0 0 50 50;" xml:space="preserve">
<style type="text/css">
	.st0{fill:#23A24D;}
	.st1{fill:#EF8242;}
	.st2{fill:#E26227;}
	.st3{fill:#FAC2B1;}
	.st4{fill:#F69D80;}
	.st5{fill:#1E0E22;}
	.st6{fill:#7B6160;}
	.st7{fill:#F7F1F6;}
	.st8{fill:#1C0E1F;}
	.st9{fill:#B94A27;}
</style>
<g id="XMLID_2_">
	<path id="XMLID_35_" class="st0" d="M0.1,25.1c0,6.3,2.3,12,6.1,16.3c0.1,0.1,0.2,0.2,0.3,0.3C11,46.8,17.6,50,25,50
		c7.2,0,13.6-3,18.2-7.9c0.4-0.4,0.7-0.8,1.1-1.2c3.5-4.3,5.7-9.8,5.7-15.8C49.9,11.4,38.8,0.2,25,0.2C11.2,0.2,0.1,11.4,0.1,25.1z"
		/>
	<g id="XMLID_3_">
		<g id="XMLID_32_">
			<path id="XMLID_34_" class="st1" d="M44.2,40.9c-0.3,0.4-0.7,0.8-1.1,1.2C38.6,47,32.2,50,25,50c-7.4,0-14-3.2-18.5-8.3
				c0.6-1.9,1.3-3.6,1.6-3.9c0,0,0.1-0.1,0.3-0.2c0,0,0.1,0,0.1-0.1c0.3-0.1,0.7-0.3,1.1-0.5c0.1-0.1,0.3-0.1,0.4-0.2
				c0,0,0.1,0,0.1,0c0.6-0.2,1.4-0.5,2.2-0.8c0,0,0.1,0,0.1,0c0.2-0.1,0.4-0.1,0.6-0.2c0.1,0,0.3-0.1,0.4-0.1
				c0.2-0.1,0.5-0.2,0.7-0.2c0.3-0.1,0.6-0.2,1-0.3c0.6-0.2,1.2-0.4,1.8-0.6c0.7-0.2,1.3-0.4,1.8-0.6c0,0,0,0,0,0
				c1-0.3,1.6-0.5,1.6-0.5l0.3-2.4l0.7-6.9l10.5-2.1c0,0,0,3.1,0.1,6c0,2.3,0.1,4.4,0.2,4.9c0.4,0.2,1,0.5,1.8,0.9
				c0.4,0.2,0.9,0.4,1.4,0.6c0.6,0.3,1.3,0.6,1.9,0.8c0.1,0,0.2,0.1,0.3,0.1c0.2,0.1,0.4,0.2,0.5,0.2c1,0.4,2,0.9,2.8,1.2
				c0.2,0.1,0.3,0.1,0.4,0.2c0.2,0.1,0.4,0.2,0.5,0.2c0.1,0,0.2,0.1,0.2,0.1c0.3,0.1,0.5,0.2,0.7,0.3c0,0,0.1,0,0.1,0.1
				c0.3,0.2,0.5,0.3,0.6,0.4C43.4,38.5,43.9,39.7,44.2,40.9z"/>
			<path id="XMLID_33_" class="st2" d="M20.4,31c1.2,0.2,2.6,0.2,4.4-0.1c3-0.5,5.4-1.8,7-2.8c-0.1-2.9-0.1-6-0.1-6l-10.5,2.1
				L20.4,31z"/>
		</g>
		<g id="XMLID_23_">
			<g id="XMLID_27_">
				<path id="XMLID_31_" class="st3" d="M44.2,40.9c-0.3,0.4-0.7,0.8-1.1,1.2C38.6,47,32.2,50,25,50c-7.4,0-14-3.2-18.5-8.3
					c0.6-1.9,1.3-3.6,1.6-3.9c0.1,0,0.1-0.1,0.3-0.2c0,0,0.1,0,0.1-0.1c0.3-0.1,0.7-0.3,1.1-0.5c0.1-0.1,0.3-0.1,0.4-0.2
					c0,0,0.1,0,0.1,0c0.6-0.2,1.4-0.5,2.2-0.8c0,0,0.1,0,0.1,0c0.2-0.1,0.4-0.1,0.6-0.2c0.1,0,0.3-0.1,0.4-0.1
					c0.2-0.1,0.5-0.2,0.7-0.2c0.3-0.1,0.6-0.2,1-0.3c0.6-0.2,1.2-0.4,1.8-0.6c0.2-0.1,0.5-0.2,0.7-0.2c0.1,0,0.2-0.1,0.4-0.1
					c0.2-0.1,0.3-0.1,0.5-0.2c0.1,0,0.2-0.1,0.3-0.1c0,0,0,0,0,0l4.1,1.8l3.6,1.6l4.2-2l3.2-1.5c0.3,0.2,0.7,0.3,1.1,0.5
					c0.1,0.1,0.2,0.1,0.3,0.1c0.6,0.3,1.3,0.6,1.9,0.8c0.1,0,0.2,0.1,0.3,0.1c0.2,0.1,0.4,0.2,0.5,0.2c1,0.4,2,0.9,2.8,1.2
					c0.2,0.1,0.3,0.1,0.4,0.2c0.2,0.1,0.3,0.2,0.5,0.2c0.1,0,0.2,0.1,0.2,0.1c0.3,0.1,0.5,0.2,0.7,0.3c0,0,0.1,0,0.1,0.1
					c0.3,0.2,0.5,0.3,0.6,0.4C43.4,38.5,43.9,39.7,44.2,40.9z"/>
				<polygon id="XMLID_30_" class="st4" points="30.4,35.4 26.3,42.1 22.6,35.8 26.3,37.4 				"/>
				<path id="XMLID_29_" class="st5" d="M44.2,40.9c-0.3,0.4-0.7,0.8-1.1,1.2C38.6,47,32.2,50,25,50c-7.4,0-14-3.2-18.5-8.3
					c0.6-1.9,1.3-3.6,1.6-3.9c0,0,0.1-0.1,0.3-0.2c0,0,0.1,0,0.1-0.1c0.3-0.1,0.7-0.3,1.1-0.5c0.1-0.1,0.3-0.1,0.4-0.2
					c0,0,0.1,0,0.1,0c0.6-0.2,1.4-0.5,2.2-0.8c0,0,0.1,0,0.1,0c0.2-0.1,0.4-0.1,0.6-0.2c0.1,0,0.3-0.1,0.4-0.1
					c0.2-0.1,0.5-0.2,0.7-0.2c0.3-0.1,0.6-0.2,1-0.3c0.6-0.2,1.2-0.4,1.8-0.6c0.2-0.1,0.5-0.2,0.7-0.2c0.4-0.1,0.8-0.3,1.1-0.4
					l8.3,11.6l6.9-11.7c0.3,0.2,0.7,0.3,1.1,0.5c0.1,0.1,0.2,0.1,0.3,0.1c0.6,0.3,1.3,0.6,1.9,0.8c0.1,0,0.2,0.1,0.3,0.1
					c0.2,0.1,0.4,0.2,0.5,0.2c1,0.4,2,0.9,2.8,1.2c0.2,0.1,0.3,0.1,0.4,0.2c0.2,0.1,0.4,0.2,0.5,0.2c0.1,0,0.2,0.1,0.2,0.1
					c0.3,0.1,0.5,0.2,0.7,0.3c0,0,0.1,0,0.1,0.1c0.3,0.2,0.5,0.3,0.6,0.4C43.4,38.5,43.9,39.7,44.2,40.9z"/>
				<path id="XMLID_28_" class="st6" d="M34.8,34.3l-8.1,14.2l-9.3-14.1c0.4-0.1,0.8-0.3,1.1-0.4l8.3,11.6l6.9-11.7
					C34,34,34.4,34.2,34.8,34.3z"/>
			</g>
			<g id="XMLID_24_">
				<path id="XMLID_26_" class="st7" d="M18.5,34l1.8-2.2l6,5.6c0,0-5.3,3.9-5.3,3.8C20.9,41,18.5,34,18.5,34z"/>
				<path id="XMLID_25_" class="st7" d="M33.7,33.8L31.8,41l-5.6-3.6l5.7-4.4C32.3,33.2,33,33.5,33.7,33.8z"/>
			</g>
		</g>
		<g id="XMLID_14_">
			<g id="XMLID_16_">
				<g id="XMLID_17_">
					<g id="XMLID_18_">
						<path id="XMLID_22_" class="st2" d="M17.5,19.2c-0.1-0.2-0.7-0.8-1.8-0.5c-1.1,0.3-0.6,2.9,0.4,4c1,1.1,2.2,0.9,2.2,0.7
							C18.3,23.3,17.8,19.9,17.5,19.2z"/>
						<path id="XMLID_21_" class="st5" d="M16.2,13.8c0,0-1.1,3.7,0.2,5.8c1.3,2,2.5,2.3,2.5,2.3l-0.5-9.6L16.2,13.8z"/>
						<path id="XMLID_20_" class="st1" d="M17,14.2c0,0,0.3,12.4,2.6,14.2c2.8,2.2,8.8-0.9,9.8-1.7c1.2-0.9,2.3-9.9,2.3-9.9L29,11.8
							C29,11.8,18.8,12.2,17,14.2z"/>
						<path id="XMLID_19_" class="st5" d="M28.2,12.5c0,0-13.3,5.2-14.2,4.7c-0.9-0.5,0.9-2,0.9-2s-4.3,0.7-3.6-0.6
							c0.8-1.2,3.8-2.1,3.8-2.1s-3.2-0.7-1.5-2c1.7-1.3,11.2-4.7,15-3.4c2.2,0.6,2.4,3.7,2.4,3.7s4.3,0.6,4.8,2.3
							c0.5,1.7-1.8,7.6-4.2,8c-1.9-0.1-0.7-4.9-0.7-4.9s-1.6-0.3-2.2-1.1C28.2,14.4,28.2,12.5,28.2,12.5z"/>
					</g>
				</g>
			</g>
			<path id="XMLID_15_" class="st1" d="M30.9,20.8c0.1-0.1,1.1-3,2.9-2.3c1.9,0.7-0.3,4.4-1.3,4.9c-0.9,0.5-2,0.4-2.1,0.1
				C30.4,22.8,30.9,20.8,30.9,20.8z"/>
		</g>
		<g id="XMLID_4_">
			<g id="XMLID_6_">
				<path id="XMLID_13_" class="st2" d="M23,22.3c-0.1,0-0.3-0.1-0.4-0.2c-0.1-0.1-0.2-0.2-0.2-0.4l-0.1-4.1c0-0.1,0.1-0.2,0.2-0.2
					c0.1,0,0.2,0.1,0.2,0.2l0.1,4.1c0,0,0,0.1,0,0.1c0,0,0.1,0,0.1,0l1.2,0c0.1,0,0.2,0.1,0.2,0.2c0,0.1-0.1,0.2-0.2,0.2L23,22.3
					C23,22.3,23,22.3,23,22.3z"/>
				<g id="XMLID_10_">
					<path id="XMLID_12_" class="st5" d="M27.1,18.9c-0.2-0.4-0.7-0.5-1-0.3c-0.8,0.5-0.1,1.7,0.7,1.3
						C27.2,19.8,27.3,19.3,27.1,18.9z"/>
					<path id="XMLID_11_" class="st8" d="M26.9,16.6c-1.3-0.1-1.5,1-1.5,1s0.5-0.2,1.4-0.2c0.7,0,1.4,0.3,1.4,0.3
						S27.9,16.7,26.9,16.6z"/>
				</g>
				<g id="XMLID_7_">
					<path id="XMLID_9_" class="st5" d="M20.6,19.1c-0.2-0.4-0.7-0.5-1-0.3c-0.8,0.5-0.1,1.7,0.7,1.3C20.7,19.9,20.8,19.5,20.6,19.1
						z"/>
					<path id="XMLID_8_" class="st8" d="M20,16.6c-1,0.1-1.3,1.1-1.3,1.1s0.8-0.3,1.4-0.3c0.9,0,1.4,0.2,1.4,0.2S21.3,16.5,20,16.6z
						"/>
				</g>
			</g>
			<path id="XMLID_5_" class="st9" d="M21.7,23.9l4.6-0.1c0,0-0.6,1.6-2.2,1.8C22,25.7,21.7,23.9,21.7,23.9z"/>
		</g>
	</g>
</g>
</svg>
