<?xml version="1.0" encoding="utf-8"?>
<!-- Generator: Adobe Illustrator 19.0.0, SVG Export Plug-In . SVG Version: 6.00 Build 0)  -->
<svg version="1.1" id="Layer_1" xmlns="http://www.w3.org/2000/svg" xmlns:xlink="http://www.w3.org/1999/xlink" x="0px" y="0px"
	 viewBox="0 0 50 50" style="enable-background:new 0 0 50 50;" xml:space="preserve">
<style type="text/css">
	.st0{fill:#4697E0;}
	.st1{fill:#F8AD94;}
	.st2{fill:#EE6A35;}
	.st3{fill:#FCD1B2;}
	.st4{fill:#FBB969;}
	.st5{fill:#1E0E22;}
	.st6{fill:#B94A27;}
	.st7{fill:#EA9078;}
</style>
<g id="XMLID_2_">
	<path id="XMLID_26_" class="st0" d="M50.1,25.1c0,5.7-2,11-5.2,15.2c-0.1,0.2-0.3,0.3-0.4,0.5l0,0c-0.2,0.2-0.4,0.5-0.6,0.7
		c-0.2,0.2-0.4,0.5-0.6,0.7c0,0,0,0,0,0c-0.3,0.3-0.5,0.6-0.8,0.8c-1.9,1.8-4.1,3.4-6.5,4.5c-3.3,1.6-7,2.5-10.9,2.5
		c-3.9,0-7.6-0.9-10.9-2.5c-2.5-1.2-4.8-2.9-6.8-4.8C7.2,42.4,7,42.2,6.8,42c-0.2-0.2-0.4-0.5-0.6-0.7C6,41.1,5.8,41,5.7,40.8
		c-0.1-0.2-0.3-0.3-0.4-0.5c-0.1-0.1-0.1-0.2-0.2-0.3c-3.2-4.2-5-9.4-5-15.1C0.1,11.1,11.4,0,25.2,0C39,0.1,50.1,11.3,50.1,25.1z"/>
	<g id="XMLID_3_">
		<g id="XMLID_23_">
			<path id="XMLID_25_" class="st1" d="M44.5,40.8L44.5,40.8c-0.2,0.2-0.4,0.5-0.6,0.7c-0.2,0.2-0.4,0.5-0.6,0.7c0,0,0,0,0,0
				c-0.3,0.3-0.5,0.6-0.8,0.8c-1.9,1.8-4.1,3.4-6.5,4.5c-3.3,1.6-7,2.5-10.9,2.5c-3.9,0-7.6-0.9-10.9-2.5c-2.5-1.2-4.8-2.9-6.8-4.8
				C7.2,42.4,7,42.2,6.8,42c-0.2-0.2-0.4-0.5-0.6-0.7C6,41.1,5.8,41,5.7,40.8c-0.1-0.2-0.3-0.3-0.4-0.5c0.9-1.6,1.7-2.5,2.3-3.1
				c0.3-0.4,5.9-2.3,9.3-3.5c1.4-0.5,2.4-0.9,2.5-1c0.1-0.6,0.2-1.4,0.3-2.3c0.3-3,0.4-7.1,0.4-7.1l9.6,0.6c0,0.1,0.1,4,0.3,6.6
				c0.1,1.2,0.2,2,0.3,2.2c0.3,0.2,1.8,0.8,3.6,1.5c3.3,1.3,7.8,3,8.5,3.4C42.9,37.8,43.8,39.4,44.5,40.8z"/>
			<path id="XMLID_24_" class="st2" d="M44.9,40.2c-0.1,0.2-0.3,0.3-0.4,0.5l0,0c-0.2,0.2-0.4,0.5-0.6,0.7c-0.2,0.2-0.4,0.5-0.6,0.7
				c0,0,0,0,0,0c-0.3,0.3-0.5,0.6-0.8,0.8c-1.9,1.8-4.1,3.4-6.5,4.6c-3.3,1.6-7,2.5-10.9,2.5c-3.9,0-7.6-0.9-10.9-2.5
				c-2.5-1.2-4.8-2.9-6.8-4.8c-0.2-0.2-0.4-0.4-0.6-0.6c-0.2-0.2-0.4-0.5-0.6-0.7c-0.2-0.2-0.3-0.4-0.5-0.6
				c-0.1-0.2-0.3-0.3-0.4-0.5c-0.1-0.1-0.1-0.2-0.2-0.3c0.7-1.1,2-3,2.5-3.3c0.8-0.5,11.1-4.1,11.1-4.1s-0.2-1.5,0.1-1.5
				c0.2,0,11.6-0.2,11.8-0.2c0.2,0.1,0.2,1.3,0.2,1.3s11.6,4.2,12.4,4.8C43.6,37.4,44.3,38.8,44.9,40.2z"/>
		</g>
		<g id="XMLID_14_">
			<g id="XMLID_19_">
				<path id="XMLID_22_" class="st1" d="M30.8,20.8c0-0.1,1.2-2.7,2.7-2c2.3,1.1-0.4,4.2-1.3,4.9c-1.2,0.8-2.3,0.5-2.3,0.5
					L30.8,20.8z"/>
				<path id="XMLID_21_" class="st1" d="M17.4,20.9c0-0.1-1.2-2.7-2.7-2c-2.3,1,0.4,4.2,1.3,4.9c1.2,0.9,2.3,0.6,2.3,0.6L17.4,20.9z
					"/>
				<path id="XMLID_20_" class="st3" d="M16.1,15.8c0,0,1.5,8.1,2.1,9.9c1.1,1.9,3.4,4.3,3.9,4.4c0.6,0.2,4.1,0.3,4.8,0
					c0.7-0.3,3.5-4.4,3.7-5.1c0.2-0.7,1.1-10.1,1.1-10.1s-4.3-2.8-5.6-3.2C24.9,11.4,16.1,15.8,16.1,15.8z"/>
			</g>
			<g id="XMLID_15_">
				<path id="XMLID_18_" class="st4" d="M17.6,23.1l0.6,0.1l-0.7-3.9c0,0,0.9-0.3,1-0.5c0.1-0.3-0.4-3.1-0.7-3.5
					c-0.2-0.3-0.6-0.8-1.4-0.5C15.5,15,15,16.2,14.8,17c-0.1,0.8,2.1,3.2,2.1,3.2L17.6,23.1z"/>
				<path id="XMLID_17_" class="st4" d="M31,23.1l-0.6,0.1l0.8-3.9c0,0-0.9-0.3-1-0.5c-0.1-0.3,0.4-3.1,0.7-3.5
					c0.2-0.3,0.6-0.8,1.4-0.5c0.8,0.4,1.4,1.5,1.5,2.3c0.1,0.8-2.1,3.2-2.1,3.2L31,23.1z"/>
				<path id="XMLID_16_" class="st4" d="M16.2,15.2c-0.1-0.1,0.1-3.2,1.1-3.9c1-0.7,10.7-2.4,13.1-1.3c2.4,1.1,3.2,6.1,2.8,6.2
					S17,16.6,16.2,15.2z"/>
			</g>
		</g>
		<g id="XMLID_4_">
			<g id="XMLID_11_">
				<path id="XMLID_13_" class="st5" d="M28.4,20.5c-0.2-0.4-0.7-0.5-1-0.3c-0.8,0.5-0.1,1.7,0.7,1.3C28.4,21.3,28.6,20.9,28.4,20.5
					z"/>
				<path id="XMLID_12_" class="st4" d="M28.2,18.2c-1.3-0.1-1.5,1-1.5,1S27.1,19,28,19c0.7,0,1.4,0.3,1.4,0.3S29.2,18.3,28.2,18.2z
					"/>
			</g>
			<g id="XMLID_8_">
				<path id="XMLID_10_" class="st5" d="M21.9,20.6c-0.2-0.4-0.7-0.5-1-0.3c-0.8,0.5-0.1,1.7,0.7,1.3C21.9,21.5,22.1,21,21.9,20.6z"
					/>
				<path id="XMLID_9_" class="st4" d="M20.8,18.2c-1,0.1-1.3,1.1-1.3,1.1s0.8-0.3,1.4-0.3c0.9,0,1.4,0.2,1.4,0.2
					S22.1,18.1,20.8,18.2z"/>
			</g>
			<g id="XMLID_5_">
				<path id="XMLID_7_" class="st6" d="M22.5,25.2c0.1,0,4.3,0,4.3,0s-0.5,1.6-2.2,1.5C22.9,26.7,22.5,25.2,22.5,25.2z"/>
				<path id="XMLID_6_" class="st7" d="M24.2,23.8c-0.1,0-0.3-0.1-0.4-0.2c-0.1-0.1-0.2-0.2-0.2-0.4l-0.1-4.1c0-0.1,0.1-0.2,0.2-0.2
					c0,0,0,0,0,0c0.1,0,0.2,0.1,0.2,0.2l0.1,4.1c0,0,0,0.1,0,0.1c0,0,0.1,0,0.1,0l1.2,0c0.1,0,0.2,0.1,0.2,0.2
					c0,0.1-0.1,0.2-0.2,0.2L24.2,23.8C24.2,23.8,24.2,23.8,24.2,23.8z"/>
			</g>
		</g>
	</g>
</g>
</svg>
