<?xml version="1.0" encoding="utf-8"?>
<!-- Generator: Adobe Illustrator 19.0.0, SVG Export Plug-In . SVG Version: 6.00 Build 0)  -->
<svg version="1.1" id="Layer_1" xmlns="http://www.w3.org/2000/svg" xmlns:xlink="http://www.w3.org/1999/xlink" x="0px" y="0px"
	 viewBox="0 0 50 50" style="enable-background:new 0 0 50 50;" xml:space="preserve">
<style type="text/css">
	.st0{fill:#23A24D;}
	.st1{fill:#FCD1B2;}
	.st2{fill:#F8AD94;}
	.st3{fill:#EE6A35;}
	.st4{fill:#F7F1F6;}
	.st5{fill:#FBB969;}
	.st6{fill:#B94A27;}
	.st7{fill:#EA9078;}
	.st8{fill:#1E0E22;}
</style>
<g id="XMLID_2_">
	<path id="XMLID_30_" class="st0" d="M-0.1,24.9c0,5.6,1.8,10.8,5,15c0.2,0.2,0.3,0.4,0.5,0.6c0.4,0.5,0.8,1,1.3,1.5
		c4.6,4.9,11.1,8,18.3,8c7.6,0,14.3-3.3,18.9-8.6c0.5-0.6,1-1.2,1.4-1.8c3-4.1,4.7-9.2,4.7-14.6C50.1,11.1,38.9-0.2,25-0.2
		C11.1-0.2-0.1,11.1-0.1,24.9z"/>
	<g id="XMLID_3_">
		<g id="XMLID_13_">
			<g id="XMLID_27_">
				<path id="XMLID_29_" class="st1" d="M45.4,39.6c-0.4,0.6-0.9,1.2-1.4,1.8c-2.4,2.7-5.3,4.9-8.6,6.4C32.1,49.2,28.7,50,25,50
					c-7.2,0-13.7-3.1-18.3-8c-0.4-0.5-0.9-1-1.3-1.5c0.4-1.9,0.8-3.7,1.2-4.3c0.7-0.9,6.7-2.5,9.8-3.6c0.9-0.3,1.6-0.6,1.8-0.9
					c0.6-0.6,0.7-3.2,0.8-5.6c0-2.1-0.1-4-0.1-4c2.1-0.1,9.9,1.4,9.7,4.3c-0.1,1.2,0,2.3,0.1,3.2c0.2,1.2,0.6,2.1,1.4,2.6
					c0.2,0.2,0.8,0.4,1.5,0.6c3.2,1,10,2.3,10.8,3C43.2,36.5,44.5,38.3,45.4,39.6z"/>
				<path id="XMLID_28_" class="st2" d="M19,26.2c0.2,0.3,0.5,0.6,0.7,0.9c2.5,2.5,6.8,2.6,9.1,2.5c-0.2-0.9-0.2-2-0.1-3.2
					c0.1-2.9-7.6-4.4-9.7-4.3C19,22.2,19.1,24.1,19,26.2z"/>
			</g>
			<g id="XMLID_19_">
				<g id="XMLID_21_">
					<path id="XMLID_26_" class="st2" d="M19,20.6c-0.1-0.1-1.1-3-2.9-2.3c-1.9,0.7,0.4,4.3,1.4,4.8c1,0.5,2.2,0.7,2.3,0
						C19.9,22.3,19,20.6,19,20.6z"/>
					<g id="XMLID_22_">
						<path id="XMLID_25_" class="st2" d="M31.7,20c0,0,0.8-2.1,2.1-2c1.6,0.2,1.1,3.7-0.8,4.8c-1.8,1.1-1.7-0.4-1.7-0.4L31.7,20z"
							/>
						<path id="XMLID_24_" class="st3" d="M33.4,12.4c0,0,1.2,2.4,1.6,3.8c0.3,1.5-3.1,5-3.3,4.7c-0.2-0.3,0.2-7.9,0.2-7.9
							L33.4,12.4z"/>
						<path id="XMLID_23_" class="st1" d="M33,13.9c0,0-1.1,12.2-2.8,13.5c-2.2,1.6-8.8-0.7-9.9-1.5c-1.2-0.9-2.5-12.7-2.5-12.7
							S31.2,11.2,33,13.9z"/>
					</g>
				</g>
				<path id="XMLID_20_" class="st3" d="M18.2,20.3c0.3,0.3,0.9,0.2,1-0.2c0.3-0.8,0.8-2.4,0.5-3.6c-0.5-1.6-1.1-2.3-1.1-2.3
					s10.4,1,14.4-0.4c1.9-0.7,1.6-2.4,0.6-2.7s-13-5.6-15.9-1.1C15.4,13.7,16.9,18.9,18.2,20.3z"/>
			</g>
			<g id="XMLID_14_">
				<path id="XMLID_18_" class="st4" d="M45.4,39.6c-0.4,0.6-0.9,1.2-1.4,1.8C39.3,46.7,32.6,50,25,50c-1.7,0-3.4-0.2-5-0.5
					c-5.2-1.1-9.8-3.7-13.3-7.4c-0.6-0.7-1.2-1.4-1.8-2.1c0.7-1.6,1.3-3.1,1.7-3.6c0.6-0.8,4.9-2,8.2-3.1c0.6-0.2,1.1-0.4,1.6-0.6
					c1.5,2.1,3.7,4.1,6.8,4.3c4.3,0.2,7-2.2,8.5-4c0.5,0.2,1.1,0.3,1.7,0.5c3.4,0.9,8.4,2,9.1,2.5C43.2,36.5,44.5,38.3,45.4,39.6z"
					/>
				<path id="XMLID_17_" class="st3" d="M14.8,33.2c1.4,2.6,4,5.4,8.7,5.4c6.2,0,8.9-3.3,9.9-5.1c-0.6-0.2-1.2-0.3-1.7-0.5
					c-1.5,1.8-4.2,4.2-8.5,4c-3.1-0.2-5.3-2.2-6.8-4.3C15.9,32.8,15.4,33,14.8,33.2z"/>
				<path id="XMLID_16_" class="st5" d="M20,49.5c-5.2-1.1-9.8-3.7-13.3-7.4c-0.6-0.7-1.2-1.4-1.8-2.1c0.7-1.6,1.3-3.1,1.7-3.6
					c0.6-0.8,4.9-2,8.2-3.1c0.6-0.2,1.1-0.4,1.6-0.6L20,49.5z"/>
				<path id="XMLID_15_" class="st5" d="M45.4,39.6c-0.4,0.6-0.9,1.2-1.4,1.8c-2.4,2.7-5.3,4.9-8.6,6.4L31.7,33c3.2,1,10,2.3,10.8,3
					C43.2,36.5,44.5,38.3,45.4,39.6z"/>
			</g>
		</g>
		<g id="XMLID_4_">
			<path id="XMLID_12_" class="st6" d="M28.8,23.6l-4.7-0.1c0,0,0.6,1.6,2.2,1.8C28.5,25.5,28.8,23.6,28.8,23.6z"/>
			<path id="XMLID_11_" class="st7" d="M27,22C27,22,27,22,27,22l-1.3,0c-0.1,0-0.2-0.1-0.2-0.2c0-0.1,0.1-0.2,0.2-0.2l1.2,0
				c0,0,0.1,0,0.1,0c0,0,0-0.1,0-0.1l0.1-4.1c0-0.1,0.1-0.2,0.2-0.2c0,0,0,0,0,0c0.1,0,0.2,0.1,0.2,0.2l-0.1,4.1
				c0,0.2-0.1,0.3-0.2,0.4C27.3,22,27.2,22,27,22z"/>
			<g id="XMLID_8_">
				<path id="XMLID_10_" class="st8" d="M23.2,19.7c0.8,0.4,1.5-0.8,0.7-1.3c-0.4-0.2-0.8-0.1-1,0.3C22.7,19,22.8,19.5,23.2,19.7z"
					/>
				<path id="XMLID_9_" class="st6" d="M23.1,16.3c1.3-0.1,1.5,1,1.5,1s-0.5-0.2-1.4-0.2c-0.7,0-1.4,0.3-1.4,0.3
					S22.1,16.4,23.1,16.3z"/>
			</g>
			<g id="XMLID_5_">
				<path id="XMLID_7_" class="st8" d="M29.7,19.9c0.8,0.4,1.5-0.8,0.7-1.3c-0.4-0.2-0.8-0.1-1,0.3C29.2,19.2,29.3,19.7,29.7,19.9z"
					/>
				<path id="XMLID_6_" class="st6" d="M30.3,16.4c1,0.1,1.3,1.1,1.3,1.1s-0.8-0.3-1.4-0.3c-0.9,0-1.4,0.2-1.4,0.2
					S29,16.3,30.3,16.4z"/>
			</g>
		</g>
	</g>
</g>
</svg>
