<?xml version="1.0" encoding="utf-8"?>
<!-- Generator: Adobe Illustrator 19.1.0, SVG Export Plug-In . SVG Version: 6.00 Build 0)  -->
<svg version="1.1" id="Layer_1" xmlns="http://www.w3.org/2000/svg" xmlns:xlink="http://www.w3.org/1999/xlink" x="0px" y="0px"
	 viewBox="0 0 1076.9 434" style="enable-background:new 0 0 1076.9 434;" xml:space="preserve">
<style type="text/css">
	.st0{fill:#FFFFFF;stroke:#9D9D9D;stroke-width:1.5;stroke-miterlimit:10;}
</style>
<g>
	<path class="st0" d="M0,22.1c0-1.6,0-3.1,0-4.7c1.5-1.3,3.4-1.3,5.2-1.3c27,0,54-0.1,80.9,0c5.3,0,6.3,0.9,6.3,6.2
		c0.1,23.4,0.1,46.9,0,70.3c0,5.3-0.9,6.2-6.3,6.2c-27,0.1-54,0-80.9,0c-1.8,0-3.7,0.1-5.2-1.3c0-1.3,0-2.6,0-3.9
		c1.8-1.5,3.9-1.2,6-1.2c15.3,0,30.6,0,45.9,0c9,0,12.1-3,12.1-12c0-15,0-30.1,0-45.1c0-8.9-3.1-12-12.1-12c-15.3,0-30.6,0-45.9,0
		C3.9,23.3,1.8,23.6,0,22.1z"/>
	<path class="st0" d="M0,97.5c28.9,0,57.9-0.1,86.8,0.1c3.3,0,4.5-0.6,4.5-4.2c-0.2-24-0.2-47.9,0-71.9c0-3.7-1.2-4.2-4.5-4.2
		C57.9,17.4,28.9,17.3,0,17.3c0-1.3,0-2.6,0-3.9c29.6,0,59.1,0,88.7,0c5.4,0,6.5,1,6.5,6.3c0,25.1,0,50.2,0,75.4
		c0,5.1-1,6.2-6.1,6.3c-2,0-2.9,0.6-2.6,2.7c0.1,0.8-0.1,1.6,0,2.4c0.4,3.4-1,4.6-4.4,4.5c-19.2-0.1-38.5-0.1-57.7-0.1
		c-8.1,0-16.2,0-24.3,0c0-1.3,0-2.6,0-3.9c1.9-1.6,4.2-1.2,6.4-1.2c22.8,0,45.6,0,68.4-0.1c1.9,0,5.4,1.3,5.5-1.6
		c0-2-3.5-1.3-5.5-1.3c-22.8-0.1-45.6,0-68.4-0.1c-2.2,0-4.5,0.4-6.4-1.2C0,100.1,0,98.8,0,97.5z"/>
	<path class="st0" d="M0,89.7C0,68.4,0,47.2,0,26c5.8-2.4,11.8-1.3,17.7-0.7c1.3,0.1,1.8,1.3,2.1,2.6c0.3,1.4,0.3,2.9,0.3,4.3
		c0,17.1,0,34.3,0,51.4c0,6.7-0.7,7.5-7.5,7.3C8.4,90.8,4,92,0,89.7z"/>
	<path class="st0" d="M0,89.7c5.4,0,10.7-0.1,16.1,0c2.3,0.1,2.8-0.7,2.8-2.9c-0.1-19.3-0.1-38.7,0-58c0-2.2-0.6-2.9-2.8-2.9
		C10.7,26.1,5.4,26,0,26c0-1.3,0-2.6,0-3.9c17.9,0,35.9,0,53.8,0c7.3,0,11.4,4.1,11.4,11.4c0,16.2,0,32.5,0,48.7
		c0,7.3-4.1,11.4-11.4,11.4c-17.9,0-35.9,0-53.8,0C0,92.3,0,91,0,89.7z"/>
	<path class="st0" d="M0,211.5c8.6,0,17.3-0.3,25.9,0c15.5,0.7,28.4,13.2,29.1,27.7c0.8,16.7-9.6,30.1-25.8,32.5
		c-10.1,1.5-19.2-1.1-26.6-8.4c-0.8-0.8-1.3-2-2.6-2.3c0-1.8,0-3.7,0-5.5c2.4-1.5,3.3,0.6,4.4,1.9c7.1,8.5,16.2,11.4,26.7,8.6
		c8.9-2.4,15.1-8.2,17.8-17.2c2.7-8.9,0.5-16.7-5.7-23.6c-5.4-6.1-12.3-8.6-20.3-8.6c-6,0-12,0-18.1,0c-1.7,0-3.4,0.2-4.9-1
		C0,214.1,0,212.8,0,211.5z"/>
	<path class="st0" d="M0,247.6c0-3.9,0-7.9,0-11.8c3.9-12.8,12.2-19.3,24.7-19.1c11.6,0.1,21.4,8.4,23.9,20.1c2.4,11-3.7,23-14,27.6
		c-11.9,5.3-25,1.4-32-9.5C1.1,252.7,1.1,250,0,247.6z"/>
	<path class="st0" d="M0,101.4c26.3,0,52.6,0,78.9,0c1.9,0,3.8-0.6,3.8,2.7s-1.9,2.7-3.8,2.7c-26.3,0-52.6,0-78.9,0
		C0,105.1,0,103.3,0,101.4z"/>
	<path class="st0" d="M0,247.6c1.3,0.9,1.3,2.5,1.9,3.7c4.5,10.3,15.8,16.3,26.6,14.1c11.9-2.5,19.5-12.1,19.4-24.5
		c-0.1-11.1-8.2-20.6-19.4-22.9c-10.9-2.3-22.5,4-26.8,14.4c-0.5,1.2-0.5,2.6-1.7,3.4c0-6.8,0-13.6,0-20.4c8.1,0,16.2-0.2,24.3,0.1
		c15.6,0.5,27,12.4,26.7,27.5c-0.2,10.3-7.6,20-17.8,23.5c-10.4,3.6-22.2,0.5-28.9-7.6c-1.1-1.4-1.7-3.8-4.3-3.4
		C0,252.9,0,250.3,0,247.6z"/>
	<path class="st0" d="M0,331.7c0-7.9,0-15.7,0-23.6c0.8-0.7,1.7-0.5,2.6-0.1c5.3,2.5,9.7,6.1,13.4,10.5c1,1.2,1.1,2.5-0.2,3.4
		c-4.5,3.5-9.1,7-14,9.9C1.2,332.3,0.5,332.2,0,331.7z"/>
	<path class="st0" d="M0,331.7c5.7-2.7,10.2-7,15.5-10.4c1.2-0.8,0.6-1.5-0.1-2.2c-4.3-4.7-9-9-15.4-11c0-1.6,0-3.1,0-4.7
		c8.4,2.9,15,8.3,20.4,15.3c1.4,1.8,1.5,3.2-0.5,4.6c-6.7,4.6-13.3,9.3-19.9,13.9C0,335.4,0,333.6,0,331.7z"/>
	<path class="st0" d="M0,357.7c7,3.8,13,8.9,19.5,13.5c1.7,1.2,0.9,2.7-0.2,4c-5.2,6.4-11.4,11.3-19.3,14c0-1.6,0-3.1,0-4.7
		c3.2-2.8,7.3-4.4,10.5-7.4c3.5-3.4,3.4-3.3-0.3-6.2c-3.4-2.7-7.7-4.4-10.2-8.3C0,360.8,0,359.3,0,357.7z"/>
	<path class="st0" d="M0,362.4c4.5,3.2,9,6.3,13.5,9.5c1.3,0.9,2,1.6,0.6,3c-4.1,4.1-8.3,7.9-14,9.5C0,377.1,0,369.7,0,362.4z"/>
	<path class="st0" d="M569.1,101.4c-19,0-38-0.1-57,0.1c-3.4,0-4.5-0.9-4.5-4.4c0.1-25.1,0.1-50.3,0-75.4c0-3.4,0.9-4.5,4.4-4.5
		c38,0.1,75.9,0.1,113.9,0c3.4,0,4.5,0.8,4.5,4.4c-0.2,25.1-0.1,50.3,0,75.4c0,3.4-0.9,4.5-4.4,4.5
		C607.1,101.4,588.1,101.4,569.1,101.4z"/>
	<path class="st0" d="M330.9,301.9c19,0,38,0.1,57-0.1c3.4,0,4.5,0.9,4.5,4.4c-0.1,25.1-0.1,50.3,0,75.4c0,3.4-0.9,4.5-4.4,4.4
		c-38-0.1-75.9-0.1-113.9,0c-3.4,0-4.5-0.9-4.4-4.4c0.1-25.1,0.1-50.3,0-75.4c0-3.4,0.9-4.5,4.4-4.4
		C292.9,302,311.9,301.9,330.9,301.9z"/>
	<path class="st0" d="M234.2,192.6c19.5,0,39,0.1,58.6-0.1c3.5,0,4.9,1,4.3,4.5c-0.1,1-0.1,2.1,0,3.1c1.3,14.9-1.7,29.1-5.8,43.3
		c-0.7,2.6-1.8,3.5-4.6,3.5c-35.2-0.1-70.5-0.1-105.7,0c-2.2,0-3.7-0.2-4.3-2.8c-1.9-7.9-4.5-15.6-5.9-23.6
		c-0.9-4.8-0.3-9.9-0.3-14.9c0-3,0.2-6-0.1-9c-0.2-3.1,0.8-4.1,4-4.1c18.3,0.1,36.7,0.1,55,0.1C231.1,192.6,232.7,192.6,234.2,192.6
		z"/>
	<path class="st0" d="M857.4,314.4c0.6-1.7,0-3.8,2.3-4c2.4-0.2,2.6,2.1,4,3.9c0.6-1.5,0.1-3.6,2.2-3.8c2.1-0.2,2.6,1.5,3.4,2.8
		c0.8,1.3,1.9,1.2,3.1,1.2c17.5,0,35.1,0,52.6,0c1.3,0,2.7,0.3,2.6-1.8c-0.1-1.3,1-1.7,2.2-1.7c0.9,0,5.6,5.6,5.6,6.5
		c0,3.4-0.2,6.8,0.1,10.2c0.2,3.1-0.8,4.1-4,4.1c-13.1-0.2-26.2,0-39.3-0.1c-2.7,0-4.2,0.6-4.8,3.3c-0.2,1.1-1.1,2.1-1.3,3.3
		c-0.6,3.1-2.7,4.1-5.6,4.3c-7.3,0.6-14.6,1.6-21.9,2.1c-3.4,0.2-4.2,1.9-4.2,4.7c0,0.7,0,1.3,0.1,2c0.8,7.1,0.8,7.5-6.3,7
		c-4.5-0.3-6.5,1.2-7.4,5.5c-0.7,3.7-2.4,7.2-3.5,10.8c-0.7,2.5-1.9,3.9-4.7,3.4c-0.9-0.1-1.8,0.1-2.7,0c-3-0.5-4.2,0.6-3.9,3.8
		c0.3,3.5,0.1,7.1,0.1,10.6c0,10.6-7.7,18.8-18.3,19c-10.2,0.2-20.4,0.1-30.6,0.1c-1.6,0-3.5,0-3.4-2.2c0.1-2,1.9-2.1,3.6-2.1
		c9.7,0,19.4,0,29.1,0c9.6,0,15.6-6.1,15.7-15.7c0-3.5,0-7.1,0.2-10.6c0.1-2.1-0.4-3.2-2.8-2.9c-1.8,0.2-3.7,0-5.5,0
		c-4.5,0-4.8-0.3-4.4-5c0.5-4.7,2.5-8.7,5.1-12.6c1.9-3,3.8-5.9,5.7-8.9c1.3-2.1,1.6-4.5,0.9-6.8c-1-3.1-2.3-5.8-6.5-5.2
		c-3,0.5-3.8-1.1-2.6-3.8c1.8-4.3,3.6-8.7,5.5-13c0.3-0.7,1-1.8,1.3-1.8c4.2,0.7,4.4-2.7,5.4-5.2c0.6-1.6,2.1-1.3,3.3-1.3
		c7.1,0,14.1,0,21.2,0c1.4,0,2.9,0.6,2.7-2.2c-0.1-2.1,2-2.5,3.7-1.1C856.1,311.9,856.5,313.1,857.4,314.4z"/>
	<path class="st0" d="M960.9,29.9c14,0,28,0.1,42-0.1c3.1,0,4,0.9,4,4c-0.1,25.4-0.1,50.8,0,76.2c0,3.2-1,4.5-4.1,3.9
		c-3.5-0.6-4,1.1-3.9,4.1c0.2,10.8,0,10.8-10.8,10.8c-20.2,0-40.3-0.1-60.5,0.1c-3.3,0-4.5-1-4.1-4.3c0.1-1.2,0-2.4,0-3.5
		c-0.1-2.2,0.6-4.9-0.4-6.5c-1-1.7-3.9-0.5-5.9-0.7c-3-0.2-2.3-2.3-2.3-4c0-15.4,0-30.9,0-46.3c0-10.1,0.1-20.2-0.1-30.2
		c0-2.8,0.9-3.6,3.6-3.6C932.7,30,946.8,29.9,960.9,29.9z"/>
	<path class="st0" d="M308,55.9c13.7,0,27.5,0.1,41.2-0.1c3.8-0.1,4.6,1.2,4.6,4.7c-0.1,24.9-0.1,49.8,0,74.6c0,3.6-0.8,5.5-4.7,4.8
		c-2.6-0.4-3.5,0.6-3.3,3.2c0.2,2.5-0.1,5,0.1,7.5c0.2,2.8-1,3.6-3.7,3.5c-23-0.1-46.1-0.1-69.1,0c-2.9,0-3.7-1.1-3.5-3.7
		c0.1-1.4,0-2.9,0-4.3c0-5.6,0-5.7-5.3-6.1c-2.5-0.2-2.5-1.7-2.5-3.5c0-7.9,0-15.7,0-23.6c0-17.5,0.1-35.1-0.1-52.6
		c0-3.8,1.2-4.6,4.7-4.6C280.2,56,294.1,55.9,308,55.9z"/>
	<path class="st0" d="M789.1,192.6c19,0,38,0,57,0c4.9,0,6.1,1.1,6.1,5.9c0,25.4,0,50.8,0,76.2c0,4.7-1.3,6-6.2,5.8
		c-2.8-0.1-3.5,0.8-3.4,3.5c0.2,5.2,0,5.2-5.2,5.2c-33,0-66-0.1-99,0.1c-4,0-5.6-1.1-5-5.1c0.4-2.4,0-3.9-3.2-3.7
		c-3.8,0.3-4.7-2.3-4.7-5.6c0.1-23.2,0-46.4,0-69.5c0-2.5,0-5,0-7.5c0.1-4.1,1.3-5.3,5.4-5.3C750.3,192.6,769.7,192.6,789.1,192.6z"
		/>
	<path class="st0" d="M120.3,375.8c-18.5,0-36.9,0-55.4,0c-6,0-7.5-1.4-7.5-7.3c0-16.1,0-32.2,0-48.3c0-5.9,1.5-7.3,7.5-7.3
		c16.4,0,32.7-0.1,49.1,0.1c3.4,0,4.2-0.9,4-4.1c-0.3-4.2-0.1-8.4-0.1-12.6c0-11.5,8-19.5,19.5-19.5c25.8-0.1,51.6,0,77.4,0
		c6.4,0,12.8,0,19.2,0c1.5,0,3.5-0.4,3.6,1.9c0.1,2.7-2.1,2.1-3.7,2.1c-31.4,0-62.9,0-94.3,0c-12,0-17.7,5.8-17.8,17.8
		c0,3.5,0.2,7.1-0.1,10.6c-0.2,2.9,0.6,3.8,3.6,3.7c17-0.2,34-0.1,51.1-0.1c6.1,0,7.6,1.5,7.6,7.7c0,15.8,0,31.7,0,47.5
		c0,6.2-1.5,7.7-7.6,7.7C157.7,375.8,139,375.8,120.3,375.8z"/>
	<path class="st0" d="M601.4,289.3c-14.3,0-28.5,0-42.8,0c-1,0-2.1,0-3.1-0.2c-1-0.2-1.5-1-1.4-2.1c0.1-0.9,0.6-1.5,1.4-1.6
		c1.2-0.2,2.3-0.2,3.5-0.2c28,0,56,0,84.1,0c13.8,0,20.4,6.6,20.3,20.5c0,4.1,0.1,8.1-0.1,12.2c-0.1,2.3,0.6,2.9,2.9,2.8
		c10.3-0.1,20.7-0.1,31,0c16.4,0,29.8,13.9,29.8,30.6c0,17-13.1,30.5-29.7,30.7c-9.5,0.1-17.3-3.5-23.7-10.3
		c-1.6-1.7-3.1-2.6-5.4-2.3c-1.2,0.2-2.4,0.1-3.5,0c-7.4-0.6-13.5,0.5-19.7,6.2c-9.6,8.8-23.9,8.6-34.7,1.7
		c-10.4-6.6-15.9-19.5-13.4-31.7c2.6-13,12.4-23.2,25.2-24.6c9.7-1,19.6-0.3,29.4-0.4c7.8,0,7.8,0,7.8-7.7c0-2.9,0.1-5.8-0.1-8.6
		c-0.4-10.3-5.5-15.1-15.9-15.1C629.5,289.3,615.5,289.3,601.4,289.3z"/>
	<path class="st0" d="M634.3,427.9c-0.1-2.5,0.7-3.5,3.3-3.5c39.9,0.1,79.9,0.1,119.8,0c2.9,0,3.5,1.1,3.5,3.7"/>
	<path class="st0" d="M924.9,286.9c-9,0-18.1-0.1-27.1,0c-2.3,0-3.6-0.9-5.1-2.6c-6.5-7.1-5.3-15.7-5.3-24.1c0-2.3,1.4-2.4,3.2-2.4
		c5.8,0,11.5-0.1,17.3,0.1c2.5,0.1,3.6-0.8,4.6-3c1.4-2.9,1-7.4,6-7.5c0.1,0,0.3-1.4,0.3-2.2c0-6.5-0.1-13.1,0.1-19.6
		c0.1-2.3-1.2-2.8-2.8-3.7c-7.2-3.9-11-11.1-9.8-19.4c1.1-7.8,5.7-13.1,13.3-15.5c9.3-2.9,19.2,1.8,23,10.8
		c3.7,8.8,0.3,19.2-8.1,23.7c-2.5,1.3-3.3,2.7-3.2,5.4c0.2,6,0.1,12,0,18.1c0,1.6,0,2.9,2.2,2.7c1.7-0.2,2.1,1.3,2.6,2.5
		c0.9,2,1.7,4.1,2.5,6.2c0.4,1.1,1.2,1.5,2.4,1.5c1.7-0.1,1.5-1.3,1.3-2.2c-0.5-3.4,1.1-4.4,4.3-4.1c1.7,0.2,3.4,0.2,5.1,0
		c3.2-0.3,5.5,0.2,4.8,4.3c-0.4,2.3,1.4,2.1,2.8,2c2.8-0.3,3.8,1,3.5,3.7c-0.1,1.4-0.2,2.9,0,4.3c1.1,7-1.3,13-5.3,18.6
		c-1.3,1.8-2.5,2.6-4.8,2.6C943.5,286.9,934.2,286.9,924.9,286.9z"/>
	<path class="st0" d="M516.6,255.5c-18.6,0-37.2,0-55.8,0c-5.8,0-7.3-1.5-7.3-7.1c0-16.2,0-32.5,0-48.7c0-5.5,1.5-7,6.9-7
		c16,0,32,0,47.9,0c5.7,0,5.7,0,5.7-5.9c0-3.7,0-7.3,0-11c0-10.6,7.8-19,18.3-19.1c16.6-0.2,33.3-0.1,49.9-0.1
		c1.6,0,3.4-0.1,3.4,2.2c-0.1,2.3-2,2.1-3.5,2.1c-15.7,0-31.4,0-47.1,0c-11.1,0-16.8,5.7-17,16.9c0,3.7,0.2,7.3-0.1,11
		c-0.2,3,0.6,4,3.8,3.9c17-0.2,34.1-0.1,51.1-0.1c5.8,0,7.4,1.6,7.4,7.5c0,16,0,32,0,47.9c0,5.9-1.6,7.5-7.4,7.5
		C554.1,255.5,535.3,255.5,516.6,255.5z"/>
	<path class="st0" d="M216.9,74.7c0,10.5-0.1,21,0.1,31.4c0.1,3.2-1,4-4,4c-18.3-0.1-36.7-0.1-55,0c-3.2,0-4-1-4-4.1
		c0.1-20.8,0-41.6,0.1-62.5c0-3.5-0.8-4.1-3.8-2.5c-2.3,1.2-4.8,2-7.2,3.1c-2.2,1.1-3.3,0.4-4.2-1.8c-2.5-6.3-5-12.6-7.6-18.9
		c-1-2.4-0.2-3.6,2.1-4.4c6.8-2.4,13.5-4.9,20.2-7.4c1.5-0.6,3.1-0.6,4.6-0.6c17.7,0,35.4,0.1,53-0.1c3.8,0,7.2,1.1,10.6,2.4
		c5.1,1.9,10.3,3.9,15.5,5.7c2.4,0.8,3.4,2.1,2.3,4.7c-2.6,6.2-5,12.3-7.4,18.6c-1,2.6-2.4,3.1-4.8,1.9c-2.5-1.2-5.1-2-7.5-3.3
		c-2.6-1.3-3-0.5-3,2.1C217,53.5,216.9,64.1,216.9,74.7z"/>
	<path class="st0" d="M37.2,431.1c0.1-0.3,1.9-0.3,3-0.3c7.7,0,15.4,0,23.3,0c0.1-1.7-0.9-3.9,1.5-4.4c3.1-0.6,2.8,3,4.9,4.1
		c0.2-1.4-0.8-3.6,1.4-4.1c3.1-0.7,2.9,2.9,4.9,4.1c0.3-1.4-0.8-3.5,1.4-4.1c2.1-0.6,2.7,1.1,3.5,2.5c0.8,1.4,1.8,2,3.4,2
		c17.4-0.1,34.8,0,52.2,0c1.6,0,2.9,0,2.6-2.2c-0.1-1.3,0.6-2,1.8-2.1c1.4,0,2.2,0.7,2.1,2.2c-0.1,1.5,0.4,2.2,2,2
		c2.4-0.2,2.9,1.2,2.9,3.2"/>
	<path class="st0" d="M1003.5,156.6c15.6,0,31.2,0,46.8,0c12.5,0,20.3,7.8,20.3,20.3c0,10.1,0.2,20.2-0.1,30.3
		c-0.1,3.8,1.2,4.9,4.6,4.3c0.4-0.1,0.8-0.1,1.2,0c1,0.2,2.6-0.7,2.9,1c0.2,1.2,0.6,2.6-1.4,3c-1.4,0.3-0.7,1.7-0.8,2.7
		c-0.2,1.6,0.6,3.8-2.1,3.8c-2.4,0-1.7-2.1-1.9-3.6c0-0.5,0-1,0-1.6c0-0.7-0.1-1.3-1-1.4c-1.1-0.1-1.1,0.6-1.3,1.5
		c-0.4,1.8,1.4,5-2,5c-3.3,0-1.5-3.2-1.9-5c-0.2-0.8-0.3-1.5-1.4-1.4c-0.9,0.1-1,0.7-1,1.4c0,0.5,0,1,0,1.6
		c-0.1,1.5,0.5,3.5-1.9,3.6c-2.4,0.1-2.2-1.9-2-3.4c0.3-2.7-0.8-3.3-3.3-3.2c-8.2,0.2-16.5-0.1-24.7,0.2
		c-11.7,0.5-21.9,8.9-24.6,19.8c-2.7,11.2,1.8,22.4,11.6,28.5c10,6.2,23,5.3,31.8-2.4c0.1-0.1,0.2-0.2,0.3-0.3
		c3.3-6.4,9.2-6.2,15.1-5.8c3.3,0.2,6.6,0.1,9.8,0c1.9-0.1,2.8,0.3,2.8,2.5c0,2.5-1.6,1.4-2.6,1.4c-2.1,0.1-4.2,0.2-6.3,0
		c-6.8-0.6-12.3,0.7-17.7,6c-9.3,9-25.3,8.9-36.5,1.4c-11.1-7.4-15.9-21.2-12-33.8c4.1-12.9,15.7-21.5,29.2-21.5
		c10,0,19.9-0.1,29.9,0c2.3,0,3.5-0.3,3.4-3.1c-0.2-10.5,0-21-0.1-31.4c-0.1-10.3-6.1-16.1-16.6-16.1c-31.3,0-62.6,0-93.9-0.1
		c-2,0-5.3,1.1-5.2-2.2c0-3,3.2-2,5.1-2C971.8,156.6,987.7,156.6,1003.5,156.6z"/>
	<path class="st0" d="M872.1,137.6c-3.9,0-7.9,0.1-11.8,0c-2.2-0.1-2.8,0.7-2.8,2.9c-0.1,7.4-0.2,7.4-7.5,7.4
		c-7.2,0-14.4-0.1-21.6,0.1c-2.8,0.1-4-0.6-3.9-3.7c0.1-6.6-0.1-6.6-6.8-6.6c-6.5,0-13.1-0.1-19.6,0c-2.6,0.1-3.5-0.8-3.4-3.4
		c0.2-3.3,0.2-6.5,0-9.8c-0.1-2.6,0.9-3.4,3.4-3.4c6.9-0.1,6.8-0.2,6.8-6.9c0-0.4,0-0.8,0-1.2c0-9.8,0-9.8,9.8-9.2
		c1.9,0.1,3,0.7,2.8,2.8c-0.1,1.3,0,2.6,0,3.9c0,4.1,2,5.6,6,4.3c1.8-0.5,1.1-1.9,1.1-2.9c0.1-9.6,0.2-19.1,0-28.7
		c-0.1-3.5,0.8-5.3,4.5-4.6c2.7,0.5,3.5-0.6,3.5-3.4c-0.1-7.7-1.1-6.8,6.9-6.8c0.4,0,0.8,0,1.2,0c8,0,8.1,0,8.3,7.7
		c0.1,2.7,1.4,2.5,3.2,2.5c5.5,0,5.5,0.1,5.5,5.5c0,9.2,0.2,18.3-0.1,27.5c-0.1,3.1,1.3,3.3,3.7,3.2c2.1-0.1,3.6,0.1,3.6-3
		c-0.1-8.6,0.1-8.6,8.7-8.1c2.2,0.1,3.1,0.8,3,3c-0.1,3.8,0.1,7.6-0.1,11.4c-0.1,2,0.3,3,2.7,3c8.3,0.1,8.3,0.3,8.3,8.5
		c0,7.9,0,7.9-7.8,7.9C877.1,137.6,874.6,137.6,872.1,137.6z"/>
	<path class="st0" d="M393.8,213.2c0,4.8,0.2,9.7-0.1,14.5c-0.2,3.5,2.1,2.5,3.8,2.6c1.9,0.1,3.4,0.2,3.4-2.7c0-7.7,0.2-7.6,8.1-7.6
		c2.7,0,3.8,0.8,3.6,3.6c-0.2,3.5,0,7.1-0.1,10.6c-0.1,1.9,0.7,2.3,2.5,2.4c8.6,0.4,8.6,0.4,8.6,9.1c0,8.4,1.1,7.3-7.2,7.3
		c-6.7,0-13.4,0.1-20,0c-2.1,0-2.6,0.6-2.7,2.6c-0.2,8.4-0.3,8.4-8.9,8.4c-6.8,0-13.6-0.1-20.4,0c-2.6,0-3.7-0.6-3.7-3.5
		c0-7.6-0.1-7.6-7.8-7.6c-6.3,0-12.6-0.1-18.8,0c-2.4,0-3.3-0.8-3.2-3.2c0.1-3.4,0.1-6.8,0-10.2c-0.1-2.4,0.8-3.2,3.2-3.2
		c7.9-0.2,7.8-0.3,7.9-8.3c0.1-9.4-2-8,8.7-8.2c2.1,0,3.2,0.6,3,2.9c-0.1,1,0.1,2.1,0,3.1c-0.6,3.5,0.7,4.5,4.2,4.3
		c2.5-0.1,3-0.9,3-3.2c-0.1-9.4,0.1-18.9-0.1-28.3c-0.1-3,0.7-4.6,3.9-4c3.8,0.8,4.1-1.3,4.1-4.4c-0.1-7.6-1-6.6,6.7-6.7
		c2.6,0,5.2,0.1,7.9,0c2-0.1,2.9,0.8,2.7,2.8c0,0.5,0,1,0,1.6c0,2-0.6,4.3,0.2,5.8c1,1.9,3.6,0.6,5.4,0.8c2,0.2,2.2,1.4,2.2,3
		C393.8,203,393.8,208.1,393.8,213.2z"/>
	<path class="st0" d="M398.5,61.6c0-15.4,0-30.9,0-46.3c0-6,2-8.1,7.9-8.1c18.6,0,37.2,0,55.8,0c5.7,0,8,2.1,8,7.7
		c0,31.3,0,62.6,0,93.9c0,5.6-2.3,7.7-8,7.7c-18.6,0-37.2,0-55.8,0c-5.9,0-7.9-2-7.9-8.1C398.5,92.7,398.5,77.1,398.5,61.6z"/>
	<path class="st0" d="M690.9,198.5c0,15.6,0,31.2,0,46.7c0,5.8-2.1,7.9-7.7,7.9c-18.7,0-37.4,0-56.2,0c-5.5,0-7.7-2.1-7.7-7.5
		c0-31.4,0-62.8,0-94.3c0-5.2,2.2-7.5,7.3-7.5c19,0,38,0,56.9,0c5.1,0,7.3,2.2,7.3,7.5C690.9,167.1,690.9,182.8,690.9,198.5z"/>
	<path class="st0" d="M525.8,347.3c6.5,4.7,12.8,9.2,19,13.6c4.1,3,8.2,6.1,12.5,8.9c2.9,1.9,3.2,3.6,0.9,6.2
		C546,389.7,530.7,395,513,391.3c-17.2-3.5-28.9-14.2-34.5-30.9c-7.1-21.3,2.4-44.2,22.4-54.8c19.6-10.4,44.5-5.3,58.2,12
		c2.9,3.7,2.9,4.1-0.9,6.7C547.5,331.8,536.9,339.4,525.8,347.3z"/>
	<path class="st0" d="M739.7,60.2c0,8.8,0,17.6,0,26.3c0,1.2,0.4,2.8-1.1,3.5c-1.8,0.8-2.6-0.7-3.5-1.7c-2.4-2.6-4.8-5.2-7-7.9
		c-1.2-1.4-1.9-1.3-3,0c-1.9,2.2-3.8,4.3-5.7,6.5c-4,4.5-4,4.5-7.9,0.1c-1.8-2-3.8-4-5.4-6.2c-1.4-1.7-2.3-2-3.8-0.1
		c-2.2,2.8-4.7,5.2-7,8c-1.7,2-3.2,1.9-4.8,0c-2.2-2.6-4.7-5-6.7-7.7c-1.7-2.3-2.8-1.7-4.3,0.2c-2.1,2.6-4.5,5.1-6.8,7.6
		c-0.8,0.9-1.6,1.8-3,1.3c-1.4-0.5-1.4-1.8-1.4-3c0.1-18.2-0.4-36.4,0.3-54.6C669,16.3,684.1,2,700.3,0.9
		c18.5-1.3,34.4,9.9,38.5,27.2c0.6,2.6,0.9,5.1,0.9,7.8C739.6,43.9,739.7,52.1,739.7,60.2z"/>
	<path class="st0" d="M65.2,201c0-8.1,0-16.2,0-24.3c0-17.9,14.2-32.8,33-34.7c17.1-1.7,34.2,10.8,37.8,27.6c0.7,3.5,0.9,7,0.9,10.5
		c0,15.4,0,30.9,0,46.3c0,1.6,0.7,3.7-1.3,4.6c-2,0.9-2.9-1.2-4.1-2.3c-0.8-0.8-1.6-1.7-2.4-2.6c-5.6-6.3-5.6-6.3-11.2,0.2
		c-5.7,6.5-5.3,6.5-10.9,0.1c-5.8-6.6-5.8-6.6-11.6-0.2c-6.2,6.9-5.2,6.5-11.1-0.1c-5.7-6.3-5.7-6.3-11.3-0.1
		c-1.1,1.3-2.3,2.5-3.4,3.8c-0.8,0.9-1.7,1.7-3,1.3c-1.4-0.5-1.2-1.8-1.2-3C65.2,219.1,65.2,210.1,65.2,201z"/>
	<path class="st0" d="M451.2,430.3c0-4.7,1.1-5.8,5.7-5.8c19.3,0,38.5,0,57.8,0c19,0,38,0,57,0c4.9,0,6.1,1.1,6.2,5.9"/>
	<path class="st0" d="M573.9,432.2c0-2.8-0.4-3.9-3.6-3.9c-37.2,0.1-74.4,0.1-111.6,0c-2.8,0-3.5,0.9-3.5,3.6"/>
	<path class="st0" d="M948.7,430.6c0-2.9,0.9-3.8,3.8-3.8c19.8,0.1,39.5,0.1,59.3,0.1c19.5,0,39,0.1,58.5-0.1c3.2,0,4.3,0.9,4.2,4.2
		"/>
	<path class="st0" d="M1070.6,434c0-2.5-0.6-3.3-3.2-3.3c-37.2,0.1-74.4,0.1-111.6,0c-2.6,0-3.3,0.8-3.2,3.3"/>
	<path class="st0" d="M194,432.6c-7.9-4.2-11.7-12.8-9.7-21.2c2.2-8.8,9.5-14.5,18.6-14.4c8.9,0,16.1,5.7,18.3,14.3
		c2.2,8.6-1.9,17.7-10.2,21.6"/>
	<path class="st0" d="M382,407.2c15.5,0,30.9,0,46.4,0c10.3,0,16.3-5.9,16.4-16.3c0.1-13.2,0-26.5,0-39.7c0-1,0-2.1,0.1-3.1
		c0.1-1.3,1.1-1.9,2.1-1.8c0.9,0,1.8,0.5,1.9,1.6c0.1,0.6,0.1,1.3,0.1,2c0,14.5,0.1,29.1,0,43.6c-0.1,10.2-8.5,18.3-19.2,18.3
		c-32.3,0.1-64.7,0-97,0c-1.8,0-3.8,0-3.9-2.2c-0.1-2.7,2.3-2.3,4.1-2.3C349.3,407.2,365.6,407.2,382,407.2z"/>
	<path class="st0" d="M1078.9,307.3c-25.7-5.4-41.5-0.4-52.1,16.4c-9.1,14.3-8.3,33.8,1.6,47.3c8.9,12.1,26.6,22.5,50.3,14.1
		c1.3,2.9,0.4,4.3-2.7,5.2c-31.6,9.1-59.8-14.1-59.7-43.5c0.1-31.8,29.3-53.9,59.4-44.7C1079.4,303.2,1079.4,303.2,1078.9,307.3z"/>
	<path class="st0" d="M950.1,390.7c-15.7,0-31.4,0-47.1,0c-9.4,0-15.5,6.1-15.5,15.4c0,6.3,0,12.6,0,18.9c0,1.6,0,3.4-2.2,3.4
		c-2.1,0-2.4-1.7-2.4-3.3c0-6.7-0.2-13.4,0.1-20c0.5-11.3,8.6-18.9,20-18.9c32-0.1,63.9,0,95.9,0c0.7,0,1.3,0,2,0
		c1.3,0.1,2.3,0.6,2.4,2c0.1,1.6-0.8,2.4-2.4,2.5c-1.4,0.1-2.9,0-4.3,0C981,390.7,965.5,390.7,950.1,390.7z"/>
	<path class="st0" d="M471.3,433.2c10.9,0,21.7,0,32.6,0c10.9,0,21.7,0,32.6,0"/>
	<path class="st0" d="M1047.8,57c0-12.6,0-25.1,0-37.7c0-4.9,1.1-5.9,6-5.9c7.6,0,15.2,0,22.8,0c1.2,0,2.6-0.4,2.7,1.8
		c0.1,2.3-1.2,2.2-2.7,2.2c-7.2,0-14.4,0.1-21.6-0.1c-2.3,0-3.2,0.6-3.2,3.1c0.1,24.7,0.1,49.5,0,74.2c0,2.6,1,3,3.2,3
		c7.1-0.1,14.1-0.1,21.2,0c1.3,0,2.9-0.7,3,1.8c0.1,2.7-1.7,2.1-3.1,2.1c-4.7,0-9.4,0.1-14.1,0c-2.3-0.1-2.4,1.1-2.5,2.9
		c0,1.9,0.4,2.8,2.6,2.7c4.8-0.2,9.7-0.1,14.5,0c1.3,0,2.6-0.3,2.6,1.8c0.1,2.3-1.3,2.1-2.8,2.1c-5.8,0-11.5-0.1-17.3,0
		c-2.8,0.1-3.8-1.1-3.6-3.7c0.3-3.3,0.7-6.4-4.6-6c-2.7,0.2-3.3-2.7-3.3-5.3C1047.8,82.9,1047.8,70,1047.8,57z"/>
	<path class="st0" d="M200.5,161.1c-10.2,0-20.4,0-30.6,0c-0.9,0-1.8,0-2.7,0c-1.4-0.1-2.7-0.7-2.7-2.3c0-1.9,1.3-2.3,3-2.3
		c5,0,9.9,0,14.9,0c4.4,0,8.9-0.3,13.3,0.1c4.2,0.4,4.9-1.2,4.8-5c-0.3-6.9-0.1-13.9-0.1-20.8c0-1.5-0.5-3.5,1.9-3.6
		c2.6-0.1,2.3,1.9,2.3,3.6c0,7.3,0.2,14.7-0.1,22c-0.1,3.2,1,3.9,4,3.8c8-0.2,16-0.1,23.9-0.1c1.7,0,3.8-0.1,3.7,2.3
		c0,2.4-2.1,2.3-3.8,2.3C221.7,161.1,211.1,161.1,200.5,161.1z"/>
	<path class="st0" d="M754.3,161.1c-8.6,0-17.3,0-25.9,0c-0.9,0-1.8,0-2.7,0c-1.4-0.1-2.6-0.6-2.7-2.2c0-1.9,1.3-2.3,2.9-2.3
		c7.7,0,15.4-0.1,23.1,0.1c2.6,0.1,3.3-0.7,3.3-3.3c-0.2-7.5-0.1-14.9-0.1-22.4c0-1.7-0.1-3.8,2.3-3.7c2.4,0,2.3,2,2.3,3.8
		c0,7.5,0.1,14.9-0.1,22.4c-0.1,2.6,0.8,3.3,3.3,3.3c7.1-0.2,14.1-0.1,21.2,0c1.9,0,4.8-1,4.7,2.3c-0.1,2.8-2.8,2.2-4.6,2.2
		C772.3,161.1,763.3,161.1,754.3,161.1z"/>
	<path class="st0" d="M810,40.8c-13.6,0-27.2,0-40.8,0c-1.8,0-4.2,0.4-4.1-2.3c0.1-2.6,2.4-2.2,4.2-2.2c27.3,0,54.7,0,82,0
		c0.5,0,1,0,1.6,0c1.5,0,2.7,0.6,2.8,2.1c0.1,1.8-1.3,2.4-2.9,2.4c-5.5,0-11,0-16.5,0C827.5,40.8,818.8,40.8,810,40.8z"/>
	<path class="st0" d="M1055.6,57.6c0-8.3,0-16.5,0-24.8c0-6.5,4.3-10.7,10.8-10.8c3.4,0,6.8,0,10.2,0c1.4,0,2.6-0.1,2.6,1.9
		c0,2-1,2.1-2.5,2c-3.1,0-6.3-0.1-9.4,0c-5.2,0.2-7.7,2.7-7.7,7.9c0,16,0,32,0,47.9c0,5.2,2.5,7.7,7.7,7.8c3,0.1,6,0,9,0
		c1.4,0,2.9-0.3,2.8,2c0,2.4-1.7,1.9-3,1.9c-3.4,0-6.8,0.1-10.2,0c-6-0.1-10.4-4.4-10.4-10.4C1055.6,74.6,1055.6,66.1,1055.6,57.6z"
		/>
	<path class="st0" d="M1049.3,241.9c0,6.6,0,6.7-6.6,7.3c-1.9,0.1-2,0.9-2.1,2.4c-0.3,5.6-7.3,8.8-12.1,5.6c-1.9-1.3-2.2-3.2-2-5.2
		c0.3-2.3-0.6-2.8-2.8-2.8c-4.7,0-5.8-1.2-5.8-5.7c-0.1-7-0.1-7.1,7-8.4c1.8-0.3,1.6-1.3,1.6-2.5c0.4-5.6,1-6.1,6.6-6.2
		c6.8,0,7.1,0.2,7.5,6.3c0.1,1.6,0.4,2.2,2.2,2.4C1049.4,235.6,1049.3,235.7,1049.3,241.9z"/>
	<path class="st0" d="M458.7,156.5c12.2,0,24.3,0,36.5,0c1.8,0,4.2-0.5,4.2,2.2c0,2.9-2.5,2.4-4.4,2.4c-24.3,0-48.7,0-73,0
		c-0.8,0-1.6,0-2.4-0.1c-1.5-0.2-2.5-0.9-2.3-2.6c0.1-1.4,1.2-1.9,2.5-2c2,0,3.9,0,5.9,0C436.7,156.5,447.7,156.5,458.7,156.5z"/>
	<path class="st0" d="M780.5,344.2c4.3,0,8.6,0,13,0c1.6,0,3.2,0.1,3.2,2c0.1,2.2-1.7,2.2-3.3,2.2c-7.3,0-14.7,0-22,0
		c-10.8,0-16.7,6-16.7,16.8c0,5.9,0,11.8,0,17.7c0,1.7-0.1,3.4-2.2,3.4c-2.2,0-2.2-1.8-2.2-3.4c0-6.7-0.2-13.4,0-20
		c0.3-10.8,8.4-18.5,19.3-18.6C773.2,344.2,776.8,344.2,780.5,344.2z"/>
	<path class="st0" d="M230.5,344.2c4.2,0,8.4,0,12.6,0c1.6,0,3.5-0.2,3.6,2c0.1,2.5-2.1,2.2-3.8,2.2c-7.2,0-14.4,0-21.6,0
		c-10.7,0-16.8,6.1-16.8,16.8c0,5.9,0,11.8,0,17.7c0,1.6,0.1,3.4-2.2,3.4c-2.4,0-2-2-2-3.5c0-6.8-0.1-13.6,0-20.4
		c0.1-9.9,8.1-17.9,18-18.1C222.4,344.1,226.4,344.2,230.5,344.2z"/>
	<path class="st0" d="M1078.8,362.2c-6.1-4.4-12-8.6-17.9-12.9c-1.8-1.3-1.7-2.8,0.1-4.1c5.8-4.2,11.7-8.3,17.7-12.6
		c1.3,3.2,0.5,5.2-2.3,6.9c-2.9,1.8-5.5,4-8.3,5.8c-2.1,1.4-2.8,2.3-0.1,4c2.8,1.7,5.2,3.9,8,5.6
		C1078.6,356.5,1080,358.4,1078.8,362.2z"/>
	<path class="st0" d="M135.1,99.3c-0.4,1.6-1.4,2.3-2.9,2.1c-3.3-0.5-3.7,1.3-3.4,3.8c0.1,1.6,0.1,3.1,0,4.7
		c-0.1,1.4-0.8,2.6-2.4,2.5c-1.4-0.1-2-1.1-2-2.4c0-1.3-0.1-2.6,0-3.9c0.1-2.7,0.4-5.4-3.8-4.7c-1.4,0.2-2.5-0.7-2.5-2.3
		c0-1.4,1.2-2.3,2.3-2.1c4.4,0.7,4.2-2,4-4.9c-0.1-0.9,0-1.8,0-2.7c-0.1-1.7,0.2-3.4,2.3-3.3c2,0.1,2.3,1.8,2.2,3.5
		c0,1.6,0.1,3.1,0,4.7c-0.2,2,0.5,2.9,2.6,2.7C133.2,96.7,134.8,97.1,135.1,99.3z"/>
	<path class="st0" d="M39.9,378.9c1.6,0.1,2.3,0.8,2.4,2c0.1,1.3,0.1,2.6,0.1,3.9c0,2.8-0.7,6,4.1,5.2c1.3-0.2,2.2,0.8,2.1,2.2
		c-0.1,1.4-1.2,2.2-2.4,2c-4.2-0.6-3.9,2-3.8,4.7c0,0.9,0,1.8,0,2.7c0.1,1.7-0.1,3.5-2.1,3.5c-2.3,0-2.4-1.9-2.4-3.7
		c0-0.8-0.1-1.6,0-2.4c0.2-2.9,0.3-5.6-4-5c-1.3,0.2-2.3-0.8-2.2-2.2c0-1.4,1-2.3,2.3-2.1c4.1,0.8,4.1-1.8,3.9-4.6
		c-0.1-1.4-0.1-2.9,0.1-4.3C38,379.7,38.8,378.9,39.9,378.9z"/>
	<path class="st0" d="M606.8,431.6c0.2-2.8,0.3-5.3-3.8-4.6c-1.3,0.2-2.3-0.7-2.4-2c-0.1-1.6,1.2-2.5,2.5-2.3
		c3.8,0.5,3.9-1.7,3.7-4.4c-0.1-1.4-0.1-2.9,0-4.3c0.1-1.3,0.9-2.2,2.2-2.2c1.4,0,2.1,0.9,2.2,2.2c0.1,1.4,0.2,2.9,0,4.3
		c-0.3,2.8,0.1,4.8,3.7,4.5c1.4-0.1,2.5,0.7,2.5,2.3c-0.4,1.9-1.8,2.3-3.3,2.1c-2.6-0.3-3.2,0.9-3,3.2"/>
	<path class="st0" d="M415.1,431.7c0.1-1.3,0.9-2.3,2.3-2.2c1.4,0,2.1,1,2.2,2.3"/>
	<path class="st0" d="M95,270.9c-0.3,1.8-1.5,2.5-2.9,2.3c-3.3-0.4-3.6,1.5-3.4,4c0.1,1.6,0.1,3.1,0,4.7c-0.1,1.3-0.9,2.3-2.2,2.2
		c-1.3,0-2.1-1-2.2-2.3c-0.1-1.3-0.1-2.6,0-3.9c0.2-2.9,0.1-5.2-3.9-4.8c-1.4,0.1-2.5-0.9-2.3-2.5c0.2-1.4,1.3-2,2.5-1.8
		c3.5,0.6,3.9-1.4,3.7-4.1c-0.1-1.6-0.1-3.1,0-4.7c0.1-1.3,0.8-2.2,2.2-2.2c1.4,0,2.1,0.9,2.2,2.3c0.1,1.7,0.2,3.4,0,5.1
		c-0.2,2.6,0.4,4,3.3,3.6C93.6,268.6,94.8,269.3,95,270.9z"/>
	<path class="st0" d="M434.2,305.7c-0.2,1.7-1.3,2.5-2.7,2.3c-3.3-0.4-3.6,1.4-3.4,4c0.1,1.4,0,2.9-0.1,4.3
		c-0.1,1.4-0.6,2.7-2.3,2.7c-1.6,0-2.2-1.2-2.2-2.7c0-1.2-0.1-2.4,0-3.5c0.1-2.7,0.4-5.3-3.8-4.8c-1.3,0.2-2.6-0.7-2.4-2.4
		c0.1-1.7,1.3-2.3,2.8-2c3.3,0.5,3.7-1.2,3.5-3.9c-0.1-1.4,0-2.9,0-4.3c0-1.4,0.4-2.7,2.1-2.8c1.9-0.1,2.3,1.3,2.5,2.9
		c0.1,0.8,0,1.6,0,2.4c0,3-1,6.6,4.3,5.8C433.5,303.4,434.1,304.6,434.2,305.7z"/>
	<path class="st0" d="M259.4,413c-0.1,2-1.6,2.6-3,2.5c-2.9-0.2-3.5,1.2-3.3,3.7c0.2,1.5,0.1,3.1,0,4.7c-0.1,1.5-0.8,2.5-2.4,2.5
		c-1.4-0.1-2.1-1-2.1-2.4c-0.1-1.2-0.1-2.4,0-3.5c0.2-2.9,0.3-5.6-4-5.1c-1.3,0.1-2.3-0.8-2.2-2.2c0.1-1.3,1-2.2,2.4-2
		c3.7,0.6,4.1-1.4,3.8-4.3c-0.2-1.5-0.1-3.1,0.1-4.7c0.1-1.3,1-2.1,2.4-2c1.2,0.1,1.9,0.9,2,2.1c0.1,1.2,0.1,2.4,0.1,3.5
		c-0.2,3.1-0.6,6.2,4.2,5.5C258.5,410.9,259.1,412,259.4,413z"/>
	<path class="st0" d="M704.1,285.7c-0.3,1.6-1.3,2.4-2.8,2.1c-3.4-0.5-3.6,1.4-3.4,3.9c0.1,1.7,0.1,3.4-0.1,5.1
		c-0.2,1.3-1.1,2.1-2.5,2c-1.2-0.1-1.9-0.9-1.9-2.1c-0.1-1.2-0.1-2.4,0-3.5c0.2-3.2,0.5-6.1-4.3-5.4c-1.1,0.2-1.9-0.7-2-2
		c0-1.2,0.8-2.3,1.8-2.1c5.5,0.7,4.4-3.2,4.4-6.2c0-0.5,0-1,0-1.6c0-1.7,0.2-3.3,2.4-3.3c1.8,0.1,2.2,1.5,2.2,3.1
		c0,1.2,0.1,2.4,0,3.5c-0.2,2.6-0.1,4.7,3.5,4.3C702.8,283.3,703.9,284.2,704.1,285.7z"/>
	<path class="st0" d="M967.4,333.6c-1.3-0.2-2.1-0.8-2.1-2.3c0-1.3,0-2.6,0-3.9c0.1-2.7,0.4-5.4-3.8-4.7c-1.3,0.2-2.6-0.7-2.5-2.4
		c0.1-1.7,1.4-2.2,2.8-2c3.1,0.5,3.8-1,3.5-3.8c-0.2-1.7,0-3.4,0-5.1c0-1.2,0.7-2,1.9-2.1c1.4-0.1,2.2,0.6,2.4,2
		c0.1,1.2,0.2,2.3,0.1,3.5c-0.2,3.1-0.5,6.2,4.3,5.6c1.2-0.2,1.9,0.9,1.9,2.1c0,1.2-0.7,2.2-1.9,2.1c-5.1-0.4-4.3,3-4.3,6.1
		c0,1,0,2.1-0.2,3.1C969.3,332.9,968.6,333.6,967.4,333.6z"/>
	<path class="st0" d="M385.7,156.5c-1.4-0.1-2.1-0.9-2.1-2.3c0-1.6-0.1-3.1,0-4.7c0.3-2.8-0.2-4.6-3.7-4c-1.4,0.2-2.7-0.4-2.6-2.1
		c0-1.7,1.3-2.4,2.7-2.2c3.7,0.4,3.9-1.8,3.6-4.5c-0.1-1.4,0-2.9,0-4.3c0-1.2,0.8-2,1.9-2.1c1.3-0.1,2.2,0.7,2.4,2.1
		c0.1,1.2,0.2,2.3,0.1,3.5c-0.1,3-0.4,5.9,4.1,5.4c1.3-0.1,2.2,0.9,2,2.3c-0.1,1.4-1.1,2.1-2.4,1.9c-3.4-0.5-4,1.3-3.7,4.1
		c0.1,1.5,0,3.1-0.1,4.7C387.8,155.6,387.2,156.5,385.7,156.5z"/>
	<path class="st0" d="M927.4,159.3c-0.4,2-1.9,2.1-3.3,1.9c-2.5-0.3-3.2,0.9-3,3.2c0.1,1.8,0,3.7,0,5.5c0,1.3-0.6,2.3-2,2.4
		c-1.7,0.1-2.3-1-2.4-2.5c-0.1-1.8-0.2-3.7,0-5.5c0.2-2.4-0.6-3.4-3.1-3.1c-1.5,0.2-3.1,0-3.1-2c0-1.9,1.5-2.3,3-2.1
		c2.8,0.4,3.4-1,3.2-3.4c-0.1-1.4,0-2.9,0-4.3c0-1.7,0.1-3.3,2.4-3.3c2.3,0.1,2.1,1.9,2.1,3.5c0,0.8,0,1.6,0,2.4
		c-0.1,2.9-0.6,6,4.1,5.2C926.5,157,927.4,158,927.4,159.3z"/>
	<path class="st0" d="M267.8,265.1c1.2,0.2,1.8,0.9,1.9,2.1c0,1.6,0.1,3.2,0,4.7c-0.2,2.7,0,4.7,3.6,4.1c1.4-0.2,2.7,0.4,2.7,2.1
		c0.1,1.9-1.3,2.6-2.9,2.3c-3.3-0.5-3.8,1.2-3.5,3.9c0.1,1.2,0,2.4,0,3.5c0,1.6,0.2,3.5-2,3.6c-2.5,0-2.2-2.1-2.2-3.8
		c0-0.8-0.1-1.6,0-2.4c0.3-3,0.3-5.6-4-4.9c-1.3,0.2-2.2-0.7-2.2-2.2c0-1.4,1-2.4,2.3-2.1c4.5,0.8,4.1-2.1,4-5c-0.1-1.3,0-2.6,0-3.9
		C265.7,265.8,266.4,265.1,267.8,265.1z"/>
	<path class="st0" d="M29.7,156.5c4.3,0,8.6,0,13,0c1.7,0,3.7-0.2,3.7,2.3c0,2.1-1.8,2.3-3.4,2.3c-8.9,0-17.8,0-26.7,0
		c-1.6,0-3.5-0.1-3.5-2.2c-0.1-2.4,1.9-2.4,3.7-2.4C20.8,156.5,25.3,156.5,29.7,156.5z"/>
	<path class="st0" d="M312,276.6c4.4,0,8.9,0,13.3,0c1.7,0,3.4,0.1,3.4,2.2c0,2.2-1.8,2.3-3.4,2.3c-8.9,0-17.8,0-26.7,0
		c-1.7,0-3.8-0.1-3.7-2.5c0.1-2,2-2.1,3.6-2.1C303.1,276.6,307.6,276.6,312,276.6z"/>
	<path class="st0" d="M299.4,32.1c4.4,0,8.9,0,13.3,0c1.6,0,3.4,0,3.4,2.2c0,2.3-1.8,2.3-3.4,2.3c-8.9,0-17.8,0-26.7,0
		c-1.8,0-3.7-0.1-3.6-2.5c0.1-2.1,2-2,3.6-2C290.5,32.1,294.9,32.1,299.4,32.1z"/>
	<path class="st0" d="M659.6,112.7c0,1.7-1.1,2.4-2.5,2.2c-3.7-0.6-4.1,1.5-3.8,4.3c0.1,1.6,0,3.1,0,4.7c0,1.2-0.6,2.1-1.8,2.1
		c-1.3,0.1-2.3-0.6-2.3-2.1c0-1.2-0.1-2.4,0-3.5c0.1-3.2,0.6-6.6-4.5-5.6c-1.2,0.2-1.8-0.8-1.7-2.1c0.1-1.2,0.8-2.1,2-1.9
		c4.9,0.8,4.2-2.4,4.3-5.5c0.1-1.9-1.4-5.3,1.9-5.4c3.9-0.1,2,3.5,2.1,5.4c0.2,3.1-0.4,6.2,4.4,5.4
		C658.8,110.6,659.5,111.5,659.6,112.7z"/>
	<path class="st0" d="M1058,321.4c0.1-4.1,3.2-7,7.3-6.9c4.1,0.1,7,3.3,6.8,7.4c-0.2,3.9-3.1,6.7-7.1,6.7
		C1060.9,328.6,1057.9,325.5,1058,321.4z"/>
	<path class="st0" d="M1066.6,41.2c0-1.6,0-3.1,0-4.7c0-1.5,0.7-2.2,2.1-2.2c1.2,0.1,1.9,0.8,1.8,2c0,3.5,0,7,0,10.6
		c0,1.5-0.7,2.2-2.1,2.2c-1.5-0.1-1.9-1.1-1.8-2.4C1066.7,44.8,1066.6,43,1066.6,41.2z"/>
	<path class="st0" d="M408.7,188.2c0,1.4,0,2.9,0,4.3c0,1.3-0.6,2-1.9,2c-1.4,0.1-2.1-0.7-2.1-2.2c0-2.7,0-5.5,0-8.2
		c0-1.3,0.6-2,1.8-2c1.4,0,2.2,0.7,2.1,2.2C408.7,185.6,408.7,186.9,408.7,188.2C408.7,188.2,408.7,188.2,408.7,188.2z"/>
	<path class="st0" d="M345.9,204.8c0-1.4,0-2.9,0-4.3c0-1.3,0.8-1.9,2-1.9c1.2,0,2,0.6,2,1.9c0,2.7,0,5.5,0,8.2c0,1.4-0.6,2.3-2,2.3
		c-1.5,0-2-0.9-2-2.3C345.9,207.4,345.9,206.1,345.9,204.8C345.9,204.8,345.9,204.8,345.9,204.8z"/>
	<path class="st0" d="M404.8,204.7c0-1.2,0-2.4,0-3.5c-0.1-1.5,0.4-2.6,2.1-2.5c1.5,0.1,1.9,1.1,1.8,2.4c-0.1,2.5-0.1,5,0,7.4
		c0,1.5-0.4,2.6-2.1,2.5c-1.5-0.1-1.9-1.1-1.8-2.4C404.8,207.3,404.8,206,404.8,204.7z"/>
	<path class="st0" d="M349.8,188.3c0,1.4,0,2.9,0,4.3c0,1.3-0.8,1.9-2,1.9c-1.2,0-1.9-0.6-1.9-1.9c0-2.7,0-5.5,0-8.2
		c0-1.4,0.6-2.3,2-2.3c1.4,0,2,0.9,2,2.3C349.7,185.7,349.8,187,349.8,188.3C349.8,188.3,349.8,188.3,349.8,188.3z"/>
	<path class="st0" d="M809.6,89c0-1.4,0-2.9,0-4.3c0-1.1,0.8-1.6,1.8-1.7c1.2,0,2.1,0.4,2.1,1.8c0,2.9,0,5.7,0,8.6
		c0,1.3-0.6,2-1.8,2.1c-1.4,0.1-2.2-0.7-2.1-2.1C809.6,91.9,809.6,90.5,809.6,89C809.6,89,809.6,89,809.6,89z"/>
	<path class="st0" d="M872.5,89.6c0,1.3,0,2.6,0,3.9c0,1.3-0.7,2-1.9,2c-1.2,0-2-0.5-2-1.8c0-2.9,0-5.7,0-8.6c0-1.3,0.7-2,1.9-2
		c1.4,0,2.1,0.8,2.1,2.2C872.5,86.7,872.5,88.1,872.5,89.6C872.5,89.6,872.5,89.6,872.5,89.6z"/>
	<path class="st0" d="M556.8,433.1c1.4,0,2.9,0,4.3,0c0,0,0,0,0,0c1.4,0,2.9,0,4.3,0"/>
	<path class="st0" d="M813.5,72.4c0,1.4,0.1,2.9,0,4.3c-0.1,1.1-1,1.5-2,1.5c-0.9,0-1.9-0.4-1.9-1.6c0-2.7,0-5.5,0-8.2
		c0-1.3,0.8-1.9,2-1.9c1.2,0,2,0.6,1.9,2C813.5,69.8,813.5,71.1,813.5,72.4C813.5,72.4,813.5,72.4,813.5,72.4z"/>
	<path class="st0" d="M868.6,72.4c0-1.3,0-2.6,0-3.9c0-1.3,0.8-1.9,2-1.9c1.2,0,2,0.6,2,1.9c0,2.3,0,4.7,0,7c0,1.5-0.2,2.7-2,2.7
		c-1.8,0-2-1.2-2-2.7C868.6,74.5,868.6,73.4,868.6,72.4C868.6,72.4,868.6,72.4,868.6,72.4z"/>
	<path class="st0" d="M1075.1,243c1.8,0.4,2.5,1.9,1.4,3.4c-1.3,1.9-3.1,3.6-5,4.8c-1.7,1.1-3-0.1-3.2-2
		C1068.3,247.8,1073.5,242.9,1075.1,243z"/>
	<path class="st0" d="M1068.5,244.9c0.1,1.7-4.8,6.8-6.3,6.6c-1.8-0.2-2.7-1.4-1.9-3c1.1-2.2,3-4,5.1-5.3
		C1067,242.3,1068.1,243.3,1068.5,244.9z"/>
	<path class="st0" d="M840,411.8c-2-0.3-3.4-1.4-3.4-3.3c0-2,1.3-3.4,3.5-3.3c2,0.1,3.1,1.5,3.1,3.3
		C843.1,410.4,841.7,411.5,840,411.8z"/>
	<path class="st0" d="M241.2,82.7c2.1,0.4,3.3,1.4,3.3,3.4c0,2-1.2,3.2-3.1,3.2c-2.1,0-3.3-1.2-3.2-3.5
		C238.3,83.7,239.7,83,241.2,82.7z"/>
	<path class="st0" d="M1007.6,292.5c-0.3,1.9-1.2,3.1-3.2,3.2c-2.1,0.1-3.2-1.1-3.3-3c-0.1-2.1,1-3.4,3.3-3.4
		C1006.4,289.4,1007.2,290.7,1007.6,292.5z"/>
	<path class="st0" d="M46,190.4c-2.5,0-3.8-1-3.8-3c-0.1-1.9,0.9-3.3,3-3.4c2-0.1,3.3,1,3.4,3C48.7,189,47.5,190.1,46,190.4z"/>
	<path class="st0" d="M685.1,397.8c-0.3,1.9-1.1,3.2-3.2,3.2c-2,0-3.3-1.1-3.3-3c0-2,1.2-3.4,3.4-3.4
		C684,394.7,684.8,396,685.1,397.8z"/>
	<path class="st0" d="M961.2,364.2c-0.2,2-1.4,3.2-3.3,3.2c-2.1,0-3.4-1.4-3.3-3.5c0.1-1.9,1.4-3.1,3.4-3
		C960,361,961,362.3,961.2,364.2z"/>
	<path class="st0" d="M415.1,364.3c0.2-2,1.2-3.3,3.2-3.3c2-0.1,3.2,1.2,3.3,3.1c0.1,2-1.2,3.3-3.1,3.3
		C416.6,367.4,415.4,366.3,415.1,364.3z"/>
	<path class="st0" d="M761.9,321.1c-1.7-0.2-3.1-1.1-3.2-3.1c-0.1-2,1-3.3,3-3.3c2-0.1,3.3,1.1,3.4,3.1
		C765.2,319.7,764.1,320.8,761.9,321.1z"/>
	<path class="st0" d="M300.4,411.8c-1.8-0.3-3.2-1.1-3.3-3.2c-0.1-2.1,1.2-3.2,3.1-3.3c1.9-0.1,3.2,1,3.3,3.1
		C303.6,410.5,302.3,411.3,300.4,411.8z"/>
	<path class="st0" d="M119.2,407.2c1.9,0.3,3.2,1.3,3.2,3.3c0,2.1-1.4,3.4-3.5,3.3c-1.9-0.1-3-1.4-3-3.3
		C116,408.4,117.3,407.5,119.2,407.2z"/>
	<path class="st0" d="M567,134.5c-0.2,2-1.2,3.2-3.3,3.1c-2-0.1-3.2-1.3-3.1-3.3c0-2,1.2-3.1,3.3-3.1
		C566,131.3,566.8,132.6,567,134.5z"/>
	<path class="st0" d="M225.6,317.8c-0.1,2.1-1.3,3.1-3.3,3.1c-2,0-3.1-1.2-3.1-3.2c0-2,1.3-3.1,3.3-3.1
		C224.5,314.6,225.5,315.9,225.6,317.8z"/>
	<path class="st0" d="M588.9,375.7c2.4,0.1,3.4,1.4,3.3,3.3c-0.1,2-1.3,3.1-3.3,3.1c-2.1-0.1-3.2-1.4-3.1-3.3
		C585.9,376.9,587.2,375.8,588.9,375.7z"/>
	<path class="st0" d="M157.1,141.9c-2-0.2-3.2-1.2-3.1-3.3c0-2.1,1.3-3.2,3.2-3.2c1.9,0,3.2,1.3,3.2,3.3
		C160.3,140.7,159,141.8,157.1,141.9z"/>
	<path class="st0" d="M874.8,174.2c-0.2,2.2-1.1,3.4-3.2,3.5c-2.1,0-3.2-1.1-3.3-3.1c-0.1-2,1-3.2,3.1-3.3
		C873.5,171.2,874.4,172.6,874.8,174.2z"/>
	<path class="st0" d="M38.1,307.1c-0.3,2.2-1.4,3.5-3.4,3.4c-2-0.1-3.2-1.3-3.1-3.3c0.1-2,1.3-3.1,3.4-3
		C37.1,304.2,37.8,305.6,38.1,307.1z"/>
	<path class="st0" d="M1030.6,125.8c-0.1,2.5-1.4,3.5-3.3,3.4c-2-0.1-3.2-1.3-3.1-3.3c0.1-2,1.3-3.2,3.3-3.1
		C1029.5,122.9,1030.6,124.2,1030.6,125.8z"/>
	<path class="st0" d="M707.1,118.6c2.1,0.1,3.2,1.3,3.2,3.2c0,2-1.3,3.3-3.5,3.2c-2.1-0.1-3-1.4-2.9-3.3
		C704,119.8,705.1,118.6,707.1,118.6z"/>
	<path class="st0" d="M487,404.3c-0.3,2.1-1.4,3.2-3.5,3c-2.1-0.1-3.2-1.4-3-3.3c0.1-1.9,1.4-3.2,3.4-3
		C485.9,401.1,486.8,402.4,487,404.3z"/>
	<path class="st0" d="M369.8,36.3c1.9,0.2,3.2,1.2,3.4,3.1c0.1,2.2-1.2,3.4-3.3,3.4c-1.9,0-3.1-1.3-3.2-3.2
		C366.7,37.7,368,36.7,369.8,36.3z"/>
	<path class="st0" d="M467.9,292.4c-0.1,2.1-1.1,3.3-3.2,3.3c-2,0-3.2-1.2-3.2-3.2c0-2,1.2-3.2,3.2-3.2
		C466.8,289.3,467.8,290.5,467.9,292.4z"/>
	<path class="st0" d="M780.9,82.7c1.9,0.4,3.2,1.5,3.1,3.5c-0.1,2-1.4,3.2-3.4,3c-2-0.1-3.2-1.4-3.1-3.4
		C777.7,83.8,779.1,82.9,780.9,82.7z"/>
	<path class="st0" d="M1026.5,404c-0.2,1.9-1,3.2-3.1,3.3c-2.1,0.1-3.3-0.8-3.3-2.9c-0.1-2,1-3.3,3-3.4
		C1025,400.9,1026.1,402.1,1026.5,404z"/>
	<path class="st0" d="M995.7,190.2c2.2,0.4,3.3,1.4,3.3,3.4c-0.1,2-1.4,3.1-3.3,3c-2-0.1-3.1-1.3-3-3.3
		C992.7,191.3,994.1,190.4,995.7,190.2z"/>
	<path class="st0" d="M497.6,119.8c-0.4,1.9-1.4,3.1-3.4,3c-2-0.1-3.1-1.2-3-3.3c0.1-2.1,1.3-3.1,3.3-3.1
		C496.4,116.6,497.4,117.9,497.6,119.8z"/>
	<path class="st0" d="M314.9,177.6c2,0.1,3.3,1,3.4,3c0.1,2-1,3.2-3,3.3c-2,0.1-3.3-0.9-3.3-3C311.9,179.1,312.9,177.9,314.9,177.6z
		"/>
	<path class="st0" d="M78.4,92.8c-5.1,0.1-8.5-3.2-8.5-8.2c0-5,3.3-8.3,8.3-8.3c4.9,0,8.2,3.2,8.3,8C86.7,89.3,83.4,92.7,78.4,92.8z
		"/>
	<path class="st0" d="M86.5,65.6c0,5-3.3,8.4-8.3,8.4c-5,0-8.4-3.4-8.3-8.3c0-4.8,3.3-8.1,8.1-8.2C83.1,57.4,86.5,60.6,86.5,65.6z"
		/>
	<path class="st0" d="M77.8,44.8c-2.1,0-4.2,0-6.3,0c-1.3,0-1.9-0.8-1.9-2c0-1.2,0.6-1.9,2-1.9c4.2,0,8.4,0,12.5,0
		c1.3,0,2,0.9,1.9,2c0,1.1-0.7,1.9-2,1.9C82,44.8,79.9,44.8,77.8,44.8z"/>
	<path class="st0" d="M77.8,38.5c-2.1,0-4.2,0-6.3,0c-1.3,0-1.9-0.8-1.9-2c0-1.2,0.6-1.9,1.9-1.9c4.2,0,8.4,0,12.5,0
		c1.3,0,2,0.9,2,2c0,1.1-0.7,2-2,1.9C82,38.5,79.9,38.5,77.8,38.5z"/>
	<path class="st0" d="M77.7,28.3c2,0,3.9,0,5.9,0c1.4,0,2.4,0.4,2.5,1.9c0.1,1.4-0.8,2.1-2.2,2.1c-4,0-8.1,0-12.1,0
		c-1.3,0-2-0.6-2-1.8c-0.1-1.4,0.7-2.1,2.2-2.1C73.8,28.4,75.7,28.3,77.7,28.3z"/>
	<path class="st0" d="M78.1,22.1c1.4,0,2.9,0,4.3,0c1.3,0,2,0.7,2.1,1.8c0.1,1.4-0.8,2.1-2.2,2.1c-2.7,0-5.5,0-8.2,0
		c-1.3,0-2-0.6-2.1-1.8c-0.1-1.4,0.7-2.2,2.2-2.1C75.5,22.1,76.8,22.1,78.1,22.1z"/>
	<path class="st0" d="M78.2,47.2c1.4,0,2.9,0,4.3,0c1.3,0,2,0.8,2,1.9c0,1.1-0.6,2-2,2c-2.7,0-5.5,0-8.2,0c-1.4,0-2.3-0.5-2.3-2
		c0-1.4,0.9-2,2.3-2C75.6,47.3,76.9,47.2,78.2,47.2C78.2,47.2,78.2,47.2,78.2,47.2z"/>
	<path class="st0" d="M10.6,47.1c-0.2,1.4-0.9,2.2-2.3,2.1c-1.1-0.1-2-0.7-2-2c0-1.4,0.7-2.2,2.1-2.3C9.9,44.8,10.5,45.8,10.6,47.1z
		"/>
	<path class="st0" d="M22.8,57.6c0-9.6,0.1-19.1-0.1-28.7c0-2.4,0.7-3.1,3.1-3.1c9,0.1,18.1,0,27.1,0.1c5.9,0,8.3,2.5,8.3,8.4
		c0,15.6,0,31.1,0,46.7c0,6-2.3,8.4-8.2,8.5c-9,0.1-18.1-0.1-27.1,0.1c-2.8,0.1-3.1-1.1-3.1-3.4C22.9,76.7,22.8,67.2,22.8,57.6z"/>
	<path class="st0" d="M43.9,241.8c0,10.9-9.2,20-20.1,19.9C13,261.6,4.1,252.6,4,241.9c-0.1-10.9,9-20,20-20
		C34.9,221.8,43.9,230.9,43.9,241.8z"/>
	<path class="st0" d="M512.6,57.4c2.4-4.9,4.7-9.1,6.7-13.5c0.7-1.6,1.9-1.5,3.2-1.5c31,0,62,0,93,0c1.6,0,2.7,0.3,3.4,1.9
		c1.7,3.7,3.5,7.3,5.4,10.9c1,1.9,0.3,2.3-1.5,2.2c-0.1,0-0.3,0-0.4,0C586.1,57.4,549.8,57.4,512.6,57.4z"/>
	<path class="st0" d="M568.9,38.6c-14.9,0-29.9-0.1-44.8,0.1c-3.7,0.1-4-1.4-3.8-4.3c0.1-2.5-0.4-4.5,3.6-4.5
		c30.1,0.2,60.2,0.2,90.3,0c4,0,3.5,2,3.6,4.5c0.1,2.9-0.1,4.4-3.8,4.3C599,38.4,583.9,38.6,568.9,38.6z"/>
	<path class="st0" d="M515.7,21.4c35.7,0,71,0,106.8,0c-2,3.1-4,4.7-7.8,4.7c-30.1-0.2-60.2-0.2-90.4,0
		C520.5,26.1,517.8,25.1,515.7,21.4z"/>
	<path class="st0" d="M568.9,97.5c-17.8,0-35.6,0-53.4-0.1c-1.3,0-3.6,1.3-3.8-1.8c-0.1-3.1,2.2-2,3.6-2c35.9-0.1,71.8-0.1,107.7,0
		c1.4,0,3.7-1.1,3.6,2c-0.1,3.1-2.4,1.8-3.8,1.8C604.8,97.5,586.8,97.5,568.9,97.5z"/>
	<path class="st0" d="M569.3,80.2c17.9,0,35.9,0,53.8,0c1.2,0,3.2-1.1,3.3,1.4c0.1,2.6-1.9,1.6-3.1,1.6c-36.2,0-72.3,0-108.5,0
		c-1.2,0-3.2,0.9-3.1-1.6c0.1-2.5,2.1-1.4,3.3-1.4C533.1,80.2,551.2,80.2,569.3,80.2z"/>
	<path class="st0" d="M569.1,67.6c17.8,0,35.6,0,53.4,0c0.9,0,1.8,0,2.7,0c0.7,0,1.2,0.3,1.3,1.1c0,0.8-0.4,1.2-1.2,1.2
		c-0.9,0-1.8,0-2.7,0c-35.6,0-71.2,0-106.7-0.1c-1.3,0-3.8,1.1-3.8-1.1c0-2.3,2.5-1.1,3.8-1.1C533.5,67.6,551.3,67.6,569.1,67.6z"/>
	<path class="st0" d="M568.7,63.7c-17.7,0-35.3,0-53,0c-0.9,0-1.8,0-2.7,0c-0.7,0-1.2-0.3-1.2-1.2c0-0.8,0.5-1.1,1.2-1.1
		c0.9,0,1.8,0,2.7,0c35.6,0,71.2,0,106.7,0c0.4,0,0.8-0.1,1.2,0c1,0.2,2.7-0.7,2.7,1.2c0,1.9-1.8,1.1-2.7,1.1
		C605.3,63.7,587,63.7,568.7,63.7z"/>
	<path class="st0" d="M569.5,87.3c17.7,0,35.3,0,53,0c0.9,0,1.8,0,2.7,0c0.8,0,1.2,0.4,1.2,1.2c0,0.8-0.6,1.1-1.3,1.1
		c-0.9,0-1.8,0-2.7,0c-35.6,0-71.2,0-106.7,0c-0.4,0-0.8,0.1-1.2,0c-1-0.2-2.7,0.7-2.7-1.2c0.1-1.9,1.8-1.1,2.8-1.1
		C532.9,87.3,551.2,87.3,569.5,87.3z"/>
	<path class="st0" d="M568.7,76.3c-17.7,0-35.3,0-53,0c-0.9,0-1.8,0-2.7,0c-0.8,0-1.2-0.3-1.2-1.2c0-0.8,0.5-1.1,1.3-1.1
		c0.9,0,1.8,0,2.7,0c35.6,0,71.2,0,106.7,0c0.4,0,0.8-0.1,1.2,0c1,0.2,2.7-0.7,2.7,1.2c0,1.9-1.8,1.1-2.8,1.1
		C605.3,76.3,587,76.3,568.7,76.3z"/>
	<path class="st0" d="M626.4,24.8c0,8,0,15.5,0,23.1C620,40.5,619.8,30.2,626.4,24.8z"/>
	<path class="st0" d="M512,25.4c6.3,4.8,6.4,12.1,0,22.6C512,40.2,512,33,512,25.4z"/>
	<path class="st0" d="M387.3,341.8c-37.8,0-75.1,0-112.9,0c2.4-4.7,4.6-9.1,6.8-13.5c0.7-1.4,1.8-1.2,3-1.2c31.1,0,62.3,0,93.4,0
		c1.2,0,2.3-0.2,3,1.3C382.7,332.8,385,337.1,387.3,341.8z"/>
	<path class="st0" d="M331,323.1c-15.2,0-30.4-0.2-45.6,0.1c-4,0.1-3.2-2.2-3.2-4.5c0-2.3-0.7-4.4,3.3-4.4c30.2,0.2,60.5,0.2,90.7,0
		c4.2,0,3.3,2.3,3.5,4.7c0.2,2.6,0.1,4.3-3.5,4.2C361.1,323,346,323.1,331,323.1z"/>
	<path class="st0" d="M384.2,306.1c-1.9,3.6-4.7,4.5-8.5,4.5c-29.9-0.1-59.7-0.1-89.6,0c-3.8,0-6.5-0.9-8.5-4.5
		C313.1,306.1,348.5,306.1,384.2,306.1z"/>
	<path class="st0" d="M331.1,378.1c17.9,0,35.9,0,53.8,0c1.3,0,3.3-1,3.4,1.8c0.1,2.7-1.8,2-3.2,2c-36.2,0-72.3,0-108.5,0
		c-1.4,0-3.3,0.7-3.2-2c0.1-2.8,2.1-1.8,3.4-1.8C295,378.1,313,378.1,331.1,378.1z"/>
	<path class="st0" d="M330.7,374.2c-17.9,0-35.9,0-53.8,0c-1.2,0-3.2,1.1-3.3-1.4c-0.1-2.6,1.9-1.6,3.1-1.6c36.2,0,72.3,0,108.5,0
		c1.2,0,3.2-0.9,3.1,1.6c-0.1,2.5-2.1,1.4-3.3,1.4C366.9,374.2,348.8,374.2,330.7,374.2z"/>
	<path class="st0" d="M330.9,360.8c-17.8,0-35.6,0-53.4,0c-0.9,0-1.8,0-2.7,0c-0.8,0-1.2-0.4-1.2-1.2c0-0.8,0.6-1.1,1.3-1.1
		c0.9,0,1.8,0,2.7,0c35.6,0,71.2,0,106.7,0c0.4,0,0.8-0.1,1.2,0c1,0.2,2.7-0.7,2.7,1.2c-0.1,1.8-1.8,1.1-2.8,1.1
		C367.2,360.8,349,360.8,330.9,360.8z"/>
	<path class="st0" d="M330.9,364.8c17.8,0,35.6,0,53.4,0c0.9,0,1.8,0,2.7,0c0.7,0,1.2,0.3,1.2,1.1c0,0.8-0.5,1.1-1.2,1.2
		c-0.9,0-1.8,0-2.7,0c-35.6,0-71.2,0-106.7,0c-0.3,0-0.5,0.1-0.8,0c-1.1-0.3-3.1,0.9-3.1-1.2c0-2.1,2-1.1,3.1-1.1
		C294.8,364.7,312.9,364.8,330.9,364.8z"/>
	<path class="st0" d="M331,348.3c-17.7,0-35.3,0-53,0c-0.9,0-1.8,0-2.7,0c-0.8,0-1.6,0-1.7-1.1c0-1.1,0.8-1.2,1.6-1.2
		c0.8,0,1.6,0,2.4,0c35.6,0,71.2,0,106.7,0.1c1.3,0,3.8-1.1,3.8,1.1c0,2.4-2.5,1.1-3.8,1.1C366.5,348.3,348.7,348.3,331,348.3z"/>
	<path class="st0" d="M331,354.5c-17.7,0-35.3,0-53,0c-0.9,0-1.8,0-2.7,0c-0.8,0-1.6,0-1.7-1.1c0-1.1,0.8-1.2,1.6-1.2
		c0.8,0,1.6,0,2.4,0c35.6,0,71.2,0,106.7,0.1c1.3,0,3.8-1.1,3.8,1.1c0.1,2.4-2.5,1.1-3.7,1.2C366.5,354.6,348.8,354.5,331,354.5z"/>
	<path class="st0" d="M388.2,309.2c0,8.1,0,15.6,0,23.2C381.8,324.2,381.6,315,388.2,309.2z"/>
	<path class="st0" d="M273.7,333.1c0-8.3,0-15.8,0-23.4C280.3,314.1,280.3,321.3,273.7,333.1z"/>
	<path class="st0" d="M211.5,221.7c10.6,0,21.2,0.1,31.8-0.1c3.1-0.1,3.7,0.9,3.6,3.8c-0.2,5-0.2,10,0,14.9c0.1,2.1-0.6,2.7-2.7,2.7
		c-20.3-0.1-40.6-0.1-60.9,0c-2,0-2.7-0.8-3.2-2.5c-1.3-5.3-2.6-10.7-4-16c-0.6-2.3,0-2.8,2.3-2.8
		C189.5,221.8,200.5,221.7,211.5,221.7z"/>
	<path class="st0" d="M217.3,211.5c-8.8,0-17.5-0.1-26.3,0.1c-2.6,0-3.4-0.8-3.2-3.3c0.2-3,0.2-6,0-9c-0.1-2,0.5-2.7,2.6-2.7
		c17.9,0.1,35.9,0.1,53.8,0c2.1,0,2.8,0.7,2.6,2.7c-0.3,4,1.7,9.2-0.9,11.6c-2,1.9-7.2,0.6-11,0.6
		C229.1,211.5,223.2,211.5,217.3,211.5z"/>
	<path class="st0" d="M264.6,196.6c3.7,0,7.3,0.1,11,0c1.9-0.1,2.8,0.4,2.8,2.6c-0.1,5.4-0.1,10.7,0,16.1c0,1.7-0.2,2.7-2.3,2.6
		c-7.7-0.1-15.4-0.1-23.1,0c-1.8,0-2.2-0.8-2.1-2.4c0.1-5.5,0.1-11,0-16.5c0-1.9,0.6-2.5,2.5-2.4C257,196.6,260.8,196.6,264.6,196.6
		z"/>
	<path class="st0" d="M210.3,217.8c-10.9,0-21.7-0.1-32.6,0.1c-2.6,0-3.3-0.7-3.3-3.3c0.2-5,0.2-9.9,0-14.9c-0.1-2.3,0.4-3.2,3-3.2
		c6.5,0,6.5-0.1,6.5,6.3c0,2.6,0.2,5.3-0.1,7.8c-0.4,3.7,0.8,5,4.7,4.9c18-0.2,36.1-0.1,54.1,0c1.3,0,3.8-1.1,3.8,1.1
		c0,2.3-2.5,1.1-3.8,1.1C232,217.8,221.1,217.8,210.3,217.8z"/>
	<path class="st0" d="M264.5,242.9c-3.7,0-7.3-0.1-11,0c-1.9,0.1-2.8-0.3-2.8-2.5c0.1-5.5,0.1-11,0-16.5c0-1.7,0.5-2.3,2.2-2.3
		c7.7,0.1,15.4,0.1,23.1,0c1.8,0,2.2,0.7,2.2,2.3c-0.1,5.5-0.1,11,0,16.5c0,1.9-0.6,2.5-2.4,2.5C272,242.8,268.3,242.9,264.5,242.9z
		"/>
	<path class="st0" d="M293.2,207.5c0,0.9,0,1.8,0,2.7c0,7.8-1.7,9.1-9.4,7.6c-1.1-0.2-1.6-0.6-1.6-1.7c0-5.9,0-11.8,0-17.6
		c0-0.8-0.1-1.8,1-1.8c3-0.1,6-0.1,9,0c1.3,0.1,0.9,1.4,1,2.2C293.2,201.7,293.2,204.6,293.2,207.5z"/>
	<path class="st0" d="M292.5,221.7c-1.7,6.7-3.4,12.8-4.7,18.8c-0.5,2.3-1.8,2.4-3.6,2.4c-2.4,0.1-1.9-1.6-1.9-2.9
		c0-5.2,0.1-10.4,0-15.6c0-1.9,0.4-2.9,2.6-2.7C287.2,221.8,289.6,221.7,292.5,221.7z"/>
	<path class="st0" d="M883.8,331.7c-1.6,6.4-1.7,6.5-7.5,7c-8.9,0.9-17.7,1.6-26.5,2.8c-2.6,0.3-4.3-0.1-5.4-2.5
		c-1.2-2.8-3.2-3.6-6.2-3.5c-6.9,0.3-13.9,0.1-21.4,0.1c1.5-3.5,2.8-6.6,4.1-9.8c0.7-1.7,2.2-1.2,3.4-1.2c8.4,0,16.8,0.1,25.1-0.1
		c2.3,0,3.8,0.6,4.5,2.7c1.4,3.7,4,4.7,8,4.5C869.1,331.5,876.4,331.7,883.8,331.7z"/>
	<path class="st0" d="M823.6,339.6c4.9,0,9.3,0,13.7,0c3.2,0,5.9,3.6,5,6.7c-2.8,8.7-5.7,17.3-8.6,26c-0.4,1.2-0.9,2-2.4,1.9
		c-5.2-0.1-10.4-0.1-15.7,0c-2,0-1.9-0.8-1.6-2.4c1.1-4.7,3.7-8.6,6.5-12.4C824.8,353.4,827.7,347.3,823.6,339.6z"/>
	<path class="st0" d="M872.6,318.4c19.3,0,38,0,56.7,0c1.8,0,2.1,0.7,2.2,2.3c0.4,7.2,0.5,7.2-6.7,7.2c-13.7,0-27.5-0.2-41.2,0.1
		c-3.9,0.1-6.4-1-7.9-4.5C874.9,321.9,873.9,320.5,872.6,318.4z"/>
	<path class="st0" d="M856,322.3c-1.2-1.5-2.7-1.6-4.4-1.6c-8.1,0.1-16.2,0-24.2,0c-0.1-2,0.9-2.4,2.5-2.4c7.6,0,15.1,0,22.7,0
		C855.2,318.4,856.2,319.8,856,322.3L856,322.3z"/>
	<path class="st0" d="M844.1,354.2c0.8-2.4,1.7-4.6,2.3-7c0.5-1.9,1.9-1.4,3.1-1.4c1.4,0,0.8,1.3,0.9,2.1c0,0.4,0,0.8,0,1.2
		C850.3,354.9,850.3,354.9,844.1,354.2z"/>
	<path class="st0" d="M855.9,322.3c1.9,1.1,1.9,1.1,2.9,3.9C856.8,325.4,856.6,323.7,855.9,322.3L855.9,322.3z"/>
	<path class="st0" d="M1003,71.9c0,11.7-0.1,23.3,0.1,35c0,2.6-0.7,3.6-3.3,3.2c-3.9-0.7-4.9,1.2-4.7,4.9c0.2,3.2,1.5,7.4-0.6,9.4
		c-2,2-6.2,0.6-9.4,0.6c-9.2,0.1-18.3,0-27.5,0.1c-2.5,0-3.6-0.5-3.3-3.2c0.2-2.9-0.1-5.8,0.1-8.6c0.1-2.4-0.9-3.2-3.2-3.2
		c-4.7,0.1-9.4,0.1-14.1,0c-2.5-0.1-3.2,1-3.1,3.3c0.1,3.1-0.1,6.3,0.1,9.4c0.2,3-1.9,2.1-3.4,2.2c-1.7,0.1-3.1,0.1-2.9-2.3
		c0.2-3-0.1-6,0.1-9c0.2-2.8-0.9-3.6-3.6-3.6c-5.1,0.1-5.1-0.1-5.1-5.2c0-22.4,0.1-44.8-0.1-67.2c0-3.1,0.9-3.9,3.9-3.9
		c11.5,0.2,23,0.2,34.6,0c3.2-0.1,4.2,0.7,4.1,4c-0.2,17.7,0,35.4-0.2,53c0,3.5,1,4.5,4.5,4.4c7.6-0.2,15.2-0.3,22.8,0
		c3.6,0.1,4.4-1.2,4.4-4.5c-0.1-17.5,0-35.1-0.2-52.6c0-3.4,0.7-4.9,4.2-4.3c0.8,0.1,1.6,0.1,2.3,0c3.3-0.6,3.8,1,3.8,3.9
		C1002.9,49.1,1003,60.5,1003,71.9z"/>
	<path class="st0" d="M988.8,62.5c0,8.5-0.1,17,0.1,25.5c0.1,2.6-0.8,3.3-3.3,3.2c-5.9-0.2-11.8-0.1-17.7,0c-2,0-2.7-0.5-2.7-2.6
		c0.1-17.4,0.1-34.8,0-52.2c0-2.1,0.7-2.7,2.7-2.6c5.9,0.1,11.8,0.2,17.7,0c2.5-0.1,3.4,0.6,3.3,3.2C988.7,45.5,988.8,54,988.8,62.5
		z"/>
	<path class="st0" d="M944.1,125c-6.3,0-6,0-6.5-6.3c-0.4-4.7,1.8-4.9,5.4-4.8c7.4,0.2,7.2,0.1,7.4,7.4c0.1,3.3-1.1,4.1-4,3.7
		C945.7,124.9,944.9,125,944.1,125z"/>
	<path class="st0" d="M349.8,98.1c0,11.5-0.1,23,0.1,34.6c0,2.8-0.7,3.9-3.5,3.4c-3.8-0.7-4.6,1.1-4.5,4.6c0.2,9.5,0,9.5-9.4,9.5
		c-9.3,0-18.6-0.1-27.9,0.1c-3,0.1-4-0.9-3.6-3.7c0-0.1,0-0.3,0-0.4c0-10.1,0-10.1-10-10.1c-10.4,0-10.5,0-10.4,10.4
		c0,2.7-0.3,3.9-3.5,3.9c-3.4,0-4-1.3-3.7-4.1c0.2-1.4,0-2.9,0-4.3c0-5.5,0-5.6-5.6-5.8c-2-0.1-2.3-0.9-2.3-2.6
		c0-23.7,0.1-47.4,0-71.1c0-2.5,1.1-2.7,3-2.7c12,0.1,24.1,0.1,36.1,0c2.9,0,3.4,0.9,3.4,3.5c-0.1,17.5,0,35.1-0.1,52.6
		c0,3.4,0.8,4.6,4.3,4.5c7.6-0.3,15.2-0.2,22.8,0c3.4,0.1,4.5-0.9,4.5-4.4c-0.2-17.4,0-34.8-0.2-52.2c0-3.3,0.8-4.6,4.1-4
		c0.5,0.1,1.1,0.1,1.6,0c3.7-0.7,4.9,0.6,4.8,4.5C349.6,75.5,349.8,86.8,349.8,98.1z"/>
	<path class="st0" d="M312.1,87.7c0-8.2,0.1-16.5-0.1-24.7c-0.1-2.6,0.8-3.3,3.3-3.2c5.9,0.2,11.8,0.1,17.7,0c2,0,2.7,0.5,2.7,2.6
		c-0.1,17.1-0.1,34.3,0,51.4c0,2.1-0.7,2.7-2.7,2.6c-5.9-0.1-11.8-0.2-17.7,0c-2.5,0.1-3.4-0.6-3.3-3.2
		C312.2,104.7,312.1,96.2,312.1,87.7z"/>
	<path class="st0" d="M290.7,150.2c-6.2,0-6,0-6.3-6.5c-0.1-3.2,0.9-4.2,3.9-3.8c1,0.1,2.1,0,3.1,0c5.6,0,5.6,0,5.6,5.5
		C297.1,150.2,297.1,150.2,290.7,150.2z"/>
	<path class="st0" d="M789.1,276.7c-18.5,0-36.9-0.1-55.4,0.1c-3.1,0-4.3-0.6-4.2-4c0.2-24.1,0.1-48.2,0-72.3c0-3,0.6-4,3.8-4
		c36.9,0.1,73.9,0.1,110.8,0c3.4,0,4.1,1.1,4,4.2c-0.1,24-0.1,47.9,0,71.9c0,3.2-0.7,4.2-4.1,4.2
		C825.8,276.6,807.5,276.7,789.1,276.7z"/>
	<path class="st0" d="M788.2,280.7c15.7,0,31.4,0,47.1,0c1.6,0,3.4-0.7,3.4,2.3c0,2.8-1.5,2.5-3.3,2.5c-31.7,0-63.4,0-95.1,0
		c-1.8,0-3.3,0.2-3.2-2.5c0-2.9,1.9-2.2,3.4-2.2C756.5,280.6,772.4,280.7,788.2,280.7z"/>
	<path class="st0" d="M121.1,316.8c18.1,0,36.2,0.1,54.2-0.1c3.5,0,4.9,0.8,4.8,4.6c-0.2,15.3-0.2,30.7,0,46c0,3.3-0.8,4.6-4.4,4.6
		c-36.7-0.1-73.4-0.1-110,0c-3.2,0-4.4-0.8-4.3-4.2c0.2-15.6,0.2-31.2,0-46.8c0-3.3,1.1-4.2,4.3-4.2
		C84.1,316.9,102.6,316.8,121.1,316.8z"/>
	<path class="st0" d="M639.3,324.7c2.8,0,7,0.1,11.1,0c2.3-0.1,3,0.7,2.8,2.9c-0.1,1.5-0.8,3.8,2,3.8c2.4,0,1.7-2.1,1.9-3.5
		c0.2-1.1-1-3.1,1.3-2.9c1.8,0.1,0.8,1.9,1,2.9c0.3,1.4-0.6,3.5,1.8,3.6c2.7,0.1,1.9-2.1,2.1-3.7c0.2-1-0.8-2.8,1.1-2.8
		c2.2,0,1,2,1.2,3c0.2,1.5-0.4,3.4,2,3.5c2.1,0,2.2-1.7,1.9-3.1c-0.5-3.1,0.9-3.6,3.7-3.6c7.9,0.2,15.7-0.1,23.6,0.1
		c13.8,0.4,25.3,11.7,26.1,25.1c0.8,13.8-8.8,25.8-22.8,27.9c-9.9,1.4-18-2.5-24.3-9.9c-1.4-1.7-2.8-2.4-4.9-2.3
		c-6,0.1-12.1,0.1-18.1,0c-2.3-0.1-3.8,0.7-5.3,2.5c-7.4,8.9-19,12.2-29.3,8.5c-10.1-3.6-17.3-13.3-17.6-23.8
		c-0.4-11.6,6.1-21.6,16.6-26.1C624,323.8,631,325.1,639.3,324.7z"/>
	<path class="st0" d="M650.8,430.7c-0.1-1.7,0.5-2.3,2.2-2.3c18.5,0,36.9,0,55.4,0c1.8,0,2.3,0.7,2.2,2.3c0,0.1,0,0.3,0,0.4"/>
	<path class="st0" d="M714.5,431.1c0-2,0.5-2.8,2.6-2.7c3.8,0.2,7.6,0,11.4,0c3.5,0,7.1,0.1,10.6,0c2.1-0.1,3.1,0.3,3,2.7"/>
	<path class="st0" d="M638.2,431.5c-0.1-2.3,0.5-3.2,3-3.1c5.7,0.1,5.7-0.1,5.7,5.5"/>
	<path class="st0" d="M745.9,430.7c0-1.7,0.5-2.2,2.2-2.3"/>
	<path class="st0" d="M925,272.8c-10.1,0-20.2-0.1-30.2,0c-2.3,0-3.5-0.3-3.4-3.1c0.1-8-0.1-8,8-8c18.7,0,37.4,0.1,56.2-0.1
		c3,0,3.7,0.8,3.6,3.7c-0.2,7.4,0,7.4-7.4,7.4C942.8,272.8,933.9,272.8,925,272.8z"/>
	<path class="st0" d="M940,205.2c0,8.1-6.6,14.7-14.6,14.8c-8.2,0.1-15-6.6-15-14.8c0-8.2,6.8-14.9,15-14.8
		C933.4,190.5,940,197.1,940,205.2z"/>
	<path class="st0" d="M893.6,276.9c21.2,0,42,0,63.1,0c-1.5,3.9-3.1,6.4-8,6.3c-15.7-0.4-31.4-0.4-47,0
		C896.7,283.3,895.2,280.8,893.6,276.9z"/>
	<path class="st0" d="M922.8,235.7c0-3,0.1-6,0-9c0-1.7,0.2-2.7,2.3-2.6c1.8,0,2.5,0.5,2.5,2.4c-0.1,6.3-0.1,12.6,0,18.8
		c0,1.9-0.6,2.4-2.5,2.4c-2.1,0-2.3-0.9-2.3-2.6C922.9,241.9,922.8,238.8,922.8,235.7z"/>
	<path class="st0" d="M916.2,257.6c1-9.3,7.9-5.2,12.6-6c4.8-0.9,4.3,3.2,6,6C928.3,257.6,922.2,257.6,916.2,257.6z"/>
	<path class="st0" d="M949.7,255.5c1,0.4,3.1-0.8,2.8,1.4c-0.2,1.8-2.1,0.9-3.2,0.9c-1,0-3.1,0.9-2.8-1.3
		C946.8,254.6,948.6,255.9,949.7,255.5z"/>
	<path class="st0" d="M516.8,196.6c18.2,0,36.4,0.1,54.6-0.1c3.5,0,4.9,0.8,4.8,4.6c-0.2,15.3-0.2,30.7,0,46c0,3.3-0.7,4.6-4.3,4.6
		c-36.7-0.1-73.4-0.1-110,0c-3.1,0-4.4-0.8-4.3-4.2c0.2-15.6,0.2-31.2,0-46.8c0-3.3,1.1-4.2,4.3-4.2
		C480.1,196.6,498.5,196.6,516.8,196.6z"/>
	<path class="st0" d="M158,70.3c0-10.6,0-21.2,0-31.8c0-4.2-0.8-4.6-4.6-3.1c-1.1,0.4-2.2,0.9-3.3,1.4c-7.7,3.3-7.8,3.3-10.9-4.7
		c-1.1-3-4-6.3-2.7-9c1.2-2.4,5.5-2.5,8.4-3.6c6.2-2.4,12.2-5.3,19.2-4.5c2,0.2,2.8,0.7,3.5,2.6c2.9,8.2,9.2,12.4,18,12.4
		c8.4,0,14.8-4.4,17.6-12.4c0.7-2.1,1.6-2.4,3.6-2.6c9.9-0.9,18,4.7,27,7.3c1.6,0.5,1.1,1.7,0.6,2.9c-1.7,4.2-3.5,8.5-5,12.8
		c-0.7,1.8-1.5,2-3.2,1.2c-2.8-1.4-5.7-2.5-8.6-3.7c-3.9-1.6-4.7-1.1-4.7,3.1c0,21.2-0.1,42.4,0.1,63.7c0,3.2-0.6,4.2-4,4.2
		c-15.8-0.2-31.7-0.2-47.5,0c-3,0-3.7-0.8-3.6-3.7C158.1,91.8,158,81,158,70.3z"/>
	<path class="st0" d="M171.5,15.1c9.4,0,18.6,0,27.8,0c-1,6-6.1,10.3-12.6,10.8C179.4,26.4,173.7,22.4,171.5,15.1z"/>
	<path class="st0" d="M853.6,100.5c0,5,0.1,10,0,14.9c-0.1,2.6,0.9,3.6,3.4,3.3c0.8-0.1,1.6,0,2.4,0c8.7,0,8.8,0,9.2-8.6
		c0.1-1.4-0.1-2.5,2-2.5c2,0,2,1,2,2.5c0,3.8,0.1,7.6-0.1,11.4c-0.2,2.8,1,3.8,3.7,3.5c1-0.1,2.1,0.1,3.1,0c3.3-0.5,4.4,0.5,4.4,4.1
		c0,3.8-1,4.8-4.8,4.6c-7.2-0.3-14.4,0-21.6-0.1c-2.6,0-3.7,0.6-3.7,3.5c0,6.8-0.1,6.8-7,6.8c-5.1,0-10.2-0.1-15.3,0
		c-2.3,0.1-2.8-0.7-2.8-2.9c-0.1-7.4-0.2-7.4-7.5-7.4c-6.4,0-12.8-0.1-19.3,0.1c-2.4,0.1-3.4-0.5-3.1-3c0.2-1,0.1-2.1,0-3.1
		c-0.3-2.2,0.7-2.6,2.7-2.6c7.6-0.2,7.6-0.2,7.6-7.8c0-2.4,0.1-4.7,0-7.1c-0.1-1.9,0.5-2.5,2.4-2.5c2,0,2.3,0.8,2.4,2.5
		c0.3,8.5,0.4,8.5,9.1,8.5c5.7,0,5.8,0,5.8-5.7c0-9,0.1-18.1-0.1-27.1c-0.1-2.8,0.8-3.8,3.5-3.4c3.8,0.7,4.9-1.2,4.5-4.6
		c-0.1-0.9,0.1-1.8,0-2.7c-0.3-2.2,0.5-3.1,2.8-2.9c1.2,0.1,2.4,0.1,3.5,0c2-0.2,2.6,0.7,2.4,2.5c-0.1,0.6,0,1.3,0,2
		c0,6.1-0.6,6,5.6,5.7c2.4-0.1,3.2,0.6,3.1,3C853.5,90.5,853.6,95.5,853.6,100.5z"/>
	<path class="st0" d="M389.9,216.5c0,4.7,0.1,9.4,0,14.1c-0.1,2.6,0.7,3.9,3.5,3.7c2.7-0.2,5.5-0.1,8.2,0c2.3,0.1,3.4-0.7,3.2-3.2
		c-0.1-1.7,0.1-3.4,0-5.1c-0.1-1.5,0.5-2,2-2c1.6,0,1.9,0.7,1.9,2.1c-0.1,3.7,0.1,7.3-0.1,11c-0.1,2.5,0.7,3.7,3.3,3.4
		c1-0.1,2.1,0.1,3.1,0c3.8-0.7,4.7,0.8,4.7,4.6c0,3.7-1.2,4.2-4.4,4.1c-7.2-0.2-14.4,0.1-21.6-0.1c-3.1-0.1-4.1,0.8-4.1,4
		c0.2,7.1,0,7.1-7.1,7.1c-5,0-10-0.1-14.9,0c-2.3,0.1-3.2-0.4-3.2-3c0-8.1-0.1-8.1-8.4-8.1c-6.2,0-12.3-0.1-18.5,0.1
		c-2.5,0.1-3.6-0.8-2.9-3.1c0.6-1.9-2.3-5.3,2.3-5.6c8.7-0.5,8.7-0.5,8.7-9.5c0-1.6,0.1-3.1,0-4.7c-0.1-1.5,0.2-2.4,2.1-2.4
		c1.7,0,1.8,0.9,1.9,2.2c0.6,8.1,0.6,8.1,8.8,8.1c6.1,0,6.1,0,6.1-6.2c0-8.6,0.1-17.3,0-25.9c0-2.4,0.4-3.8,3.1-3.3
		c3.7,0.6,5-0.9,4.8-4.7c-0.3-6.4,1.4-7.6,7.9-6.3c1.2,0.2,1.5,0.7,1.5,1.8c0,1,0,2.1,0,3.1c0,5.6,0,5.8,5.7,6
		c2.2,0.1,2.2,1.2,2.2,2.7C389.8,206.5,389.9,211.5,389.9,216.5z"/>
	<path class="st0" d="M402.6,61.9c0-15.3,0.1-30.7-0.1-46c0-3.5,1.1-4.9,4.7-4.9c18.1,0.1,36.2,0.1,54.2,0c3.3,0,4.7,1.1,4.7,4.6
		c-0.1,30.8-0.1,61.6,0,92.4c0,3.1-1.1,4.6-4.3,4.5c-5.5-0.1-11-0.1-16.5,0c-2.2,0.1-3.1-0.6-2.8-2.8c0.2-1.5,0.1-3.1-2-3
		c-2.1,0-1.8,1.7-1.9,3.2c-0.1,1,0.8,2.7-1.3,2.6c-1.7-0.1-0.9-1.6-1-2.5c-0.1-1.4,0.3-3.1-1.8-3.2c-2.4-0.1-2,1.8-2.2,3.3
		c-0.1,0.9,0.6,2.4-1.1,2.4c-2,0-1.2-1.7-1.2-2.6c-0.1-1.5,0.1-3.1-2-3.1c-2.1,0-2.1,1.6-1.9,3.1c0.3,2.3-0.8,2.8-2.9,2.8
		c-5.4-0.1-10.7-0.2-16.1,0c-3.4,0.1-4.6-1.2-4.5-4.6C402.6,92.5,402.6,77.2,402.6,61.9z"/>
	<path class="st0" d="M687,198.7c0,14.7,0,29.3,0,44c0,6.5,0,6.5-6.7,6.5c-4.6,0-9.2-0.1-13.7,0c-2.2,0.1-3.6-0.2-3.2-2.9
		c0.2-1.3,0.1-2.8-1.8-2.9c-2.1-0.1-2.1,1.4-2.2,2.9c-0.1,1,0.8,2.8-1.2,2.7c-1.8-0.1-1-1.8-1.1-2.8c-0.1-1.4-0.1-2.7-1.9-2.8
		c-1.8-0.1-2,1.1-2.1,2.6c-0.1,1.1,0.9,3.1-1.2,3c-1.8,0-1-1.8-1-2.8c-0.1-1.4-0.1-2.7-2-2.8c-1.8,0-2.2,1.2-2,2.7
		c0.4,2.8-1,3.2-3.4,3.1c-5.1-0.1-10.2-0.2-15.3,0c-3.5,0.1-5-1.1-5-4.7c0.1-30.8,0.1-61.5,0-92.3c0-3.2,1.3-4.4,4.5-4.4
		c18.2,0.1,36.4,0.1,54.6,0c3.7,0,4.7,1.6,4.7,5C686.9,168.1,687,183.4,687,198.7z"/>
	<path class="st0" d="M526.2,388.2c-27.7,0-46.6-19.6-45.8-44c0.7-23,21.6-41.5,45.2-39.8c11,0.8,20.3,5.3,28.1,13.3
		c2,2,2.2,3.1-0.4,5c-10.1,7-20.1,14.2-30.1,21.4c-4.2,3-4.2,3.6,0.1,6.7c9.6,6.8,19.1,13.8,28.8,20.4c2.6,1.8,2.5,3,0.3,5
		C544,384.1,534.1,388.1,526.2,388.2z"/>
	<path class="st0" d="M735.6,82.5c-2.8-3-4.8-5.2-6.8-7.5c-1.7-1.9-3.1-1.9-4.8,0.1c-2.2,2.6-4.6,5-6.7,7.7
		c-1.4,1.8-2.4,1.9-3.9,0.1c-2.2-2.7-4.7-5.3-7-8c-1.6-1.8-2.9-1.8-4.5,0c-2.4,2.8-5.1,5.3-7.4,8.1c-1.5,1.8-2.3,1.5-3.5-0.1
		c-2.2-2.6-4.6-5-6.7-7.7c-1.9-2.4-3.5-2.7-5.5,0c-1.8,2.4-3.9,4.5-5.9,6.7c-0.3-0.3-0.6-0.4-0.6-0.6c0-15.3-0.3-30.7,0.1-46
		c0.4-14.7,11.1-27.1,25-29.9c18.9-3.8,36.9,9.1,38.1,28.3C736.3,49.6,735.6,65.5,735.6,82.5z"/>
	<path class="st0" d="M132.5,223.6c-2.3-2.7-4.3-4.8-6.1-7c-2-2.5-3.6-2.4-5.6,0.1c-2,2.6-4.4,4.8-6.4,7.4c-1.5,1.9-2.5,1.7-3.9-0.1
		c-2.2-2.7-4.7-5.3-7-8c-1.6-1.8-3-1.8-4.5,0c-2.4,2.8-5,5.4-7.3,8.2c-1.4,1.6-2.3,1.5-3.6-0.1c-2.1-2.5-4.5-4.8-6.5-7.4
		c-2.3-2.9-4.1-2.6-6.2,0.1c-1.7,2.1-3.6,4.1-5.5,6.1c-1.1-1.3-0.6-2.5-0.6-3.6c0-13.9,0-27.8,0-41.7c0-17.2,13.7-31.4,30.5-31.7
		c17.9-0.4,32.4,12.8,32.9,30.4c0.4,15.1,0.2,30.1,0.2,45.2C132.8,222.1,132.7,222.4,132.5,223.6z"/>
	<path class="st0" d="M217.6,415.7c0.1,8.2-6.6,15-14.8,15c-8.1,0-14.7-6.6-14.8-14.6c-0.1-8.2,6.6-15,14.9-15
		C210.9,401.1,217.5,407.6,217.6,415.7z"/>
	<path class="st0" d="M1021.9,242.1c-0.5-2.5,0.6-3.3,3-3.2c5.9,0.3,5.8,0.1,5.5-5.4c-0.1-2.7,0.9-3.3,3.4-3.3c2.5,0,3.1,0.8,3,3.2
		c-0.2,5.8-0.4,5.7,5.4,5.5c2.2-0.1,3.3,0.3,3.3,2.9c0,2.6-0.8,3.4-3.4,3.3c-5.3-0.1-5.4,0.1-5.3,5.3c0,2.6-0.8,3.3-3.3,3.4
		c-2.9,0.1-3.4-1.4-3-3.6c0.7-4.3-1.3-5.7-5.2-5.1C1023,245.5,1021.3,245,1021.9,242.1z"/>
	<path class="st0" d="M1068.1,321.7c-0.3,1.7-1.3,2.9-3.1,2.8c-2-0.1-3.1-1.4-2.9-3.3c0.2-1.7,1.4-2.8,3.2-2.7
		C1067.1,318.7,1068,319.9,1068.1,321.7z"/>
	<path class="st0" d="M78.2,88.8c-2.5-0.3-4.2-1.7-4.2-4.3c0-2.6,1.6-4.2,4.2-4.2c2.6,0,4.2,1.6,4.2,4.2
		C82.4,87.1,80.8,88.5,78.2,88.8z"/>
	<path class="st0" d="M82.5,65.7c-0.3,2.5-1.7,4.2-4.3,4.2c-2.6,0-4.2-1.6-4.2-4.2c0-2.6,1.6-4.2,4.2-4.2
		C80.9,61.5,82.2,63.2,82.5,65.7z"/>
	<path class="st0" d="M55,73.5c0,1.7,0,3.4,0,5.1c0,1.3-0.8,1.9-2,1.9c-1.2,0-2-0.6-1.9-1.9c0-3.4,0-6.8,0-10.2c0-1.3,0.8-1.9,2-1.9
		c1.2,0,2,0.6,2,1.9C55,70.2,55,71.8,55,73.5C55,73.5,55,73.5,55,73.5z"/>
	<path class="st0" d="M41,242.1c0,3.7-2.8,6.5-6.5,6.4c-3.4-0.1-6.2-2.9-6.2-6.4c-0.1-3.6,2.8-6.5,6.4-6.5
		C38.4,235.5,41,238.3,41,242.1z"/>
	<path class="st0" d="M30.7,231.7c-0.1,3.6-3.2,6.6-6.6,6.4c-3.6-0.2-6.2-3.2-6.1-6.9c0.2-3.4,3.1-6.2,6.4-6.2
		C27.9,225,30.7,228.1,30.7,231.7z"/>
	<path class="st0" d="M14,235.5c3.6,0.1,6.5,3.2,6.3,6.7c-0.2,3.5-3.3,6.4-6.8,6.2c-3.4-0.2-6.1-3.1-6.1-6.5
		C7.4,238.4,10.5,235.5,14,235.5z"/>
	<path class="st0" d="M30.7,252.4c0,3.7-2.8,6.4-6.5,6.4c-3.5,0-6.2-2.6-6.2-6.2c-0.1-3.8,2.6-6.5,6.2-6.6
		C27.9,246,30.6,248.7,30.7,252.4z"/>
	<path class="st0" d="M569.9,55.1c-5.5,0-11-0.1-16.5,0c-2.4,0-3.4-0.8-3.2-3.2c0.1-1.2,0.1-2.4,0-3.5c-0.3-2.8,0.9-3.6,3.6-3.6
		c10.8,0.1,21.7,0.1,32.5,0c3.1,0,4.4,0.8,4,4c-0.1,1-0.1,2.1,0,3.1c0.2,2.4-0.9,3.2-3.2,3.2C581.4,55,575.6,55.1,569.9,55.1z"/>
	<path class="st0" d="M609.2,50.4c0,0.4,0,0.8,0,1.2c-0.1,1.6,0.7,3.8-2,3.8c-2.7,0-1.8-2.3-1.9-3.8c-0.1-1.2,0-2.3,0-3.5
		c-0.1-1.5,0.2-2.7,2-2.7c1.7,0,2.1,1.2,2,2.7C609.1,48.8,609.2,49.6,609.2,50.4z"/>
	<path class="st0" d="M540,50.2c0-0.8,0-1.6,0-2.3c-0.1-1.5,0.4-2.6,2.1-2.5c1.5,0.1,1.9,1.1,1.8,2.4c-0.1,1.7-0.1,3.4,0,5.1
		c0,1.5-0.4,2.6-2.1,2.5c-1.5-0.1-1.9-1.1-1.8-2.4C540,52,540,51.1,540,50.2z"/>
	<path class="st0" d="M531.4,50.2c0.6-1.5-1.4-4.7,1.9-4.8c3.6,0,1.6,3.3,2,5.2c0.2,0.7,0,1.6,0,2.3c0.1,1.4-0.4,2.4-1.9,2.4
		c-1.7,0.1-2.2-1.1-2.1-2.6C531.4,52,531.4,51.2,531.4,50.2z"/>
	<path class="st0" d="M600.5,50.4c-0.6,1.5,1.4,4.7-1.8,4.8c-3.7,0.1-1.6-3.3-2.1-5.1c-0.2-0.6,0-1.3,0-1.9c0-1.4,0-2.8,1.8-2.8
		c2-0.1,2.2,1.3,2.1,2.9C600.5,48.9,600.5,49.5,600.5,50.4z"/>
	<path class="st0" d="M332.4,329.4c5.4,0,10.7,0.1,16.1-0.1c3-0.1,4.1,1,3.7,3.9c-0.1,1-0.1,2.1,0,3.1c0.2,2.3-0.7,3.3-3.1,3.3
		c-11.2-0.1-22.5-0.1-33.7,0c-2.7,0-3.6-1-3.3-3.5c0-0.3,0-0.5,0-0.8c0-6,0-6,5.8-6C322.7,329.4,327.6,329.4,332.4,329.4z"/>
	<path class="st0" d="M305.8,335.1c0,0.8,0,1.6,0,2.3c0.1,1.5-0.4,2.6-2.1,2.5c-1.5-0.1-1.8-1.1-1.8-2.4c0-1.7,0-3.4,0-5.1
		c0-1.5,0.4-2.6,2.1-2.5c1.5,0.1,1.9,1.1,1.8,2.4C305.7,333.2,305.8,334.1,305.8,335.1z"/>
	<path class="st0" d="M297.1,334.9c0,0.5,0,1,0,1.6c0,1.5,0.4,3.5-2,3.4c-2.4,0-1.9-2-1.9-3.5c0-1.2,0-2.3,0-3.5c0-1.5-0.1-3.1,2-3
		c2.1,0,2,1.6,1.9,3.1C297.1,333.6,297.1,334.3,297.1,334.9z"/>
	<path class="st0" d="M358.5,334.7c0-1,0-2.1,0-3.1c0-1.1,0.8-1.6,1.8-1.7c1.2,0,2.1,0.4,2.1,1.7c0,2,0,3.9,0,5.9
		c0,1.3-0.3,2.4-1.8,2.4c-1.7,0.1-2.2-1-2.1-2.5C358.5,336.5,358.4,335.6,358.5,334.7C358.4,334.7,358.4,334.7,358.5,334.7z"/>
	<path class="st0" d="M371,335c-0.6,1.5,1.4,4.7-1.9,4.8c-3.6,0.1-1.5-3.3-2.1-5.2c-0.2-0.6,0-1.3,0-1.9c0-1.4,0-2.8,1.9-2.8
		c2-0.1,2.2,1.4,2.1,3C371,333.5,371,334.1,371,335z"/>
	<path class="st0" d="M198.8,226.4c0.8,0,1.6,0,2.3,0c5.6,0,5.3,0,5.6,5.5c0.2,3.8-1,5.2-4.8,4.8c-2.8-0.3-5.7-0.2-8.6,0
		c-2.3,0.1-3.4-0.8-3.2-3.2c0.1-0.6,0-1.3,0-2c0-5.1,0-5.1,5.1-5.1C196.5,226.4,197.7,226.4,198.8,226.4z"/>
	<path class="st0" d="M217.6,226.4c0.9,0,1.8,0,2.7,0c5.3,0,5,0,5.4,5.3c0.3,4.1-1.2,5.5-5.1,4.9c-1.7-0.2-3.4,0-5.1,0
		c-6.3,0-8-2.3-6.4-8.5c0.4-1.5,1.3-1.7,2.6-1.7C213.7,226.4,215.6,226.4,217.6,226.4z"/>
	<path class="st0" d="M187.9,229c0,1.5,0.2,3.1-1.9,3.2c-2.1,0.1-2.1-1.4-2.1-2.9c0-1.4-0.2-3.1,1.9-3.2
		C187.8,226,188,227.5,187.9,229z"/>
	<path class="st0" d="M253.1,233.5c0-0.1,0-0.3,0-0.4c0-7.5,1.9-8.5,8.6-4.8c1,0.5,1.6,1.2,1.6,2.4c0,1.4,0,2.9,0,4.3
		c0,5.6,0,5.6-5.5,5.6C253.1,240.6,253.1,240.6,253.1,233.5z"/>
	<path class="st0" d="M275.9,234.5c0,5.9-2.9,8.4-8.4,5.8c-4.3-2.1-1-7.3-1.8-11c-0.3-1.3,0-2.6,1.7-2.9c4-0.7,8.4,3,8.4,7
		C275.9,233.7,275.9,234.1,275.9,234.5z"/>
	<path class="st0" d="M970.6,111.4c-0.7-0.4-1.5-0.6-2.1-1.1c-1.9-1.8-3.7-3.6-5.5-5.5c-1-1.1-1.3-2.3-0.1-3.4
		c1.2-1.2,2.4-0.7,3.4,0.2c0.2,0.2,0.4,0.3,0.6,0.5c2.6,3.9,5,3.4,7.6-0.1c0.9-1.2,2.3-2.1,3.7-0.8c1.6,1.4,0.7,2.8-0.6,4
		C975.2,107.2,973.5,110,970.6,111.4z"/>
	<path class="st0" d="M943.8,106.2c-2.6,0-5.2,0-7.8,0c-1.5,0-2.6-0.5-2.5-2.2c0.1-1.5,1.2-1.8,2.5-1.8c5.4,0,10.7,0,16.1,0
		c1.3,0,2.4,0.4,2.5,1.8c0.1,1.7-1,2.2-2.5,2.2C949.3,106.1,946.6,106.2,943.8,106.2z"/>
	<path class="st0" d="M944.4,95.9c2.6,0,5.2,0,7.8,0c1.4,0,2.4,0.6,2.4,2c0,1.4-0.9,2-2.4,2c-5.5,0-11,0-16.5,0
		c-1.4,0-2.3-0.5-2.3-2c0-1.4,0.9-2,2.3-2C938.7,96,941.5,95.9,944.4,95.9z"/>
	<path class="st0" d="M944.4,89.7c2.6,0,5.2,0,7.8,0c1.4,0,2.4,0.6,2.4,2c0,1.4-0.9,2-2.3,2c-5.5,0-11,0-16.5,0
		c-1.4,0-2.3-0.5-2.3-2c0-1.4,0.9-2,2.3-2C938.6,89.7,941.5,89.7,944.4,89.7z"/>
	<path class="st0" d="M944.5,83.4c2.6,0,5.2,0,7.8,0c1.4,0,2.3,0.7,2.3,2c0,1.4-1,1.9-2.4,1.9c-5.5,0-11,0-16.5,0
		c-1.4,0-2.3-0.6-2.3-2c0-1.5,1-1.9,2.4-1.9C938.7,83.4,941.6,83.4,944.5,83.4z"/>
	<path class="st0" d="M943.8,42.5c-2.6,0-5.2,0-7.8,0c-1.5,0-2.6-0.5-2.5-2.2c0.1-1.5,1.2-1.8,2.5-1.8c5.4,0,10.7,0,16.1,0
		c1.3,0,2.4,0.4,2.5,1.8c0.1,1.7-1,2.2-2.5,2.2C949.3,42.5,946.6,42.5,943.8,42.5z"/>
	<path class="st0" d="M944,48.8c-2.7,0-5.5,0-8.2,0c-1.4,0-2.3-0.5-2.3-2c0-1.4,0.9-2,2.3-2c5.5,0,11,0,16.5,0c1.4,0,2.4,0.6,2.4,2
		c0,1.4-0.9,2-2.3,2C949.5,48.7,946.8,48.8,944,48.8z"/>
	<path class="st0" d="M944.4,51.1c2.6,0,5.2,0,7.8,0c1.4,0,2.4,0.5,2.4,1.9c0,1.4-0.9,2-2.3,2c-5.5,0-11,0-16.5,0
		c-1.4,0-2.4-0.5-2.4-1.9c0-1.8,1.2-2.1,2.7-2C938.9,51.2,941.6,51.1,944.4,51.1z"/>
	<path class="st0" d="M944.3,57.4c2.6,0,5.2,0,7.8,0c1.4,0,2.4,0.4,2.5,1.8c0.1,1.7-1.1,2.1-2.6,2.1c-5.4,0-10.7,0-16.1,0
		c-1.3,0-2.4-0.3-2.5-1.8c-0.1-1.7,1-2.1,2.6-2.1C938.8,57.5,941.5,57.4,944.3,57.4z"/>
	<path class="st0" d="M944,67.6c-2.7,0-5.5,0-8.2,0c-1.4,0-2.3-0.6-2.3-2c0-1.5,0.9-2,2.3-1.9c5.5,0,11,0,16.5,0
		c1.4,0,2.4,0.6,2.4,2c0,1.4-1,2-2.4,2C949.5,67.6,946.7,67.6,944,67.6z"/>
	<path class="st0" d="M943.6,73.9c-2.6,0-5.2,0-7.8,0c-1.4,0-2.3-0.5-2.3-2c0-1.4,0.9-2,2.3-2c5.5,0,11,0,16.5,0
		c1.4,0,2.4,0.6,2.4,2c0,1.4-0.9,2-2.4,2C949.4,73.9,946.5,73.9,943.6,73.9z"/>
	<path class="st0" d="M944.2,76.3c2.6,0,5.2,0,7.8,0c1.5,0,2.7,0.5,2.5,2.2c-0.1,1.4-1.2,1.8-2.5,1.8c-5.4,0-10.7,0-16.1,0
		c-1.5,0-2.6-0.4-2.5-2.2c0.1-1.5,1.2-1.8,2.5-1.8C938.7,76.3,941.5,76.3,944.2,76.3z"/>
	<path class="st0" d="M311.1,126c1.7,0.3,2.7,1.8,3.7,3c1.6,1.9,2.7,2.1,4.6,0.1c1.4-1.5,3-5,5.5-2.3c2.3,2.5-1,4.1-2.5,5.6
		c-5.1,5.2-5.1,5.2-10.2,0.1c-1-1-2.2-1.9-2.9-3.1C308.2,127.8,309.2,126,311.1,126z"/>
	<path class="st0" d="M291.1,114.8c2.6,0,5.2,0,7.8,0c1.4,0,2.4,0.4,2.5,1.8c0.1,1.7-1.1,2.1-2.6,2.1c-5.4,0-10.7,0-16.1,0
		c-1.3,0-2.4-0.3-2.5-1.8c-0.1-1.7,1-2.2,2.5-2.1C285.6,114.8,288.3,114.8,291.1,114.8z"/>
	<path class="st0" d="M290.6,112.4c-2.6,0-5.2,0-7.8,0c-1.3,0-2.4-0.3-2.4-1.9c-0.1-1.7,1-2.1,2.6-2.1c5.4,0,10.7,0,16.1,0
		c1.4,0,2.4,0.4,2.5,1.8c0.1,1.7-1.1,2.1-2.6,2.1C296.1,112.4,293.3,112.4,290.6,112.4z"/>
	<path class="st0" d="M290.8,106.2c-2.7,0-5.5,0-8.2,0c-1.4,0-2.3-0.6-2.3-2c0-1.5,1-1.9,2.4-1.9c5.5,0,11,0,16.5,0
		c1.4,0,2.3,0.7,2.3,2c0,1.4-1,2-2.4,1.9C296.3,106.1,293.5,106.2,290.8,106.2z"/>
	<path class="st0" d="M291,99.9c-2.6,0-5.2,0-7.8,0c-1.4,0-2.7-0.1-2.8-1.9c-0.1-1.7,1.1-2.1,2.6-2.1c5.4,0,10.7,0,16.1,0
		c1.4,0,2.4,0.4,2.5,1.9c0.1,1.7-1.1,2.1-2.6,2.1C296.2,99.8,293.6,99.9,291,99.9z"/>
	<path class="st0" d="M291.2,89.7c2.6,0,5.2,0,7.8,0c1.4,0,2.4,0.6,2.4,2c0,1.4-0.9,2-2.3,2c-5.5,0-11,0-16.5,0
		c-1.4,0-2.3-0.5-2.3-2c0-1.4,0.9-2,2.3-2C285.5,89.7,288.3,89.7,291.2,89.7z"/>
	<path class="st0" d="M291.2,83.4c2.6,0,5.2,0,7.8,0c1.4,0,2.4,0.6,2.4,1.9c0,1.4-0.9,2-2.3,2c-5.5,0-11,0-16.5,0
		c-1.4,0-2.3-0.5-2.4-1.9c0-1.4,0.8-2,2.3-2C285.4,83.4,288.3,83.4,291.2,83.4z"/>
	<path class="st0" d="M291.2,70c2.6,0,5.2,0,7.8,0c1.4,0,2.4,0.5,2.4,1.9c0,1.4-0.9,2-2.3,2c-5.5,0-11,0-16.5,0
		c-1.4,0-2.4-0.4-2.4-1.9c0-1.8,1.2-2.1,2.6-2C285.7,70,288.4,70,291.2,70z"/>
	<path class="st0" d="M290.9,80.2c-2.7,0-5.5,0-8.2,0c-1.4,0-2.3-0.5-2.4-1.9c0-1.4,0.8-2,2.3-2c5.5,0,11,0,16.5,0
		c1.4,0,2.4,0.6,2.4,1.9c0,1.4-0.9,2-2.3,2C296.4,80.2,293.6,80.2,290.9,80.2z"/>
	<path class="st0" d="M290.9,67.6c-2.7,0-5.5,0-8.2,0c-1.4,0-2.3-0.5-2.4-1.9c0-1.4,0.8-2,2.3-2c5.5,0,11,0,16.5,0
		c1.4,0,2.4,0.6,2.4,1.9c0,1.4-0.9,2-2.3,2C296.4,67.6,293.6,67.6,290.9,67.6z"/>
	<path class="st0" d="M290.5,131.3c-2.5,0-5,0-7.4,0c-1.4,0-2.7-0.1-2.8-1.9c-0.1-1.8,1.1-2.1,2.6-2.1c5.2,0,10.5,0,15.7,0
		c1.4,0,2.8,0.2,2.8,1.9c0,2-1.5,2.1-3,2.1C295.8,131.3,293.2,131.3,290.5,131.3z"/>
	<path class="st0" d="M290.5,125c-2.6,0-5.2,0-7.8,0c-1.4,0-2.3-0.5-2.3-2c0-1.4,0.9-2,2.3-2c5.5,0,11,0,16.5,0c1.4,0,2.4,0.6,2.4,2
		c0,1.4-0.9,2-2.3,2C296.2,125,293.3,125,290.5,125z"/>
	<path class="st0" d="M777.4,201.3c10.9,0,21.7,0,32.6,0c7.1,0,11.4,3.9,11.4,11c0.1,16.5,0.1,33,0,49.5c-0.1,7.1-4.4,11-11.5,11
		c-21.7,0-43.5,0-65.2,0c-7.3,0-11.4-4.1-11.4-11.4c0-16.2,0-32.5,0-48.7c0-7.3,4.1-11.4,11.4-11.4
		C755.7,201.3,766.5,201.3,777.4,201.3z"/>
	<path class="st0" d="M834.4,236.6c5,0,8.4,3.4,8.3,8.4c0,5-3.5,8.2-8.5,8.1c-4.8-0.1-8.1-3.4-8.1-8.2
		C826,240,829.3,236.6,834.4,236.6z"/>
	<path class="st0" d="M834.4,272c-5,0-8.4-3.3-8.4-8.3c0-5,3.4-8.2,8.5-8.2c4.8,0.1,8.1,3.3,8.2,8.1
		C842.8,268.6,839.4,272,834.4,272z"/>
	<path class="st0" d="M834.6,207.6c2.1,0,4.2,0,6.3,0c1.3,0,2.1,0.6,2.1,1.8c0.1,1.4-0.7,2.2-2.2,2.1c-4,0-8.1,0-12.1,0
		c-1.5,0-2.2-0.7-2.1-2.2c0.1-1.3,0.9-1.8,2.1-1.8C830.7,207.6,832.6,207.6,834.6,207.6z"/>
	<path class="st0" d="M834.8,224c-2.1,0-4.2,0-6.3,0c-1.3,0-1.9-0.8-1.9-1.9c0-1.2,0.5-2,1.9-2c4.2,0,8.4,0,12.5,0
		c1.3,0,2,0.8,2,1.9c0,1.1-0.6,2-2,2C839,224,836.9,224,834.8,224z"/>
	<path class="st0" d="M834.8,217.8c-2.1,0-4.2,0-6.3,0c-1.3,0-1.9-0.8-1.9-2c0-1.2,0.6-1.9,1.9-1.9c4.2,0,8.4,0,12.5,0
		c1.3,0,2,0.9,2,2c0,1.1-0.7,2-2,1.9C838.9,217.8,836.8,217.8,834.8,217.8z"/>
	<path class="st0" d="M834.4,226.4c1.4,0,2.9,0,4.3,0c1.3,0,2,0.9,2,2c0,1.1-0.7,1.9-2,1.9c-2.7,0-5.5,0-8.2,0c-1.4,0-2.3-0.6-2.3-2
		c0-1.5,0.9-2,2.3-2C831.8,226.5,833.1,226.4,834.4,226.4C834.4,226.4,834.4,226.4,834.4,226.4z"/>
	<path class="st0" d="M834.9,201.3c1.7,0.8,5.7-1.8,5.6,2.1c-0.1,3.4-3.8,1.4-5.8,1.8c-1.4,0.3-2.9,0-4.3,0.1
		c-1.5,0-2.2-0.7-2.1-2.1c0.1-1.2,0.8-1.8,2.1-1.8C831.7,201.3,833.1,201.3,834.9,201.3z"/>
	<path class="st0" d="M120.7,320.7c17.3,0,34.6,0.1,51.8-0.1c3.5,0,4.5,1,4.4,4.4c-0.2,13.5-0.2,27,0,40.5c0,3.2-1,4-4.1,4
		c-35.1-0.1-70.2-0.1-105.3,0c-3.1,0-4-0.9-4-4c0.1-13.6,0.2-27.2,0-40.8c0-3.2,1-4,4.1-4C85.3,320.8,103,320.7,120.7,320.7z"/>
	<path class="st0" d="M696.8,327.8c13.6,0,24,10.5,24,24.1c0,13.4-10.5,23.8-23.9,23.8c-13.6,0-24-10.5-24-24.1
		C672.9,338.3,683.3,327.8,696.8,327.8z"/>
	<path class="st0" d="M626.9,367.1c-6.6,0-6.7,0-7.6-6.9c-0.3-2.1-1.5-1.8-2.7-1.8c-4,0.3-5.4-1.9-5.2-5.5c0.1-1.6,0-3.1,0.1-4.7
		c0.2-2.4,1.6-4.1,4-3.9c3.3,0.2,3.9-1.2,3.9-4.1c0-2.9,1.9-4.5,4.8-4.6c1.7-0.1,3.4-0.1,5.1,0c3.3,0.1,5.3,1.7,5,5.1
		c-0.2,2.6,0.4,3.7,3.3,3.6c4.1-0.1,5.3,1.5,5.3,5.5c0,0.8,0,1.6,0,2.4c0,5.3-0.7,6.1-6,6.3c-1.5,0.1-2.6,0-2.7,2.2
		C634,366.9,633.5,367.1,626.9,367.1z"/>
	<path class="st0" d="M661.8,354.4c0.1,2-4.6,6.7-6.4,6.6c-1.8-0.1-2.8-1.3-1.9-2.9c1.3-2.1,3-4,5.2-5.2
		C660.3,352,661.6,352.8,661.8,354.4z"/>
	<path class="st0" d="M670.3,354.5c0.1,1.6-4.9,6.5-6.4,6.4c-2.2-0.2-2.8-1.7-1.7-3.2c1.3-1.8,2.9-3.4,4.7-4.7
		C668.5,351.9,669.8,352.7,670.3,354.5z"/>
	<path class="st0" d="M516,249.2c-17.4,0-34.8-0.1-52.2,0.1c-3.1,0-4-0.9-4-4c0.2-13.4,0.2-26.7,0-40.1c0-3.2,1-4,4-4
		c35.1,0.1,70.2,0.1,105.3,0c3.1,0,4.1,0.9,4,4c-0.2,13.4-0.2,26.7,0,40.1c0,3.2-1,4-4.1,4C551.3,249.2,533.7,249.2,516,249.2z"/>
	<path class="st0" d="M191.1,60.7c3.1,2,5.5,3.6,8,5c2.1,1.2,2.1,2.6,1.1,4.5c-3.4,6.6-12.2,10.1-19.6,7.7
		c-7.9-2.5-12.5-10-11.6-18.7c0.8-7.5,7.5-14,14.8-14.5c6.2-0.4,11.2,1.7,15.1,6.6c1.5,1.9,1.5,3.5-0.8,4.8
		C195.9,57.6,193.8,59,191.1,60.7z"/>
	<path class="st0" d="M832.4,99.8c0-3.3,0.1-6.5,0-9.8c-0.1-2,0.8-2.8,2.8-2.8c3.7,0.1,7.3,0.1,11,0c2,0,2.8,0.8,2.8,2.8
		c-0.1,6.5-0.1,13.1,0,19.6c0,2-0.8,2.8-2.8,2.8c-3.7-0.1-7.3-0.1-11,0c-2,0-2.8-0.8-2.8-2.8C832.5,106.4,832.4,103.1,832.4,99.8z"
		/>
	<path class="st0" d="M385.9,215.8c0,3.1-0.1,6.3,0,9.4c0.1,2-0.8,2.8-2.8,2.8c-3.9-0.1-7.8-0.1-11.8,0c-2,0-2.8-0.8-2.8-2.8
		c0.1-6.5,0.1-13.1,0-19.6c0-2,0.7-2.8,2.8-2.8c3.9,0.1,7.8,0.1,11.8,0c2.3-0.1,2.9,1.1,2.8,3.2
		C385.9,209.3,385.9,212.5,385.9,215.8z"/>
	<path class="st0" d="M434.7,15.8c8.5,0,17,0.1,25.5,0c2.7,0,3.6,0.8,3.6,3.6c-0.1,17-0.1,34,0,51.1c0,2.8-0.9,3.6-3.6,3.6
		c-17.3-0.1-34.6-0.1-51.8,0c-2.8,0-3.6-0.9-3.6-3.6c0.1-17,0.1-34,0-51.1c0-2.8,0.9-3.6,3.6-3.6C417.1,15.9,425.9,15.8,434.7,15.8z
		"/>
	<path class="st0" d="M432.3,91.1c0,0.8-0.1,1.6,0,2.4c0.4,3-0.7,4.5-3.9,4c-2.5-0.4-3.6,0.5-3.2,3.2c0.4,2.4-0.8,3.3-3.2,3.2
		c-1.4-0.1-2.9-0.1-4.3,0c-3,0.3-4.9-0.5-4.3-4c0.3-2-0.7-2.6-2.5-2.3c-3.3,0.5-4.2-1.1-3.8-4.1c0.1-1.2,0.1-2.4,0-3.5
		c-0.4-3.4,0.3-5.7,4.5-5c2.5,0.4,1.9-1.7,1.8-2.9c-0.2-2.6,0.8-3.6,3.4-3.4c1.3,0.1,2.6,0.1,3.9,0c3.2-0.4,5.2,0.4,4.5,4.2
		c-0.2,1.4,0.2,2,1.8,2.2C432.3,85.5,432.3,85.6,432.3,91.1z"/>
	<path class="st0" d="M461.4,85.9c-0.1,4.1-3.1,7-7.3,6.9c-4.1-0.1-7-3.2-6.8-7.4c0.2-3.9,3.1-6.7,7.1-6.7
		C458.5,78.7,461.5,81.7,461.4,85.9z"/>
	<path class="st0" d="M441.6,103.8c-4.1-0.1-7-3.1-6.9-7.3c0.1-4.1,3.2-7,7.4-6.8c3.9,0.2,6.7,3.1,6.7,7.1
		C448.8,100.9,445.8,103.9,441.6,103.8z"/>
	<path class="st0" d="M626.5,182c0-8.6,0.1-17.3,0-25.9c0-2.7,0.8-3.7,3.6-3.6c17,0.1,34,0.1,51,0c2.7,0,3.7,0.8,3.6,3.6
		c-0.1,17.3-0.1,34.5,0,51.8c0,2.7-0.8,3.7-3.6,3.6c-17-0.1-34-0.1-51,0c-2.7,0-3.7-0.8-3.6-3.6C626.6,199.3,626.5,190.7,626.5,182z
		"/>
	<path class="st0" d="M640.2,240.5c-3.3,0.3-6.8,0.7-5.9-4.6c0.3-1.9-1.3-1.7-2.4-1.6c-3.3,0.4-4.2-1.1-3.9-4.1
		c0.1-1.3,0.1-2.6,0-3.9c-0.3-3.1,0.3-5.2,4.1-4.6c2.2,0.3,2.4-1,2.2-2.6c-0.4-3,1.1-4,3.9-3.7c1.7,0.2,3.4,0.1,5.1,0
		c2.6-0.2,4.1,0.7,3.6,3.5c-0.3,2.2,0.6,3.1,2.8,2.8c2.8-0.4,3.8,1,3.5,3.6c-0.1,1.4-0.1,2.9,0,4.3c0.3,3.1-0.3,5.2-4.1,4.6
		c-1-0.1-2.4-0.2-2.1,1.4C647.9,241.8,643.7,240.6,640.2,240.5z"/>
	<path class="st0" d="M669.7,233.3c0.1,4.2-2.9,7.2-7,7.2c-4.1,0-7.1-3-7.1-7.1c0-4,2.9-6.9,6.8-7
		C666.5,226.3,669.6,229.2,669.7,233.3z"/>
	<path class="st0" d="M682.3,222.6c0,4.1-3.1,7.1-7.3,7c-4.1-0.1-7-3.2-6.9-7.4c0.1-3.9,3.1-6.8,7.1-6.8
		C679.3,215.4,682.3,218.4,682.3,222.6z"/>
	<path class="st0" d="M526,314.5c4.1,0,7.1,3.1,7,7.3c-0.1,4.1-3.2,7-7.4,6.9c-3.9-0.1-6.8-3.1-6.8-7.1
		C518.8,317.4,521.8,314.4,526,314.5z"/>
	<path class="st0" d="M732.6,33.2c0,7.6-5.8,13.3-13.5,13.2c-7.6,0-13.3-5.8-13.2-13.5c0-7.6,5.8-13.3,13.5-13.2
		C726.9,19.7,732.6,25.5,732.6,33.2z"/>
	<path class="st0" d="M687.9,46.4c-7.7,0-13.4-5.6-13.5-13.3c0-7.7,5.6-13.4,13.3-13.5c7.7,0,13.4,5.6,13.5,13.3
		C701.2,40.6,695.5,46.4,687.9,46.4z"/>
	<path class="st0" d="M704.5,55.1c-2.1,0-4.2,0-6.3,0c-1.5,0-2.2-0.7-2.1-2.2c0.1-1.3,0.9-1.8,2.1-1.8c4,0,8.1,0,12.1,0
		c1.3,0,2.1,0.6,2.1,1.8c0.1,1.4-0.7,2.2-2.2,2.1C708.4,55.1,706.4,55.1,704.5,55.1z"/>
	<path class="st0" d="M85.1,161.2c7.6,0,13.2,5.8,13.2,13.5c0,7.6-5.8,13.2-13.5,13.2c-7.6,0-13.2-5.8-13.2-13.5
		C71.6,166.8,77.4,161.1,85.1,161.2z"/>
	<path class="st0" d="M130.5,174.6c0,7.6-5.8,13.3-13.4,13.3c-7.6,0-13.3-5.8-13.3-13.4c0-7.6,5.8-13.3,13.4-13.3
		C124.8,161.2,130.5,166.9,130.5,174.6z"/>
	<path class="st0" d="M101.3,196.6c-1.8,0-3.7,0-5.5,0c-1.5,0-2.6-0.3-2.6-2.1c0-1.5,1-1.9,2.4-1.9c3.8,0,7.6,0.1,11.4,0
		c1.5,0,2.7,0.4,2.6,2.1c-0.1,1.7-1.4,1.9-2.9,1.9C105,196.5,103.1,196.6,101.3,196.6z"/>
	<path class="st0" d="M36.7,242c-0.3,1.3-1,1.9-2.3,1.8c-1.1-0.1-1.6-0.8-1.6-1.8c0-1.2,0.7-2,1.9-1.9C35.9,240.1,36.5,241,36.7,242
		z"/>
	<path class="st0" d="M24.2,229.6c1.3,0.1,2.1,0.9,2,2c0,1.1-0.8,1.9-2.1,1.9c-1.1,0-1.7-0.8-1.8-1.8
		C22.3,230.5,22.9,229.7,24.2,229.6z"/>
	<path class="st0" d="M15.8,242c-0.2,1.2-0.9,1.9-2.1,1.8c-1-0.1-1.7-0.7-1.8-1.7c0-1.2,0.8-2,1.9-2C15,240,15.7,240.8,15.8,242z"/>
	<path class="st0" d="M24.1,250.6c1.2,0,1.9,0.5,2,1.8c0,1-0.6,1.7-1.6,1.8c-1.2,0.2-2-0.5-2.2-1.6C22.2,251.4,23,250.8,24.1,250.6z
		"/>
	<path class="st0" d="M570.3,48.8c4.6,0,9.1,0,13.7,0c0.9,0,2.3-0.5,2.3,1.2c0,1.4-1.2,1.1-2,1.1c-9.4,0-18.8,0-28.1,0
		c-0.8,0-2,0.2-1.9-1.2c0.1-1.4,1.2-1.1,2-1.1C560.9,48.8,565.6,48.8,570.3,48.8z"/>
	<path class="st0" d="M331.7,335.7c-4.6,0-9.1,0-13.7,0c-0.8,0-2,0.3-2-1.2c0-1.4,1.1-1.2,2-1.2c9.4,0,18.8,0,28.1,0
		c0.8,0,2-0.3,2,1.2c0,1.4-1.1,1.2-2,1.2C341.3,335.7,336.5,335.7,331.7,335.7z"/>
	<path class="st0" d="M198.4,232.7c-0.8,0-1.6,0-2.4,0c-0.9,0-2,0.1-1.8-1.3c0.1-1.1,1-1,1.8-1c1.4,0,2.9-0.1,4.3,0
		c0.9,0.1,2.4-0.5,2.4,1.1c0,1.7-1.4,1.1-2.3,1.2C199.7,232.8,199.1,232.7,198.4,232.7z"/>
	<path class="st0" d="M217.2,232.7c-1.1-0.6-3.9,1.2-4-1.1c-0.1-2.5,2.7-0.7,4.1-1.2c0.5-0.2,1.1-0.1,1.6,0c1,0.2,2.7-0.7,2.6,1.3
		c-0.1,1.6-1.6,0.9-2.5,1C218.6,232.8,218,232.7,217.2,232.7z"/>
	<path class="st0" d="M257.2,231.4c3.1,0.4,2,2.6,2.1,4.2c0.1,0.8-0.7,1.3-1.3,1C256,235.2,257.3,233.2,257.2,231.4z"/>
	<path class="st0" d="M269.8,231.4c3.1,0.4,2,2.6,2.1,4.2c0.1,0.8-0.7,1.3-1.3,1C268.6,235.2,269.9,233.2,269.8,231.4z"/>
	<path class="st0" d="M775.8,237c0,9.6-0.1,19.1,0.1,28.7c0,2.5-0.6,3.4-3.2,3.3c-8.9-0.2-17.8,0-26.7-0.1c-6.2,0-8.5-2.4-8.5-8.6
		c0-15.6,0-31.1,0-46.7c0-5.7,2.4-8.3,8-8.3c9.2-0.1,18.3,0.1,27.5-0.1c2.6,0,3,0.9,3,3.2C775.7,217.9,775.8,227.4,775.8,237z"/>
	<path class="st0" d="M779.7,236.8c0-9.4,0.1-18.8,0-28.3c0-2.3,0.3-3.5,3.1-3.4c8.8,0.2,17.5,0,26.3,0.1c5.9,0,8.3,2.5,8.3,8.5
		c0.1,15.6,0.1,31.1,0,46.7c0,5.9-2.5,8.4-8.4,8.4c-8.8,0.1-17.5-0.1-26.3,0.1c-2.4,0-3.1-0.6-3.1-3.1
		C779.8,256.2,779.7,246.5,779.7,236.8z"/>
	<path class="st0" d="M838.7,244.9c-0.3,2.5-1.7,4.2-4.3,4.2c-2.6,0-4.2-1.6-4.2-4.2c0-2.6,1.6-4.2,4.2-4.2
		C837,240.7,838.3,242.4,838.7,244.9z"/>
	<path class="st0" d="M834.5,268c-2.6-0.2-4.3-1.6-4.3-4.2c-0.1-2.6,1.5-4.2,4.1-4.3c2.6-0.1,4.2,1.5,4.3,4.1
		C838.6,266.3,837,267.7,834.5,268z"/>
	<path class="st0" d="M120.1,365.5c-16.2,0-32.5-0.1-48.7,0.1c-3.2,0-3.9-1-3.8-3.9c0.2-11.3,0.1-22.5,0-33.8c0-2.5,0.6-3.3,3.2-3.3
		c33,0.1,66,0.1,99,0c2.7,0,3.2,0.8,3.2,3.3c-0.1,11.4-0.1,22.8,0,34.2c0,2.7-0.6,3.5-3.4,3.5C153.1,365.5,136.6,365.5,120.1,365.5z
		"/>
	<path class="st0" d="M696.7,371.7c-10.9-0.1-20-9.3-19.8-20.2c0.1-10.9,9.3-19.8,20.3-19.7c10.8,0.1,19.6,9.1,19.6,19.9
		C716.7,362.8,707.6,371.8,696.7,371.7z"/>
	<path class="st0" d="M626.7,363c-2.9,0.7-3.8-0.7-3.4-3.4c0.7-4.2-1.1-5.8-5.2-5.2c-2.4,0.4-2.8-0.9-2.8-2.9c0-2.2,0.3-3.7,2.9-3.2
		c4.4,0.8,5.6-1.4,5-5.3c-0.5-3,1.1-3.4,3.7-3.5c2.5-0.1,3.5,0.6,3.4,3.3c-0.2,4.5-1.1,5.9,5.6,5.4c2.6-0.2,3,0.9,3,3.2
		c0.1,2.5-0.8,3.1-3.2,3.1c-5.4,0-5.6,0.1-5.5,5.2C630.4,362.5,629.5,363.6,626.7,363z"/>
	<path class="st0" d="M516.2,245.3c-16.4,0-32.7-0.1-49.1,0.1c-2.8,0-3.5-0.8-3.4-3.5c0.2-11.1,0.1-22.3,0-33.4
		c0-2.5,0.6-3.3,3.2-3.3c33,0.1,66,0.1,99,0c2.6,0,3.3,0.8,3.2,3.3c-0.1,11-0.2,22,0,33c0,3-0.6,4-3.8,3.9
		C549,245.2,532.6,245.3,516.2,245.3z"/>
	<path class="st0" d="M194.9,53.3c-2.9,1.8-5.6,3.5-8.2,5.2c-2.3,1.5-2.2,3,0,4.5c2.3,1.5,4.6,3.1,7,4.3c2.5,1.3,2.2,2.3,0.4,4
		c-4.9,4.5-12.6,4.4-17.3-0.3c-4.9-5-4.9-13.4,0.1-18.4C181.8,47.5,189.2,47.7,194.9,53.3z"/>
	<path class="st0" d="M845,100.1c0,1.3-0.2,2.6,0,3.9c0.6,3.8-0.8,4.7-4.6,4.7c-3.5,0-4.5-0.9-4.2-4.3c0.3-3.5,0.2-7,0-10.5
		c-0.1-2.1,0.6-2.9,2.6-2.6c0.9,0.1,1.8,0.1,2.7,0c2.8-0.4,3.7,0.7,3.4,3.4C844.8,96.4,845,98.3,845,100.1z"/>
	<path class="st0" d="M372.6,215.2c0-0.5,0-1,0-1.6c0-7.5,0-7.4,7.3-6.9c1.8,0.1,2.2,0.8,2.1,2.3c-0.1,4.3-0.1,8.6,0,12.9
		c0,1.8-0.7,2.1-2.3,2.2c-7.2,0.4-7.2,0.5-7.2-6.6C372.6,216.7,372.6,215.9,372.6,215.2z"/>
	<path class="st0" d="M434.3,19.7c7.6,0,15.2,0.1,22.7-0.1c2.3,0,2.8,0.7,2.8,2.9c-0.1,14.9-0.1,29.8,0,44.7c0,2.3-0.7,2.8-2.9,2.8
		c-15.2-0.1-30.3-0.1-45.5,0c-2.3,0-2.8-0.7-2.8-2.9c0.1-14.9,0.1-29.8,0-44.7c0-2.3,0.7-2.9,2.9-2.8
		C419.1,19.8,426.7,19.7,434.3,19.7z"/>
	<path class="st0" d="M428.3,91.3c0.5,2.5-1.1,2.5-2.8,2.3c-3.1-0.4-4.8,0.6-4.3,4c0.2,1.6-0.2,2.3-2.1,2.3c-2.1,0-2-1.3-1.8-2.6
		c0.4-2.9-0.8-4.1-3.7-3.8c-1.6,0.2-2.6,0-2.7-2.2c0-2.1,0.7-2.8,2.7-2.5c3,0.4,4-1,3.7-3.8c-0.2-1.4-0.1-2.5,1.9-2.5
		c1.9,0,2.2,0.9,2,2.4c-0.6,3.5,1.3,4.3,4.3,3.9C427.4,88.7,428.9,88.8,428.3,91.3z"/>
	<path class="st0" d="M454.4,82.6c1.9,0.4,3,1.4,2.9,3.2c-0.1,2-1.4,3.1-3.4,2.9c-1.7-0.2-2.8-1.4-2.6-3.2
		C451.5,83.7,452.8,82.8,454.4,82.6z"/>
	<path class="st0" d="M441.8,93.7c1.8,0.3,2.9,1.3,2.9,3.1c0,2-1.3,3.1-3.3,3c-1.7-0.2-2.8-1.4-2.7-3.2
		C438.9,94.8,440.1,93.8,441.8,93.7z"/>
	<path class="st0" d="M680.7,182.1c0,7.5-0.1,14.9,0,22.4c0,2.3-0.5,3.2-3,3.1c-14.8-0.1-29.6-0.1-44.4,0c-2.5,0-3-0.8-3-3.1
		c0.1-15.1,0.1-30.1,0-45.2c0-2.2,0.5-2.9,2.8-2.9c14.9,0.1,29.8,0.1,44.8,0c2.3,0,2.9,0.7,2.8,2.9
		C680.6,166.9,680.7,174.5,680.7,182.1z"/>
	<path class="st0" d="M640.8,236.6c-2.2,0.4-2.8-0.6-2.6-2.4c0.4-2.9-0.8-4.2-3.7-3.8c-1.7,0.2-2.6-0.2-2.6-2.3c0-2.3,1-2.7,2.8-2.5
		c2.8,0.4,3.8-1,3.5-3.6c-0.2-1.6,0-2.7,2.2-2.7c2.2,0,2.8,0.8,2.5,2.8c-0.4,2.7,0.7,4,3.5,3.6c1.8-0.2,2.9,0.2,2.8,2.5
		c0,2.1-1,2.5-2.6,2.2c-3-0.4-4.1,1-3.7,3.8C643.2,235.8,642.8,237.2,640.8,236.6z"/>
	<path class="st0" d="M665.7,233.6c-0.3,1.7-1.3,2.9-3.1,2.9c-2-0.1-3.1-1.3-2.9-3.3c0.2-1.7,1.4-2.8,3.2-2.7
		C664.6,230.6,665.5,231.8,665.7,233.6z"/>
	<path class="st0" d="M678.3,222.2c-0.2,1.9-1.1,3.2-2.9,3.2c-2,0.1-3.2-1.1-3.2-3.1c0-1.8,1.2-2.9,3-2.9
		C677,219.5,677.9,220.7,678.3,222.2z"/>
	<path class="st0" d="M528.9,321.5c-0.3,1.9-1.3,3.1-3.1,3.1c-2,0-3.1-1.3-3-3.3c0.1-1.7,1.4-2.8,3.2-2.7
		C527.8,318.7,528.7,319.9,528.9,321.5z"/>
	<path class="st0" d="M719,42.4c-5-0.1-9.2-4.4-9.1-9.4c0-5.1,4.6-9.4,9.7-9.2c5,0.2,9.1,4.6,8.9,9.6C728.4,38.3,724,42.5,719,42.4z
		"/>
	<path class="st0" d="M697.1,33c0,5-4.2,9.3-9.2,9.3c-5.1,0.1-9.5-4.4-9.4-9.5c0.1-4.9,4.5-9.2,9.4-9.1
		C692.8,23.8,697.1,28.1,697.1,33z"/>
	<path class="st0" d="M94.2,174.6c0,5-4.3,9.2-9.3,9.2c-5.1,0-9.5-4.5-9.3-9.6c0.2-5,4.5-9.1,9.5-9
		C90.1,165.3,94.2,169.6,94.2,174.6z"/>
	<path class="st0" d="M107.8,174.6c0-5,4.2-9.3,9.2-9.3c5-0.1,9.3,4.1,9.4,9.1c0.1,5.1-4.2,9.6-9.4,9.5
		C112,183.8,107.8,179.6,107.8,174.6z"/>
	<path class="st0" d="M744.4,220.8c0-1.7,0-3.4,0-5.1c0-1.5,0.7-2.2,2.1-2.2c1.2,0.1,1.9,0.8,1.9,2c0,3.5,0,7,0,10.6
		c0,1.5-0.7,2.2-2.1,2.2c-1.5-0.1-1.9-1.1-1.8-2.4C744.4,224.2,744.4,222.5,744.4,220.8z"/>
	<path class="st0" d="M767.2,226.2c-0.1,1.4-0.9,2.1-2.2,2.1c-1.2,0-1.9-0.8-2-2c0-1.3,0.6-2.3,2-2.3
		C766.4,224,767.1,224.8,767.2,226.2z"/>
	<path class="st0" d="M811.2,252.4c0,1.8,0,3.6,0,5.5c0,1.3-0.8,1.9-2,1.9c-1.2,0-1.9-0.6-1.9-1.9c0-3.6,0-7.3,0-10.9
		c0-1.3,0.8-1.9,2-1.9c1.2,0,1.9,0.6,1.9,2C811.2,248.7,811.2,250.6,811.2,252.4C811.2,252.4,811.2,252.4,811.2,252.4z"/>
	<path class="st0" d="M96.6,348.7c0.3,3.3,0.8,6.8-4.6,5.9c-1.9-0.3-1.7,1.3-1.6,2.4c0.4,3.3-1.1,4.2-4.1,3.9
		c-1.3-0.1-2.6-0.1-3.9,0c-3.1,0.3-5.2-0.3-4.6-4.1c0.4-2.2-1.1-2.4-2.6-2.2c-3.1,0.4-3.9-1.1-3.7-3.9c0.2-1.7,0.2-3.4,0-5.1
		c-0.2-2.7,0.7-4,3.5-3.6c2.3,0.3,3.1-0.6,2.8-2.8c-0.4-2.9,1-3.7,3.6-3.5c1.4,0.1,2.9,0.1,4.3,0c3.1-0.3,5.2,0.3,4.6,4.1
		c-0.2,1-0.2,2.4,1.4,2.1C97.9,341,96.7,345.2,96.6,348.7z"/>
	<path class="st0" d="M116.8,363.2c-4.1,0-8.1-0.1-12.2,0c-2.3,0.1-3.4-0.7-3.3-3.1c0.1-3.4,0.1-6.8,0-10.2
		c-0.1-2.3,0.7-3.3,3.1-3.3c8.4,0.1,16.7,0.1,25.1,0c2.7,0,3.4,1.1,3.3,3.5c-0.2,3.1-0.2,6.3,0,9.4c0.1,2.7-0.7,3.8-3.5,3.7
		C125.2,363.1,121,363.2,116.8,363.2z"/>
	<path class="st0" d="M161,360.8c-4.1-0.1-7-3.2-6.9-7.3c0.1-4.1,3.3-7,7.4-6.8c3.9,0.2,6.7,3.1,6.7,7.1
		C168.2,358,165.1,360.9,161,360.8z"/>
	<path class="st0" d="M137.6,353.6c0.1-4.1,3.2-7,7.4-6.9c4.1,0.1,7,3.3,6.8,7.5c-0.2,3.9-3.2,6.7-7.2,6.7
		C140.4,360.8,137.5,357.7,137.6,353.6z"/>
	<path class="st0" d="M116.7,334.1c4.3,0,8.6,0,12.9,0c1.5,0,2.8,0.3,2.8,2c0,1.6-1.3,2-2.8,2c-8.6,0-17.3,0-25.9,0
		c-1.5,0-2.7-0.2-2.7-2c0-1.8,1.3-2,2.7-2C108.1,334.1,112.4,334.1,116.7,334.1z"/>
	<path class="st0" d="M117.1,327.8c4.2,0,8.4,0,12.6,0c1.5,0,2.8,0.3,2.8,1.9c0,1.6-1.2,2-2.7,2c-8.6,0-17.3,0-25.9,0
		c-1.4,0-2.7-0.2-2.7-2c0-1.8,1.2-2,2.7-2C108.2,327.8,112.6,327.8,117.1,327.8z"/>
	<path class="st0" d="M116.7,344.3c-4.1,0-8.1,0-12.2,0c-1.5,0-3.4,0.4-3.4-2c0-2.1,1.7-1.9,3.2-1.9c8.4,0,16.7,0,25.1,0
		c1.5,0,3.1,0.1,3.1,2.1c-0.1,2-1.7,1.9-3.2,1.9C125,344.3,120.8,344.3,116.7,344.3z"/>
	<path class="st0" d="M706.9,357.8c-3.7-0.1-6.5-2.9-6.4-6.5c0.1-3.4,3.3-6.3,6.8-6.2c3.4,0.1,6.1,3,6.1,6.4
		C713.3,355.3,710.7,357.9,706.9,357.8z"/>
	<path class="st0" d="M692.5,351.5c0,3.7-2.7,6.3-6.5,6.3c-3.6,0-6.2-2.5-6.2-6.1c-0.1-3.7,2.6-6.5,6.2-6.6
		C689.7,345,692.5,347.8,692.5,351.5z"/>
	<path class="st0" d="M696.5,334.8c3.8,0,6.4,2.6,6.4,6.4c0,3.6-2.5,6.2-6,6.3c-3.7,0.1-6.6-2.6-6.7-6.2
		C690.1,337.6,692.8,334.8,696.5,334.8z"/>
	<path class="st0" d="M702.8,362.1c-0.1,3.7-2.8,6.4-6.5,6.2c-3.4-0.1-6.2-2.9-6.2-6.3c0-3.5,3.1-6.6,6.5-6.5
		C700.2,355.5,702.9,358.3,702.8,362.1z"/>
	<path class="st0" d="M467.7,228c0-0.9,0.1-1.8,0-2.7c-0.3-2.8,1-3.9,3.6-3.5c2.6,0.4,3.9-0.5,3.5-3.3c-0.3-2.2,0.8-3.1,2.9-3
		c1.6,0.1,3.2,0.1,4.7,0c2.9-0.3,4.7,0.5,4.1,3.8c-0.3,1.8,0.3,2.8,2.3,2.5c3.6-0.6,4.3,1.3,4,4.4c-0.1,1-0.1,2.1,0,3.1
		c0.3,3.3-0.1,5.8-4.4,5.1c-2.4-0.4-1.9,1.6-1.8,2.9c0.2,2.6-0.9,3.6-3.4,3.4c-1.4-0.1-2.9-0.1-4.3,0c-2.9,0.3-4.6-0.5-4.1-3.8
		c0.1-1.1,0.3-2.2-1.5-2.5C467.7,233.3,467.7,233.2,467.7,228z"/>
	<path class="st0" d="M513.3,226.4c4.2,0,8.4,0.1,12.5,0c2.4-0.1,3.3,0.8,3.2,3.2c-0.1,3.4-0.1,6.8,0,10.2c0.1,2.4-0.9,3.2-3.2,3.2
		c-8.4-0.1-16.7-0.1-25.1,0c-2.4,0-3.3-0.9-3.2-3.2c0.1-3.4,0.1-6.8,0-10.2c-0.1-2.4,0.9-3.2,3.2-3.2
		C504.9,226.5,509.1,226.4,513.3,226.4z"/>
	<path class="st0" d="M547.9,233.6c-0.1,4.1-3.1,7-7.3,6.9c-4.1-0.1-7-3.2-6.8-7.4c0.1-3.9,3.1-6.8,7.1-6.7
		C545,226.4,547.9,229.5,547.9,233.6z"/>
	<path class="st0" d="M557.1,240.6c-4.1-0.1-7-3.2-6.9-7.4c0.1-4.1,3.3-7,7.5-6.8c3.9,0.2,6.7,3.2,6.7,7.2
		C564.3,237.7,561.3,240.7,557.1,240.6z"/>
	<path class="st0" d="M512.5,224.1c-4.2,0-8.4,0-12.6,0c-1.5,0-2.7-0.2-2.7-2c0-1.8,1.3-2,2.7-2c8.6,0,17.3,0,25.9,0
		c1.5,0,2.8,0.3,2.8,2c0,1.6-1.3,2-2.8,2C521.4,224,516.9,224.1,512.5,224.1z"/>
	<path class="st0" d="M512.9,207.6c4.3,0,8.6,0,12.9,0c1.5,0,2.8,0.4,2.7,2c0,1.7-1.3,2-2.8,2c-8.6,0-17.3,0-25.9,0
		c-1.5,0-2.7-0.2-2.7-2c0-1.8,1.3-2,2.7-1.9C504.3,207.6,508.6,207.6,512.9,207.6z"/>
	<path class="st0" d="M512.8,217.8c-4.3,0-8.6,0-12.9,0c-1.5,0-2.6-0.4-2.6-2.1c0.1-1.5,1.1-1.8,2.4-1.8c8.8,0,17.5,0,26.3,0
		c1.5,0,2.7,0.4,2.6,2.1c-0.1,1.7-1.5,1.9-2.9,1.9C521.4,217.8,517.1,217.8,512.8,217.8z"/>
	<path class="st0" d="M185.6,55.5c-1.3-0.1-2.2-0.8-2.3-2.1c0-1.3,0.8-2.2,2.1-2.2c1.4,0,2.2,0.8,2.3,2.1
		C187.8,54.6,186.9,55.3,185.6,55.5z"/>
	<path class="st0" d="M719.7,38.6c-2-0.1-3.2-1.3-3.2-3.2c0-1.9,1.1-3.2,3.2-3.2c2.1,0,3.2,1.3,3.2,3.1
		C722.9,37.3,721.8,38.6,719.7,38.6z"/>
	<path class="st0" d="M691.4,35.3c-0.2,2-1.1,3.3-3.1,3.4c-2.1,0.1-3.3-1.2-3.4-3c-0.1-1.9,1-3.2,3.1-3.3
		C690,32.2,691,33.5,691.4,35.3z"/>
	<path class="st0" d="M88.7,176.9c-0.5,1.9-1.6,3.1-3.6,2.9c-2-0.2-3-1.5-2.9-3.5c0.2-2,1.5-3,3.5-2.8
		C87.7,173.7,88.5,175.1,88.7,176.9z"/>
	<path class="st0" d="M116.9,173.5c2,0,3.2,1.1,3.3,3c0.1,2-1.2,3.2-3.1,3.3c-1.9,0.1-3.2-1-3.2-3.1
		C113.8,174.7,114.9,173.7,116.9,173.5z"/>
	<path class="st0" d="M92.7,348.1c0.4,2.3-0.7,2.7-2.4,2.5c-2.9-0.4-4.2,0.7-3.8,3.7c0.2,1.6-0.1,2.6-2.2,2.7
		c-2.2,0-2.8-0.9-2.5-2.8c0.5-3.1-1.2-3.9-3.9-3.6c-1.9,0.2-2.4-0.6-2.4-2.4c0-2,0.8-2.5,2.6-2.3c2.9,0.4,4.2-0.8,3.8-3.7
		c-0.2-1.7,0.1-2.7,2.2-2.6c1.8,0.1,2.8,0.4,2.5,2.4c-0.5,3.1,0.7,4.4,3.9,4C92.1,345.7,93.2,346.2,92.7,348.1z"/>
	<path class="st0" d="M117.2,359.3c-2.1,0-4.2,0-6.3,0c-5.7,0-6.7-1.3-5.6-7.1c0.3-1.5,1.1-1.5,2.2-1.5c6.4,0,12.8,0,19.2,0
		c1.7,0,2.2,0.6,2.3,2.2c0.4,6.4,0.5,6.4-5.9,6.4C121.1,359.3,119.1,359.3,117.2,359.3z"/>
	<path class="st0" d="M161.2,350.7c1.8,0.3,2.9,1.3,2.9,3.1c0,2-1.3,3.1-3.3,3c-1.7-0.2-2.8-1.4-2.7-3.2
		C158.3,351.8,159.5,350.9,161.2,350.7z"/>
	<path class="st0" d="M147.7,353.7c-0.2,1.8-1.1,3-2.9,3c-2,0.1-3.2-1.2-3.1-3.1c0.1-1.8,1.2-2.9,3-2.9
		C146.5,350.8,147.4,352,147.7,353.7z"/>
	<path class="st0" d="M709,351.6c-0.2,1.1-1,1.9-2.1,1.8c-1.1-0.1-1.9-0.8-1.8-2.1c0.1-1.1,0.8-1.6,1.8-1.6
		C708.2,349.7,708.8,350.4,709,351.6z"/>
	<path class="st0" d="M688,351.7c-0.2,1.1-0.8,2-2.1,1.8c-1.1-0.2-1.9-0.9-1.7-2.2c0.2-1,0.8-1.6,1.9-1.6
		C687.4,349.7,688,350.4,688,351.7z"/>
	<path class="st0" d="M696.4,343c-1.2-0.2-1.8-0.8-1.7-2.1c0.1-1.1,0.9-1.6,1.8-1.6c1.2,0,2,0.8,1.9,1.9
		C698.5,342.3,697.6,342.9,696.4,343z"/>
	<path class="st0" d="M698.6,361.9c-0.4,1.2-0.9,2.1-2.2,2c-1.3-0.1-1.8-1-1.7-2.2c0.1-1.1,0.8-1.6,1.8-1.7
		C697.9,360,698.3,361,698.6,361.9z"/>
	<path class="st0" d="M488.9,228.2c0.3,1.8-0.6,2.4-2.2,2.2c-2.9-0.4-4.6,0.5-4.1,3.8c0.2,1.4,0.1,2.5-1.9,2.5c-2,0-2.2-1-2-2.5
		c0.5-3.2-1-4.3-4-3.9c-1.8,0.2-3.2,0.1-3.1-2.5c0.1-2.6,1.6-2.3,3.1-2.2c3,0.3,4.5-0.6,4.1-3.9c-0.2-1.4-0.1-2.5,1.9-2.5
		c2,0,2.2,1.1,2,2.5c-0.5,3.2,1.1,4.3,4,3.9C488.7,225.3,489.2,226.4,488.9,228.2z"/>
	<path class="st0" d="M513.1,230.4c2.9,0,5.8,0.3,8.6-0.1c4-0.5,3.4,2,3.3,4.3c0,2.2,0.8,4.7-3.2,4.5c-5.7-0.3-11.5-0.2-17.3,0
		c-2.2,0.1-3.2-0.3-3.2-2.9c0.1-5.8-0.1-5.8,5.8-5.8C509.2,230.4,511.2,230.4,513.1,230.4z"/>
	<path class="st0" d="M541.1,236.6c-1.9-0.1-3.1-1.1-3.3-2.8c-0.1-2,1.1-3.2,3-3.2c1.8,0,2.9,1.2,2.9,2.9
		C543.8,235.3,542.6,236.2,541.1,236.6z"/>
	<path class="st0" d="M560.3,233.4c-0.2,1.8-1.1,3-2.9,3c-2,0.1-3.2-1.2-3.1-3.1c0.1-1.8,1.2-2.9,3-2.9
		C559.1,230.5,560.1,231.7,560.3,233.4z"/>
	<path class="st0" d="M111.9,356.8c-1.4,0-2.4,0.1-3.2,0c-1.1-0.2-1.4-1.1-1.3-2.1c0.1-0.8,0.4-1.6,1.3-1.7c0.9-0.1,1.8-0.2,2.7-0.1
		c1.6,0.2,4.3-0.9,4.4,1.8C116,357.9,113.1,356.6,111.9,356.8z"/>
	<path class="st0" d="M122.2,356.9c-1.5-0.2-3.8,0.7-3.8-2c0-2.7,2.3-1.9,3.8-1.9c1.6,0,3.9-0.6,3.9,1.9
		C126.1,357.4,123.9,356.8,122.2,356.9z"/>
	<path class="st0" d="M508.1,236.7c-1.5-0.2-3.8,0.7-3.8-2c0-2.7,2.3-1.9,3.9-1.9c1.6,0,3.9-0.6,3.9,2
		C512.1,237.2,509.8,236.6,508.1,236.7z"/>
	<path class="st0" d="M518.4,236.7c-1.5-0.2-3.8,0.7-3.8-1.9c-0.1-2.7,2.2-2,3.8-2c1.6,0,3.9-0.6,4,1.9
		C522.3,237.2,520.1,236.6,518.4,236.7z"/>
</g>
</svg>
